<svg xmlns="http://www.w3.org/2000/svg" viewBox="0 0 150.0592 58.8897"><defs><style>.a{fill:#262e63;}</style></defs><title>drop-logo</title><path class="a" d="M125.5451,40.9737a13.8554,13.8554,0,0,0,9.8293,4.1886c8.11,0,14.6848-7.2956,14.6848-16.2951S143.4846,12.572,135.3744,12.572a13.9293,13.9293,0,0,0-10.2565,4.6334m7.927,19.1012a7.348,7.348,0,1,1,7.4989-7.3464A7.4239,7.4239,0,0,1,133.0449,36.3066Z" transform="translate(0 0.1945)"/><path class="a" d="M94.0036,12c-9.5875,0-17.36,7.4237-17.36,16.5812s7.7722,16.5812,17.36,16.5812,17.36-7.4237,17.36-16.5812S103.5911,12,94.0036,12Zm0,24.3a7.7709,7.7709,0,1,1,7.7709-7.7709A7.7708,7.7708,0,0,1,94.0036,36.3Z" transform="translate(0 0.1945)"/><path class="a" d="M49.8832,45.1623V13.4443h9.6211v5.8678c1.2473-4.6633,6.1621-7.0583,12.4229-6.185v8.4581c-7.424-1.3569-11.4185,1.85-12.4229,6.2174v17.36Z" transform="translate(0 0.1945)"/><polyline class="a" points="125.545 41.168 125.546 58.837 116.438 58.89 116.438 13.242 125.118 13.242 125.118 17.4"/><path class="a" d="M22.9758-.1945H1.7247c-2.2731.793-2.326,4.5463,0,5.0749h9.1982c-.2092,2.9475-1.6618,4.4488-3.7,4.4405H1.1961C-.2312,9.6381,0,12.44,1.1961,12.95H29.848c2.6432,0,2.7489,4.9352,0,4.9352H10.2886c-.8987.3172-.8987,2.2731,0,2.5374H34.0771a2.5057,2.5057,0,0,1,0,4.9692H10.2886c-.674.37-.674,2.22,0,2.5374H29.848c2.8018,0,3.33,4.5463,0,4.5463H10.2886c-1.0573.37-1.11,2.4845,0,2.7489H22.1828q5.392,2.2731,0,4.5462H1.7247c-1.9559.6344-2.1674,4.2291,0,4.9692H22.1828C54.9052,39.2416,51.3105,2.8716,22.9758-.1945Z" transform="translate(0 0.1945)"/></svg>