<svg xmlns="http://www.w3.org/2000/svg" viewBox="0 0 1920 1080"><defs><style>.a{isolation:isolate;}.b{opacity:0.2443;}.aa,.ab,.ac,.ad,.ae,.af,.ag,.ah,.ai,.aj,.ak,.al,.am,.an,.ao,.ap,.aq,.ar,.as,.at,.au,.av,.aw,.ax,.ay,.az,.b,.ba,.bb,.bc,.d,.e,.f,.g,.h,.i,.j,.k,.l,.m,.n,.o,.p,.q,.r,.s,.t,.u,.v,.w,.x,.y,.z{mix-blend-mode:color-dodge;}.c{fill:#f14f31;}.d{opacity:0.5038;}.e{opacity:0.8777;}.f{opacity:0.5761;}.g{opacity:0.1811;}.h{opacity:0.6975;}.i{opacity:0.0547;}.j{opacity:0.341;}.k{opacity:0.4395;}.l{opacity:0.8687;}.m{opacity:0.6378;}.n{opacity:0.6534;}.o{opacity:0.4075;}.p{opacity:0.1929;}.q{opacity:0.3403;}.r{opacity:0.9176;}.s{opacity:0.1984;}.t{opacity:0.2669;}.u{opacity:0.7806;}.v{opacity:0.9353;}.w{opacity:0.4956;}.x{opacity:0.6271;}.y{opacity:0.7557;}.z{opacity:0.3556;}.aa{opacity:0.0587;}.ab{opacity:0.5999;}.ac{opacity:0.7881;}.ad{opacity:0.397;}.ae{opacity:0.1352;}.af{opacity:0.5835;}.ag{opacity:0.7245;}.ah{opacity:0.6437;}.ai{opacity:0.593;}.aj{opacity:0.4081;}.ak{opacity:0.9412;}.al{opacity:0.2546;}.am{opacity:0.5939;}.an{opacity:0.2255;}.ao{opacity:0.1251;}.ap{opacity:0.2913;}.aq{opacity:0.7893;}.ar{opacity:0.7612;}.as{opacity:0.3186;}.at{opacity:0.769;}.au{opacity:0.7914;}.av{opacity:0.7235;}.aw{opacity:0.1424;}.ax{opacity:0.3504;}.ay{opacity:0.5955;}.az{opacity:0.8014;}.ba{opacity:0.38;}.bb{opacity:0.9285;}.bc{opacity:0.9356;}</style></defs><title>header-background_image-grid</title><g class="a"><g class="b"><path class="c" d="M1538.5727,302.3314l-27.8753,103.3292L1425.3918,297.05Zm-2.845,2.0744-105.6238-4.93,79.6086,101.36Z"/></g><g class="d"><path class="c" d="M1743.1391-18.0727l128.6411,141.54,1.4627,1.6035-175.0047,18.6164Zm1.0547,4.445-42.9629,154.7758,167.4547-17.8076Z"/></g><g class="e"><path class="c" d="M1854.2117-26.3926h92.1765l-75.15,152.5393L1741.3491-16.7573Zm88.6318,2.2084-88.5389-.0072L1745.9838-14.936,1870.69,122.2645Z"/></g><g class="f"><path class="c" d="M1578.2919,752.2832l-6.221,18.9261-71.7967,35.8615-1.1059-1.906Zm-4.0935,5.3874-59.2656,39.61,55.3308-27.6327Z"/></g><g class="g"><path class="c" d="M1696.1425,927.3145l-85.8612,69.6338-14.2647-128.6761Zm-3.8541.2881-93.592-55.1879,13.3328,120.2787Z"/></g><g class="h"><path class="c" d="M968.4437,325.0409l12.3849,108.8854-76.8513-81.97-1.1113-1.1886Zm-1.8675,3.1014-59.8774,23.4906,71.1868,75.9284Z"/></g><g class="i"><path class="c" d="M1733.996,259.5565l-176.9106,84.966-.9917.471-20.5468-42.409Zm-17.8569,6.1255-177.3852,38.4638,18.3668,37.9079Z"/></g><g class="j"><path class="c" d="M1758.4887,505.3889l.3568-.6892,98.0352,12.8985-145.7631,79.6773Zm1.6053,1.7018-43.7158,84.7975,133.5149-72.9818Z"/></g><g class="k"><path class="c" d="M1926.7607,493.7562,1903.23,629.4655l-51.3659-111.8886Zm-2.7954,3.2L1854.91,518.92,1902.27,622.088Z"/></g><g class="l"><path class="c" d="M1916.0865,894.2171l-188.7788,134.605-1.2258.8721-33.3171-103.1394Zm-8.6893,3.4882-211.7311,30.6571,31.5886,97.7871Z"/></g><g class="m"><path class="c" d="M948.6423,314.0552l21.3645,12.7368-71.4,28.0126Zm.1966,2.6866-37.8816,30.8469,54.0558-21.2047Z"/></g><g class="n"><path class="c" d="M992.1081,30.7225,936.146,237.1419,893.9109,55.1342Zm-3.1122,3.0453L896.5518,56.7517l39.76,171.3458Z"/></g><g class="o"><path class="c" d="M970.1613,329.4577l-22.4351-13.3838L940.9392,270.5Zm-5.3027-5.7319-19.675-39.6946,4.5713,30.6851Z"/></g><g class="p"><path class="c" d="M1329.7253,372.9359l-37.1045,154.9515-116.19-144.2334Zm-2.8451,2.4122L1180.7988,385.56,1291.52,523.0067Z"/></g><g class="q"><path class="c" d="M1947,605.518v99.3348L1910.4846,775.38l-8.8809-150.31Zm-2.2048,99.0672V608.873l-40.8988,17.6106,8.3184,140.787Z"/></g><g class="r"><path class="c" d="M1575.329,754.2385l62.6818-36.4873,1.2276,1.8286-70.2336,53.9013Zm1.8322,1.484-3.8314,11.6608,50.856-39.0332Z"/></g><g class="s"><path class="c" d="M1714.2086,591.6912,1739.0492,698.53l-102.7456,21.7812Zm-.9214,5.7809-72.4579,119.6252,95.5613-20.2551Z"/></g><g class="t"><path class="c" d="M1905.0447,625.0346l-74.8529,75.0286L1710.1821,592.88Zm-4.5894,1.4771-183.1416-30.221,112.79,100.734Z"/></g><g class="u"><path class="c" d="M1870.2048,123.4039l1.5963-1.5121,13.5754,114.962-163.6866,27.45Zm-.0774,3.1155L1728.4452,260.9349l154.4946-25.91Z"/></g><g class="v"><path class="c" d="M1947,210.7332v45.2011l-66.26-19.8684Zm-2.2048,3.2069-57.2189,21.8727,57.2189,17.16Z"/></g><g class="w"><path class="c" d="M937.711,234.1319l-42.99-10.7815-.6277-177.19Zm-2.9643-3.0172L896.3693,65.7259l.5538,155.9011Z"/></g><g class="x"><path class="c" d="M1441.1267,724.1792l60.3768,82.3853-111.5616,45.9044Zm.5729,4.5156-47.7769,119.7511,104.138-42.8522Z"/></g><g class="y"><path class="c" d="M1576.08,658.3715l1.2852,97.97L1438.0814,726.859Zm-2.1591,3.5375-129.1758,64.106,130.38,27.5977Z"/></g><g class="z"><path class="c" d="M1725.8868,260.9979l33.6688,179.4057L1554.04,343.5377Zm-1.6385,3.2354-165.074,79.2835,197.4171,93.054Z"/></g><g class="aa"><path class="c" d="M1759.1408,436.7393l1.4505,70.0914L1542.45,542.228Zm-2.1346,3.4954L1556.892,537.65l201.4559-32.69Z"/></g><g class="ab"><path class="c" d="M1381.578,361.2678l45.0834,75.9008L1325.4348,373.646Zm-1.0831,2.4969-49.3246,10.873,88.9364,55.8141Z"/></g><g class="ac"><path class="c" d="M1425.3514,433.7434l-73.9857,53.81L1326.68,371.8174Zm-3.935.1336-91.4909-57.4176,22.8892,107.31Z"/></g><g class="ad"><path class="c" d="M1454.4,436.7674l-31.6646-1.8915-47.4622-79.9025Zm-5.5245-2.5386L1386.8,370.06l37.2331,62.6853Z"/></g><g class="ae"><path class="c" d="M1422.6227,432.66l30.9152,1.8426L1378.16,557.4685Zm1.5224,2.3L1387.34,538.2753l62.3969-101.7891Z"/></g><g class="af"><path class="c" d="M763.26,93.0914,805.5744,166.32l-113.536-29.5177Zm-.7771,3.0665-64.8743,39.8139L801.0276,162.859Z"/></g><g class="ag"><path class="c" d="M1047.59,366.6271l-69.0766,66.4551L966.1809,324.661Zm-3.7522.5487L968.839,328.515l11.362,99.8832Z"/></g><g class="ah"><path class="c" d="M1047.5053,363.6452l-10.7145,52.3187L975.45,432.97Zm-3.5833,6.5126-60.6581,58.36,51.6382-14.319Z"/></g><g class="ai"><path class="c" d="M1570.5625-26.3926,1526.5587,2.1543l-5.4965-28.5469Zm-7.455,2.2084h-39.3727l4.3708,22.7027Z"/></g><g class="aj"><path class="c" d="M1244.8788,104.8368l.6644.668-71.656,98.5469L1132.7457-7.3755Zm-2.2261.8931L1136.29-.708l38.7923,199.3651Z"/></g><g class="ak"><path class="c" d="M1438.48-13.241l52.9164,171.367-131.5845-46.0031Zm-.6893,5.2469-74.6414,118.95L1488,154.6025Z"/></g><g class="al"><path class="c" d="M1748.8638,777.4126l-54.0576,151.674-99.6-58.7327Zm-4.1565,5.0917-145.2,87.8283,94.1177,55.4977Z"/></g><g class="am"><path class="c" d="M1809.49,721.1624l-63.5557,61.1449-9.5014-86.2249Zm-4.1317.9142-66.3515-22.78,8.63,78.3126Z"/></g><g class="an"><path class="c" d="M1009.58,244.8291l-67.3781,34.11-7.2969-47.6772Zm-6.8537.9989-65.1732-11.8438,6.3682,41.6143Z"/></g><g class="ao"><path class="c" d="M1008.5355,242.8879l-41.0043,86.2252L941.5881,276.78Zm-4.7651,4.881-59.2357,29.9887,22.954,46.3056Z"/></g><g class="ap"><path class="c" d="M1006.3447,242.3607l41.247,126.7492L966.0559,327.08Zm-.3835,5.9429L968.964,326.0959l74.8719,38.5971Z"/></g><g class="aq"><path class="c" d="M1175.16,200.0359l22.8784,59.5836-198.69-13.6511Zm-1.35,2.63-160.8524,42.03L1194.74,257.1792Z"/></g><g class="ar"><path class="c" d="M789.3934-26.3926h13.1181L779.6245,79.2012,777.451,78.85Zm1.969,2.2084-9.2465,81.4775,17.66-81.4775Z"/></g><g class="as"><path class="c" d="M1029.9245-26.3714l47.7384,8.4042L989.72,34.0141l-9.7463-60.4067Zm41.4807,9.5435-41.6722-7.3563H982.5661l8.8175,54.6536Z"/></g><g class="at"><path class="c" d="M897.9832,222.5344,808.938,272.6026l-6.8712-110.0882Zm-4.3218-.0983-89.1262-55.772L810.9214,268.96Z"/></g><g class="au"><path class="c" d="M810.6434,269.944l95.6176,81.0627-4.4148,6.33L809.1808,271.59Zm92.66,81.45-55.3182-46.9033,53.5019,49.5053Z"/></g><g class="av"><path class="c" d="M1036.4811,413.1156l15.93,61.9608-43.0788-39.3918Zm-1.2693,3.9242-22.5252,18.7219,35.7438,32.6826Z"/></g><g class="aw"><path class="c" d="M1703.06-26.3926h28.5786l13.9658,10.6338L1646.3732,46.28Zm27.8332,2.2084h-26.7573l-48.3415,61.9749,85.9351-53.7252Z"/></g><g class="ax"><path class="c" d="M1561.9311,785.9363l37.9115,87.3646-102.626-67.5877Zm-1.2376,2.6866-58.3463,17.8289,92.5233,60.9342Z"/></g><g class="ay"><path class="c" d="M1571.5592,767.5731l26.8646,102.4855-2.0784.7242L1560.0781,787.21Zm-.7839,5.711-8.2288,14.0731,30.0961,69.3525Z"/></g><g class="az"><path class="c" d="M1781.0506,488.0455l-22.6343,20.276-1.56-75.3516Zm-2.6622-.5769L1759.29,443.9977l1.2326,59.478Z"/></g><g class="ba"><path class="c" d="M1779.5,486.4769,1861.554,520.44l-104.6094-13.7637Zm.44,2.5671-17.9448,16.0705,83.2254,10.95Z"/></g><g class="bb"><path class="c" d="M1354.14,356.0285l32.2641,6.4352-63.793,14.059Zm.45,2.342-20.5979,13.3839,41.6758-9.1852Z"/></g><g class="bc"><path class="c" d="M1196.9748,257.46l159.4422,99.7215-28.2146,18.3351L1195.6615,259.2259Zm155.3386,99.7564-144.94-90.6486L1328.403,372.76Z"/></g><g class="b"><path class="c" d="M207.6274,899.9769,224.7328,836.57,277.08,903.2181Zm1.7457-1.2729,64.815,3.0255L225.337,839.531Z"/></g><g class="d"><path class="c" d="M82.0971,1096.59,3.1579,1009.7352l-.8977-.9841,107.39-11.4235Zm-.6471-2.7276,26.3637-94.9766L5.057,1009.813Z"/></g><g class="e"><path class="c" d="M13.9387,1101.6953H-42.6244L3.49,1008.0911l79.7054,87.6915Zm-54.3882-1.3554,54.3309.0047,66.47-5.68L3.827,1010.4734Z"/></g><g class="f"><path class="c" d="M183.2539,623.8688l3.8177-11.6141,44.0571-22.0058.6788,1.1695Zm2.512-3.306,36.3678-24.3062L188.18,613.213Z"/></g><g class="g"><path class="c" d="M110.9361,516.4626l52.6878-42.73,8.7535,78.9608Zm2.3651-.1768,57.4316,33.8655-8.1812-73.8079Z"/></g><g class="h"><path class="c" d="M557.4812,886.0418l-7.6-66.8167,47.159,50.3.682.73Zm1.1461-1.9035,36.743-14.4148-43.683-46.5925Z"/></g><g class="i"><path class="c" d="M87.7077,926.2254l108.56-52.1387.6086-.2887,12.6082,26.0237Zm10.9579-3.759,108.8505-23.6029-11.27-23.2615Z"/></g><g class="j"><path class="c" d="M72.6782,775.3728l-.2189.4231L12.301,767.8807l89.4459-48.8931Zm-.9852-1.0443,26.8257-52.0349-81.93,44.7845Z"/></g><g class="k"><path class="c" d="M-30.58,782.5112l14.44-83.2768,31.52,68.6593Zm1.7155-1.9639L13.51,767.07l-29.0623-63.308Z"/></g><g class="l"><path class="c" d="M-24.03,536.7724,91.812,454.1733l.7522-.5351,20.4446,63.29Zm5.3322-2.1407,129.9267-18.8122-19.3841-60.006Z"/></g><g class="m"><path class="c" d="M569.6321,892.7827l-13.11-7.8158,43.8134-17.1893Zm-.1207-1.6485,23.2457-18.9289-33.1709,13.0122Z"/></g><g class="n"><path class="c" d="M542.96,1066.6469,577.3006,939.98l25.9168,111.6873Zm1.91-1.8685,56.7273-14.1037L577.199,945.53Z"/></g><g class="o"><path class="c" d="M556.4272,883.3314l13.767,8.2126L574.359,919.51Zm3.2541,3.5173,12.0731,24.358-2.8051-18.8295Z"/></g><g class="p"><path class="c" d="M335.7846,856.6515l22.7685-95.0846,71.2988,88.5075Zm1.7457-1.48,89.6414-6.2663-67.943-84.3431Z"/></g><g class="r"><path class="c" d="M185.072,622.6689l-38.4638,22.39-.7534-1.1221,43.0983-33.0758Zm-1.1242-.9106,2.351-7.1558-31.2073,23.9526Z"/></g><g class="s"><path class="c" d="M99.85,722.4142l-15.2431-65.56,63.0488-13.3658Zm.5657-3.5473L144.8786,645.46,86.2385,657.89Z"/></g><g class="t"><path class="c" d="M-17.2546,701.9535l45.9329-46.0406,73.6426,65.7721Zm2.8163-.9064,112.383,18.5447L28.732,657.7775Z"/></g><g class="u"><path class="c" d="M4.1248,1009.7741l-.98.928-8.33-70.5455L95.2592,923.3123Zm.0475-1.9117L91.1141,925.38-3.69,941.2787Z"/></g><g class="w"><path class="c" d="M576.34,941.8271l26.38,6.6159.3853,108.731Zm1.8188,1.8512,23.55,101.4892-.34-95.6669Z"/></g><g class="x"><path class="c" d="M267.4241,641.1143l-37.05-50.5547,68.4587-28.1688Zm-.3514-2.7709L296.39,564.8592l-63.9032,26.296Z"/></g><g class="y"><path class="c" d="M184.6115,681.4967l-.7886-60.1183,85.47,18.0917Zm1.3247-2.171,79.2676-39.3378-80.0065-16.9351Z"/></g><g class="z"><path class="c" d="M92.6838,925.341,72.0232,815.25l126.1126,59.4409Zm1.0054-1.9855,101.2961-48.6516L73.8424,817.6025Z"/></g><g class="aa"><path class="c" d="M72.2778,817.4991l-.89-43.011,133.86-21.7211Zm1.31-2.145,122.7979-59.7777-123.6211,20.06Z"/></g><g class="ab"><path class="c" d="M303.9655,863.8112,276.3,817.2356l62.1168,38.98Zm.6647-1.5322,30.2675-6.6721-54.5747-34.25Z"/></g><g class="ac"><path class="c" d="M277.1045,819.3374l45.4006-33.02,15.1483,71.02Zm2.4147-.0821,56.1426,35.2338-14.0461-65.85Z"/></g><g class="ad"><path class="c" d="M259.2792,817.4819l19.4309,1.16,29.1245,49.0315Zm3.39,1.5577,38.0919,39.3767L277.9136,819.95Z"/></g><g class="ae"><path class="c" d="M278.7789,820.0021l-18.9707-1.1307,46.2548-75.4567Zm-.9341-1.4112L300.43,755.1926,262.14,817.6543Z"/></g><g class="af"><path class="c" d="M683.39,1028.375l-25.9658-44.9358,69.67,18.1133Zm.4767-1.8818,39.81-24.4311-63.4621-16.4994Z"/></g><g class="ag"><path class="c" d="M508.9139,860.5228l42.3885-40.78,7.5673,66.5316Zm2.3024-.337L557.2388,883.91l-6.9724-61.2922Z"/></g><g class="ah"><path class="c" d="M508.9661,862.3525l6.5745-32.1051,37.6411-10.4354Zm2.1987-3.9963,37.2223-35.8122L516.7,831.331Z"/></g><g class="aj"><path class="c" d="M387.85,1021.1678l-.408-.41,43.9711-60.4722,25.246,129.74Zm1.3658-.5481,65.2683,65.3144L430.6794,963.5957Z"/></g><g class="ak"><path class="c" d="M269.0481,1093.625,236.5762,988.4672l80.7458,28.2293Zm.4228-3.22,45.8029-72.9919L238.6608,990.63Z"/></g><g class="al"><path class="c" d="M78.5844,608.4482l33.172-93.0731,61.1182,36.0408Zm2.55-3.1245,89.1006-53.8948-57.7543-34.0556Z"/></g><g class="am"><path class="c" d="M41.3816,642.9655l39-37.5208,5.83,52.9111Zm2.5354-.561,40.7159,13.9787-5.2955-48.0556Z"/></g><g class="an"><path class="c" d="M532.2384,935.2626l41.346-20.9313,4.4778,29.2566Zm4.2059-.6128,39.9928,7.2677-3.9077-25.5362Z"/></g><g class="ao"><path class="c" d="M532.8794,936.4538l25.1617-52.9111,15.92,32.1133Zm2.9239-2.9949,36.3494-18.4024-14.0853-28.4148Z"/></g><g class="ap"><path class="c" d="M534.2236,936.7775l-25.3108-77.7786L558.9464,884.79Zm.2355-3.647,22.703-47.7362-45.9444-23.685Z"/></g><g class="aq"><path class="c" d="M430.6318,962.75l-14.0392-36.5626,121.9244,8.3768Zm.8286-1.614,98.7053-25.7908-111.549-7.66Z"/></g><g class="ar"><path class="c" d="M667.3536,1101.6953h-8.05l14.0446-64.7966,1.3338.2157Zm-1.2081-1.3554,5.674-49.9975-10.837,49.9975Z"/></g><g class="as"><path class="c" d="M519.754,1101.6824l-29.2941-5.1573,53.9651-31.8979,5.9807,37.0681ZM494.3,1095.8258l25.5719,4.5141h28.9434l-5.4107-33.5374Z"/></g><g class="at"><path class="c" d="M600.7187,948.9436,655.36,918.22l4.2163,67.5545Zm2.6521.0605,54.6914,34.2238-3.9189-62.7726Z"/></g><g class="au"><path class="c" d="M654.3136,919.8511l-58.6747-49.743,2.7094-3.8843,56.863,52.6176Zm-56.86-49.9807,33.9454,28.7818-32.8309-30.3784Z"/></g><g class="av"><path class="c" d="M515.7307,831.9953l-9.775-38.0216,26.435,24.1725Zm.7789-2.4079,13.8225-11.4883-21.9339-20.0557Z"/></g><g class="aw"><path class="c" d="M106.6917,1101.6953H89.1545l-8.57-6.5256,60.8918-38.0691ZM89.6122,1100.34h16.4191l29.6643-38.03-52.7332,32.9682Z"/></g><g class="ax"><path class="c" d="M193.2936,603.2179l-23.264-53.61,62.9756,41.4743Zm.7594-1.6489,35.8039-10.94-56.7763-37.3919Z"/></g><g class="ay"><path class="c" d="M187.3856,614.4862,170.9,551.597l1.2754-.4443,22.2551,51.2838Zm.4811-3.5047,5.0492-8.6357-18.468-42.5574Z"/></g><g class="az"><path class="c" d="M58.8331,786.0153l13.8894-12.4419L73.68,819.812Zm1.6337.3543,11.72,26.6752L71.43,776.5467Z"/></g><g class="ba"><path class="c" d="M59.7848,786.9782,9.4332,766.1372l64.1924,8.4459Zm-.27-1.5754,11.0116-9.8615-51.07-6.72Z"/></g><g class="bb"><path class="c" d="M320.8026,867.0264l-19.7985-3.9491L340.15,854.45Zm-.2762-1.4371,12.64-8.2129-25.5741,5.6365Z"/></g><g class="bc"><path class="c" d="M417.2455,927.5117l-97.84-61.1932,17.3135-11.251,81.3323,71.3607Zm-95.3219-61.2144,88.941,55.6254-74.2688-65.1635Z"/></g></g></svg>