<svg xmlns="http://www.w3.org/2000/svg" viewBox="0 0 1322.8291 216.9909"><defs><style>.a{isolation:isolate;}.b,.c{fill:#1e2b4f;}.c{opacity:0.4;mix-blend-mode:overlay;}</style></defs><title>heturbanhuis-logo</title><g class="a"><path class="b" d="M96.446,86.559V215.1536H74.951V161.51H21.4949v53.6436H0V86.559H21.4949v53.274H74.951V86.559Z"/><path class="b" d="M147.1272,108.0513v32.1513H200.586V161.51H147.1272v32.1514h64.2973v21.4922h-85.79V86.559h85.79v21.4923Z"/><path class="b" d="M298.1163,106.214H271.1124v108.94h-21.31V106.214H222.7984V86.559h75.3179Z"/><path class="b" d="M526.22,215.1536,492.7856,161.51H480.4768v53.6436H458.9846v-74.951h20.3888l-20.3888-32.1513V86.559h42.8023s42.9872,0,42.9872,37.4783c0,22.78-15.7985,31.7817-28.2921,35.2713l34.9045,55.845Zm-21.677-75.1358c5.6937-.549,18.7364-3.3048,18.7364-15.98,0-15.986-21.4923-15.986-21.4923-15.986H484.5181Z"/><path class="b" d="M658.6546,178.23c0,35.2714-36.0079,36.9238-44.6423,36.9238H571.21V86.559h42.8023s42.8051-.9186,42.8051,36.19c0,16.8992-10.4716,25.5363-21.4949,28.2921C659.5732,155.9984,658.6546,178.23,658.6546,178.23ZM592.52,140.2026h21.4922s21.31,0,21.31-15.98c0-17.2688-21.31-16.35-21.31-16.35H592.52Zm44.64,37.4728c0-17.2633-23.1474-15.9805-23.1474-15.9805H592.52v32.1513h21.4922C623.0136,193.8462,637.16,191.6394,637.16,177.6754Z"/><path class="b" d="M741.3051,200.2711H696.1138l-5.5116,14.8825H667.4548L718.71,82.8846l51.4367,132.269H746.9989ZM703.0931,181.72h31.23L718.71,137.0772Z"/><path class="b" d="M891.7426,215.1536H870.0655l-63.93-91.486v91.486H784.6429V86.559H806.32l64.1125,91.486V86.559h21.31Z"/><path class="b" d="M1017.7444,86.559V215.1536H996.25V161.51H942.7934v53.6436h-21.495V86.559h21.495v53.274H996.25V86.559Z"/><path class="b" d="M1210.9624,106.214v89.2846h15.062v19.655h-51.6189v-19.655h15.062V106.214h-14.3282V86.559h50.1513v19.655Z"/><path class="b" d="M1242.5485,179.5126h21.495c.3669,10.6592,9.1833,15.986,18.7363,15.986,9.92,0,18.7364-6.43,18.7364-16.535,0-10.8385-10.102-17.4536-18.7364-17.8177a49.2178,49.2178,0,0,1-19.2881-4.2289c-13.4122-6.2455-20.9432-17.633-20.9432-32.88,0-24.4329,19.4729-39.3155,40.2313-39.3155,22.2261,0,39.31,15.0674,39.68,36.9238h-21.3129c-.3642-10.6537-8.6289-15.4316-18.3668-15.4316-10.1047,0-18.7363,5.8813-18.7363,17.8233,0,10.6537,9.1833,16.35,18.7363,16.35a48.64,48.64,0,0,1,19.1061,4.2235c13.5943,6.2454,20.9432,19.106,20.9432,34.3527,0,24.6177-19.2908,38.0273-40.0493,38.0273C1260.5511,216.4419,1242.9154,203.5813,1242.5485,179.5126Z"/><path class="b" d="M408.4854,86.5589v76.7884a42.4368,42.4368,0,0,1-4.5929,17.2688c-5.1449,10.1046-14.1462,14.8826-27.5557,14.8826-13.2275,0-22.2287-4.778-27.5555-14.8826a42.5024,42.5024,0,0,1-4.5932-17.084V86.5589h-21.31v76.9732a63.4447,63.4447,0,0,0,6.43,26.0851c8.8165,17.6384,25.5335,27.3737,47.0285,27.3737,21.4922,0,38.2094-9.7353,47.0285-27.3737a63.42,63.42,0,0,0,6.4275-26.0851V86.5589Z"/><path class="b" d="M1101.1805.0019V0l-.0009.0009L1101.1787,0V.0019c-20.9171,21.8854-20.3194,61.21-20.3194,61.21l20.3194,22.2122v.0018l.0009-.0009.0009.0009v-.0018L1121.5,61.2123S1122.0975,21.8873,1101.1805.0019Z"/><path class="b" d="M1063.1024,27.058c48.5947,29.511,40.3574,68.7508,36.9964,79.3965-8.1072-15.052-26.3252-49.3962-30.6053-61.8968,0,0,13.2721,40.5323,24.2672,63.1746C1038.3573,78.3563,1063.1024,27.058,1063.1024,27.058Z"/><path class="b" d="M1138.0378,27.6672c-48.9952,28.9414-41.2961,68.2743-38.0812,78.9584,8.3128-14.9562,27-49.085,31.4508-61.5346,0,0-13.8263,40.374-25.1306,62.8862C1162.0781,79.25,1138.0378,27.6672,1138.0378,27.6672Z"/><path class="c" d="M1106.2768,107.9772c55.8012-28.727,31.761-80.31,31.761-80.31S1152.1344,79.8724,1106.2768,107.9772Z"/><path class="c" d="M1063.1024,27.058s44.6991,32.8023,37.0435,79.246C1103.5348,95.4454,1111.4728,56.4327,1063.1024,27.058Z"/><path class="b" d="M1132.5407,86.559v76.7882a42.4373,42.4373,0,0,1-4.5928,17.2688c-5.1449,10.1047-14.1461,14.8826-27.5559,14.8826-13.2273,0-22.2286-4.7779-27.5553-14.8826a42.509,42.509,0,0,1-4.5933-17.0839V86.559h-21.31v76.9731a63.4471,63.4471,0,0,0,6.43,26.0853c8.8165,17.6383,25.5335,27.3734,47.0282,27.3734,21.4923,0,38.2094-9.7351,47.0287-27.3734a63.42,63.42,0,0,0,6.4274-26.0853V86.559Z"/></g></svg>