<svg xmlns="http://www.w3.org/2000/svg" xmlns:xlink="http://www.w3.org/1999/xlink" viewBox="0 0 750 500"><defs><style>.a,.aa,.ac,.af,.ah,.aj,.al,.aq,.as,.at,.aw,.ay,.bc,.bd,.d,.e,.g,.j,.k,.q,.r,.t,.v,.x{fill:none;}.b{clip-path:url(#a);}.c{fill:#edeef7;}.d,.e,.l{stroke:#c5c8ef;}.ac,.aj,.am,.as,.d,.e,.f,.g,.k,.l,.t{stroke-linejoin:round;}.e,.k,.t{stroke-linecap:round;}.am,.f,.l,.s{fill:#fff;}.f,.g{stroke:#7c8bd8;}.h{fill:#7c8bd8;}.an,.i{fill:#abb3ed;}.i,.j,.k{opacity:0.35;}.am,.j,.k{stroke:#abb3ed;}.aa,.af,.ah,.al,.aq,.at,.aw,.ay,.bc,.bd,.j,.q,.r,.v,.x{stroke-miterlimit:10;}.k{stroke-width:2px;}.m{fill:#e5eaf9;}.n{fill:#ffcbc2;}.o{fill:#f9bbaf;}.p{fill:#212237;}.q,.r{stroke:#f7a794;}.ac,.af,.ah,.al,.aq,.as,.at,.aw,.ay,.bd,.q,.v,.x{stroke-width:0.75px;}.aa,.aj,.r,.t{stroke-width:0.5px;}.t{stroke:#212237;}.u{fill:#011e3b;}.v{stroke:#2c79e8;}.w{fill:#1f2677;}.x{stroke:#3a53ce;}.y{fill:#b2d1ff;}.z{fill:#f7633a;}.aa{stroke:#f7958b;}.ab{fill:#f7958b;}.ac,.af{stroke:#4152a5;}.ad{fill:#dcddef;}.ae{fill:#f2f5f9;}.ag{fill:#0f43aa;}.ah{stroke:#0f1d49;}.ai{fill:#2c79e8;}.aj{stroke:#e88872;}.ak{fill:#28364c;}.al{stroke:#28364c;}.ao{fill:#995037;}.ap{fill:#ffe1cc;}.aq{stroke:#a5634c;}.ar{fill:#2d1006;}.as,.at{stroke:#6d221d;}.au{fill:#6d221d;}.av{fill:#050c26;}.aw{stroke:#102059;}.ax{fill:#131c5e;}.ay{stroke:#30409e;}.az{fill:#4a1a1a;}.ba{fill:#ccd2ed;}.bb{fill:#b8c4e8;}.bc{stroke:#edeef7;}.bd{stroke:#aa260c;}</style><clipPath id="a"><rect class="a" x="-822.2411" y="-24.8689" width="852.6111" height="568.4074"/></clipPath></defs><title>people</title><path class="c" d="M114.0319,207.0883a51.5381,51.5381,0,0,0,18.5953,15.2207l5.6631-9.4317a40.4266,40.4266,0,0,0,10.3876,3.1274l-.5033,11.0028a51.9072,51.9072,0,0,0,23.9127-2.3864l-2.6679-10.6862a40.4255,40.4255,0,0,0,9.5646-5.1188l7.4153,8.1268A51.5392,51.5392,0,0,0,201.62,198.3476l-9.4317-5.663a40.4293,40.4293,0,0,0,3.1275-10.3879l11.0029.5035a51.9071,51.9071,0,0,0-2.3864-23.9124l-10.6862,2.6678a40.4439,40.4439,0,0,0-5.1189-9.5649l8.1266-7.4151a51.536,51.536,0,0,0-18.5952-15.2208l-5.6631,9.4317a40.44,40.44,0,0,0-10.3877-3.1276l.5034-11.0026a51.9011,51.9011,0,0,0-23.9123,2.3864l2.6677,10.6862a40.4366,40.4366,0,0,0-9.565,5.1187l-7.4152-8.1265a51.5448,51.5448,0,0,0-15.2205,18.5952l9.4317,5.6629a40.4242,40.4242,0,0,0-3.1274,10.388l-11.0028-.5036a51.9007,51.9007,0,0,0,2.3863,23.9125l10.6862-2.6679a40.4306,40.4306,0,0,0,5.1186,9.565Zm21.8525-47.02a24.8872,24.8872,0,1,1,3.4951,35.0219A24.8875,24.8875,0,0,1,135.8844,160.0686Zm6.5856,5.39a16.3769,16.3769,0,1,1,2.3,23.046A16.3768,16.3768,0,0,1,142.47,165.4589Z"/><path class="c" d="M384.5648,116.16a64.9139,64.9139,0,0,0,11.5179,27.9915L408,137.08a50.9215,50.9215,0,0,0,9.6474,9.6773l-7.1355,11.898A65.3806,65.3806,0,0,0,438.45,170.3043l3.43-13.4427a50.9407,50.9407,0,0,0,13.6646.0425l3.3631,13.4429A64.9132,64.9132,0,0,0,486.9,158.8292l-7.0716-11.917a50.9314,50.9314,0,0,0,9.6776-9.6473l11.898,7.1355a65.3813,65.3813,0,0,0,11.649-27.9387l-13.4426-3.43a50.9456,50.9456,0,0,0,.0427-13.6647l13.4427-3.3632A64.9135,64.9135,0,0,0,501.578,68.0116l-11.917,7.0717a50.9342,50.9342,0,0,0-9.6475-9.6774l7.1358-11.8979A65.3785,65.3785,0,0,0,459.21,41.8588l-3.43,13.443a50.9223,50.9223,0,0,0-13.6649-.0429l-3.3633-13.443A64.9247,64.9247,0,0,0,410.76,53.3338l7.0719,11.917a50.9215,50.9215,0,0,0-9.6773,9.6474l-11.8979-7.1356a65.3739,65.3739,0,0,0-11.6494,27.939l13.443,3.43a50.9242,50.9242,0,0,0-.043,13.6646Zm52.3368-39.0681A31.3481,31.3481,0,1,1,419.8405,118.01,31.3484,31.3484,0,0,1,436.9016,77.0916Zm4.079,9.9134a20.6284,20.6284,0,1,1-11.227,26.9262A20.6284,20.6284,0,0,1,440.9806,87.005Z"/><path class="c" d="M567.2267,167.3272a40.5543,40.5543,0,0,0,14.6323,11.9767l4.4561-7.4215a31.8114,31.8114,0,0,0,8.174,2.4608l-.3961,8.658a40.8438,40.8438,0,0,0,18.8162-1.8778l-2.0992-8.4088a31.8128,31.8128,0,0,0,7.5262-4.0279l5.8348,6.3947a40.5545,40.5545,0,0,0,11.9768-14.6322l-7.4216-4.4561a31.8117,31.8117,0,0,0,2.461-8.1738l8.658.396a40.8452,40.8452,0,0,0-1.8779-18.8162l-8.4088,2.0993a31.8171,31.8171,0,0,0-4.0278-7.5264l6.3945-5.8348A40.553,40.553,0,0,0,617.2931,106.16l-4.456,7.4215a31.8222,31.8222,0,0,0-8.174-2.461l.3962-8.6577a40.842,40.842,0,0,0-18.8162,1.8777l2.0992,8.4089a31.8137,31.8137,0,0,0-7.5264,4.0278l-5.835-6.3947a40.5583,40.5583,0,0,0-11.9767,14.6322l7.4218,4.4561a31.8045,31.8045,0,0,0-2.461,8.1739l-8.6579-.3961a40.8417,40.8417,0,0,0,1.8778,18.8163l8.4087-2.0994a31.8158,31.8158,0,0,0,4.0277,7.5263Zm17.1953-36.9989a19.5832,19.5832,0,1,1,2.75,27.5579A19.5835,19.5835,0,0,1,584.422,130.3283Zm5.1821,4.2416a12.8865,12.8865,0,1,1,1.81,18.1342A12.8864,12.8864,0,0,1,589.6041,134.57Z"/><path class="c" d="M214.6782,106.4428A26.8143,26.8143,0,0,0,217.1539,94.19l-5.7144-.31a21.0232,21.0232,0,0,0-1.0887-5.537l5.1817-2.4449a26.9994,26.9994,0,0,0-6.9138-10.4148L204.354,79.31a21.0308,21.0308,0,0,0-4.68-3.153l1.9331-5.3863a26.8107,26.8107,0,0,0-12.2525-2.4755l-.31,5.7143a21.032,21.032,0,0,0-5.537,1.0886l-2.4449-5.1816A27.0011,27.0011,0,0,0,170.6479,76.83l3.8261,4.2646a21.0334,21.0334,0,0,0-3.1529,4.68l-5.3863-1.933a26.8074,26.8074,0,0,0-2.4754,12.2525l5.7142.31a21.035,21.035,0,0,0,1.0885,5.5371l-5.1816,2.4448a26.9979,26.9979,0,0,0,6.9138,10.4148l4.2647-3.8261a21.0229,21.0229,0,0,0,4.68,3.153l-1.9331,5.3863a26.8118,26.8118,0,0,0,12.2525,2.4756l.31-5.7143a21.0281,21.0281,0,0,0,5.5371-1.0888l2.4448,5.1816a26.9975,26.9975,0,0,0,10.4148-6.9136l-3.8262-4.2646a21.0256,21.0256,0,0,0,3.1531-4.68Zm-26.9355,1.3891A12.9459,12.9459,0,1,1,202.996,97.7061,12.9457,12.9457,0,0,1,187.7427,107.8319Z"/><path class="c" d="M667.1661,210.3415a24.1972,24.1972,0,0,0,5.1234-10.0481l-4.8913-1.6552a18.97,18.97,0,0,0,.3969-5.0763l5.0963-.8679a24.3605,24.3605,0,0,0-3.4825-10.7283l-4.6344,2.2908a18.9746,18.9746,0,0,0-3.3027-3.8753l2.9864-4.2124a24.1944,24.1944,0,0,0-10.048-5.1234l-1.6552,4.8913a18.9745,18.9745,0,0,0-5.0763-.397l-.8681-5.0963a24.36,24.36,0,0,0-10.7283,3.4826l2.2909,4.6344a18.9756,18.9756,0,0,0-3.8754,3.3027l-4.2123-2.9864a24.1958,24.1958,0,0,0-5.1233,10.048l4.8911,1.6552a18.9747,18.9747,0,0,0-.3969,5.0763l-5.0963.868a24.3594,24.3594,0,0,0,3.4826,10.7283l4.6343-2.2908a18.9787,18.9787,0,0,0,3.3028,3.8754l-2.9864,4.2123a24.1942,24.1942,0,0,0,10.048,5.1233l1.6553-4.8911a18.9688,18.9688,0,0,0,5.0761.3968l.8681,5.0963a24.3592,24.3592,0,0,0,10.7283-3.4825l-2.2909-4.6343a18.9787,18.9787,0,0,0,3.8754-3.3027Zm-23.7464-5.326a11.681,11.681,0,1,1,15.7125-5.1A11.6809,11.6809,0,0,1,643.42,205.0155Z"/><rect class="c" x="3.6183" y="296.9571" width="6.2816" height="6.2816" rx="1.094"/><path class="c" d="M745.143,243.1374h4.0937a1.094,1.094,0,0,1,1.094,1.094v4.0936a1.094,1.094,0,0,1-1.094,1.094h-4.0936a1.0941,1.0941,0,0,1-1.0941-1.0941v-4.0935A1.094,1.094,0,0,1,745.143,243.1374Z"/><rect class="c" x="366.9235" y="51.3735" width="6.2816" height="6.2816" rx="1.094"/><rect class="c" x="611.6583" y="209.9245" width="6.2816" height="6.2816" rx="1.094"/><rect class="c" x="248.7624" y="103.6232" width="6.2816" height="6.2816" rx="1.094"/><path class="d" d="M189.9621,232.2766a5.2078,5.2078,0,1,1-5.2078-5.2078A5.2077,5.2077,0,0,1,189.9621,232.2766Z"/><path class="d" d="M120.3987,111.2893a5.2078,5.2078,0,1,1-5.2079-5.2079A5.2078,5.2078,0,0,1,120.3987,111.2893Z"/><path class="d" d="M707.8732,169.11a5.2078,5.2078,0,1,1-5.2078-5.2079A5.2077,5.2077,0,0,1,707.8732,169.11Z"/><path class="d" d="M154.481,105.7831a2.7,2.7,0,1,1-2.7-2.7A2.7,2.7,0,0,1,154.481,105.7831Z"/><circle class="d" cx="20.1888" cy="236.7446" r="2.6999"/><path class="d" d="M272.0459,95.858a2.7,2.7,0,1,1-2.7-2.7A2.7,2.7,0,0,1,272.0459,95.858Z"/><circle class="d" cx="656.1713" cy="134.1187" r="2.6999"/><circle class="d" cx="600.8791" cy="308.2763" r="2.6999"/><line class="d" x1="69.0651" y1="156.2395" x2="82.9928" y2="156.2395"/><line class="d" x1="49.4244" y1="149.3657" x2="76.029" y2="149.3657"/><line class="d" x1="305.3311" y1="66.016" x2="324.9154" y2="66.016"/><line class="d" x1="323.654" y1="72.8863" x2="337.5817" y2="72.8863"/><line class="d" x1="707.2874" y1="217.9602" x2="724.919" y2="217.9602"/><line class="d" x1="730.3064" y1="217.9602" x2="738.9271" y2="217.9602"/><line class="d" x1="299.0628" y1="121.4546" x2="312.9905" y2="121.4546"/><line class="e" x1="74.874" y1="194.5783" x2="74.874" y2="200.1861"/><line class="e" x1="77.6779" y1="197.3823" x2="72.0701" y2="197.3823"/><line class="e" x1="539.9" y1="105.6791" x2="539.9" y2="111.287"/><line class="e" x1="542.704" y1="108.4831" x2="537.0961" y2="108.4831"/><line class="e" x1="349.9574" y1="100.9495" x2="349.9574" y2="106.5573"/><line class="e" x1="352.7614" y1="103.7534" x2="347.1536" y2="103.7534"/><line class="e" x1="738.9271" y1="342.8834" x2="738.9271" y2="348.4912"/><line class="e" x1="741.7309" y1="345.6873" x2="736.1232" y2="345.6873"/><rect class="f" x="260.0039" y="63.0989" width="232.6829" height="348.9593" transform="translate(613.9239 -138.7669) rotate(90)"/><rect class="g" x="213.1785" y="132.5504" width="326.3339" height="210.0568"/><path class="f" d="M328.282,237.6786a48.0634,48.0634,0,1,1,86.9111,28.301h0c-6.8607,10.3382-24.687,22.01-24.687,29.0034v7.989a2.8875,2.8875,0,0,1-2.8875,2.8875H365.0723a2.8875,2.8875,0,0,1-2.8876-2.8875v-7.989c0-6.9931-17.8264-18.6652-24.6868-29.0034h0A47.8437,47.8437,0,0,1,328.282,237.6786Z"/><path class="h" d="M381.8033,305.063a314.5318,314.5318,0,0,1,.6282-37.4072,54.0864,54.0864,0,0,1-12.172,0,314.4688,314.4688,0,0,1,.6278,37.4072l-.8475-.04a322.2124,322.2124,0,0,0-.6741-37.4826c-14.2555-1.9824-20.6361-10.058-21.7817-17.68-.67-4.4546.8516-8.888,3.6174-10.5419a7.2638,7.2638,0,0,1,5.8628-.5873c3.3948.974,6.6213,3.8992,8.631,7.8251,2.32,4.5338,3.6919,12.0616,4.4829,20.2338a52.9771,52.9771,0,0,0,12.3345,0c.7911-8.1722,2.1632-15.7,4.4835-20.2338,2.0094-3.9259,5.2359-6.8511,8.6307-7.8251a7.2661,7.2661,0,0,1,5.863.5873c2.7654,1.6539,4.2869,6.0873,3.617,10.5419-1.1457,7.6218-7.5267,15.6974-21.7819,17.68a322.1148,322.1148,0,0,0-.6739,37.4826Zm16.2011-65.8323a7.7775,7.7775,0,0,0-2.1434.3168c-3.1736.91-6.2051,3.6752-8.11,7.3959-2.2316,4.36-3.5654,11.704-4.3444,19.7279,13.6558-1.9686,19.7683-9.6675,20.8609-16.9364.6107-4.0622-.7708-8.2267-3.2134-9.6876A5.87,5.87,0,0,0,398.0044,239.2307Zm-43.318,0a5.87,5.87,0,0,0-3.05.8166c-2.4426,1.4609-3.8241,5.6254-3.2137,9.6876,1.0927,7.2689,7.2048,14.9678,20.8607,16.9364-.779-8.0239-2.1123-15.3677-4.3442-19.7279-1.9045-3.7207-4.9361-6.4855-8.1093-7.3959A7.7774,7.7774,0,0,0,354.6864,239.2307Z"/><path class="c" d="M416.407,240.4363a2.7578,2.7578,0,0,1-2.7578-2.7577,37.2546,37.2546,0,0,0-28.1177-36.1649,2.7577,2.7577,0,1,1,1.3534-5.3468,42.7649,42.7649,0,0,1,32.28,41.5117A2.7577,2.7577,0,0,1,416.407,240.4363Z"/><circle class="c" cx="378.1769" cy="197.5415" r="2.7576"/><path class="f" d="M391.6419,298.3943H361.049v14.5808a12.544,12.544,0,0,0,1.9534,6.7227h0A13.148,13.148,0,0,0,374.103,325.8h4.485a13.1479,13.1479,0,0,0,11.1006-6.1019h0a12.5456,12.5456,0,0,0,1.9533-6.7227Z"/><path class="f" d="M390.4227,321.5056a1.89,1.89,0,0,1-.2646-.0048l-28.9981-2.499a1.7972,1.7972,0,0,1-1.6289-2.068,2.0319,2.0319,0,0,1,2.153-1.7414l28.9983,2.4992a1.7967,1.7967,0,0,1,1.6289,2.0678A2.0395,2.0395,0,0,1,390.4227,321.5056Z"/><path class="f" d="M391.6446,308.4918a1.9079,1.9079,0,0,1-.2648-.0046l-30.5929-2.6364a1.7969,1.7969,0,0,1-1.629-2.0678,2.0319,2.0319,0,0,1,2.1531-1.7416l30.5934,2.6364a1.7967,1.7967,0,0,1,1.6286,2.0678A2.0391,2.0391,0,0,1,391.6446,308.4918Z"/><path class="f" d="M391.6446,315.165a1.8775,1.8775,0,0,1-.2648-.0047l-30.5929-2.6363a1.7967,1.7967,0,0,1-1.629-2.0678,2.0332,2.0332,0,0,1,2.1531-1.7415l30.5934,2.6364a1.7967,1.7967,0,0,1,1.6286,2.0677A2.0389,2.0389,0,0,1,391.6446,315.165Z"/><line class="g" x1="376.4319" y1="165.6501" x2="376.4319" y2="182.2223"/><line class="g" x1="427.5998" y1="186.9162" x2="415.8815" y2="198.6345"/><line class="g" x1="325.2134" y1="186.7938" x2="336.9317" y2="198.5121"/><line class="g" x1="348.7198" y1="171.1279" x2="355.0617" y2="186.4387"/><line class="g" x1="404.131" y1="171.1942" x2="397.7891" y2="186.5049"/><line class="g" x1="443.2657" y1="210.4226" x2="427.9549" y2="216.7645"/><line class="g" x1="309.4914" y1="210.2626" x2="324.8021" y2="216.6045"/><rect class="i" x="231.3015" y="184.2141" width="21.2567" height="17.1223"/><line class="j" x1="262.3254" y1="184.2141" x2="277.0206" y2="184.2141"/><line class="j" x1="262.3254" y1="201.3364" x2="292.0441" y2="201.3364"/><line class="j" x1="262.3254" y1="195.8274" x2="292.0441" y2="195.8274"/><line class="j" x1="262.3254" y1="190.4615" x2="292.0441" y2="190.4615"/><rect class="i" x="231.3015" y="218.3032" width="21.2567" height="17.1223"/><line class="j" x1="262.3254" y1="218.3032" x2="277.0206" y2="218.3032"/><line class="j" x1="262.3254" y1="235.4255" x2="292.0441" y2="235.4255"/><line class="j" x1="262.3254" y1="229.9165" x2="292.0441" y2="229.9165"/><line class="j" x1="262.3254" y1="224.5506" x2="292.0441" y2="224.5506"/><rect class="i" x="231.3015" y="252.3921" width="21.2567" height="17.1223"/><line class="j" x1="262.3254" y1="252.3921" x2="277.0206" y2="252.3921"/><line class="j" x1="262.3254" y1="269.5145" x2="292.0441" y2="269.5145"/><line class="j" x1="262.3254" y1="264.0054" x2="292.0441" y2="264.0054"/><line class="j" x1="262.3254" y1="258.6397" x2="292.0441" y2="258.6397"/><rect class="i" x="231.3015" y="286.4812" width="21.2567" height="17.1223"/><line class="j" x1="262.3254" y1="286.4812" x2="277.0206" y2="286.4812"/><line class="j" x1="262.3254" y1="303.6035" x2="292.0441" y2="303.6035"/><line class="j" x1="262.3254" y1="298.0945" x2="292.0441" y2="298.0945"/><line class="j" x1="262.3254" y1="292.7287" x2="292.0441" y2="292.7287"/><rect class="i" x="460.6467" y="184.2141" width="21.2567" height="17.1223"/><line class="j" x1="491.6705" y1="184.2141" x2="506.3657" y2="184.2141"/><line class="j" x1="491.6705" y1="201.3364" x2="521.3893" y2="201.3364"/><line class="j" x1="491.6705" y1="195.8274" x2="521.3893" y2="195.8274"/><line class="j" x1="491.6705" y1="190.4615" x2="521.3893" y2="190.4615"/><rect class="i" x="460.6467" y="218.3032" width="21.2567" height="17.1223"/><line class="j" x1="491.6705" y1="218.3032" x2="506.3657" y2="218.3032"/><line class="j" x1="491.6705" y1="235.4255" x2="521.3893" y2="235.4255"/><line class="j" x1="491.6705" y1="229.9165" x2="521.3893" y2="229.9165"/><line class="j" x1="491.6705" y1="224.5506" x2="521.3893" y2="224.5506"/><rect class="i" x="460.6467" y="252.3921" width="21.2567" height="17.1223"/><line class="j" x1="491.6705" y1="252.3921" x2="506.3657" y2="252.3921"/><line class="j" x1="491.6705" y1="269.5145" x2="521.3893" y2="269.5145"/><line class="j" x1="491.6705" y1="264.0054" x2="521.3893" y2="264.0054"/><line class="j" x1="491.6705" y1="258.6397" x2="521.3893" y2="258.6397"/><rect class="i" x="460.6467" y="286.4812" width="21.2567" height="17.1223"/><line class="j" x1="491.6705" y1="286.4812" x2="506.3657" y2="286.4812"/><line class="j" x1="491.6705" y1="303.6035" x2="521.3893" y2="303.6035"/><line class="j" x1="491.6705" y1="298.0945" x2="521.3893" y2="298.0945"/><line class="j" x1="491.6705" y1="292.7287" x2="521.3893" y2="292.7287"/><line class="g" x1="519.9379" y1="121.2371" x2="519.9379" y2="80.9779"/><circle class="g" cx="519.9379" cy="77.7696" r="3.2083"/><line class="g" x1="232.7529" y1="121.2371" x2="232.7529" y2="80.9779"/><circle class="g" cx="232.7529" cy="77.7696" r="3.2083"/><line class="k" x1="329.0584" y1="143.4249" x2="423.6324" y2="143.4249"/><line class="k" x1="301.8845" y1="153.7201" x2="450.8063" y2="153.7201"/><path class="l" d="M618.7824,420.3972c-6.5946-18.3289-22.8851-57.9075-7.9785-115.1731,25.8717,31.9856,27.5277,78.1833,24.8732,119.89"/><path class="d" d="M610.8039,305.2241s5.5832,72.8994,15.7768,118.9135"/><path class="d" d="M610.8039,305.2241s-5.9946,52.0527,11.0614,117.9791"/><path class="d" d="M629.6139,423.5488s-7.5909-91.4036-18.81-118.3247"/><path class="d" d="M632.4348,423.6746s1.0611-86.0031-21.6309-118.45"/><path class="l" d="M605.4225,429.1493c-9.8483-13.0559-33.1366-40.9566-28.8843-86.7927,31.3522,20.7427,41.4152,55.7761,46.4074,87.9936"/><path class="d" d="M576.5382,342.3566s10.7209,54.7521,32.8436,86.6877"/><path class="d" d="M613.607,430.35s-27.8881-75.6079-37.0688-87.9936"/><path class="d" d="M618.8274,430.35s-16.654-68.08-42.2892-87.9936"/><path class="l" d="M650.9366,419.4559c8.4224-18.9289,28.905-59.7156,15.463-120.3636-30.7788,32.4224-35.2525,80.7675-34.6454,124.59"/><path class="d" d="M666.4,299.0923s-10.3842,76.1621-24.406,123.9523"/><path class="d" d="M666.4,299.0923s3.76,54.8063-19.0737,123.1733"/><path class="d" d="M638.6313,422.2987S652.3126,326.8294,666.4,299.0923"/><path class="d" d="M635.4659,422.3108s3.6884-90.1771,30.9337-123.2185"/><path class="l" d="M656.1408,442.3421c10.3066-15.1154,34.3516-47.2352,35.5611-103.4565-30.5217,22.7389-43.438,64.6281-51.4773,103.4969"/><path class="d" d="M691.7019,338.8856s-15.6772,65.8737-39.116,103.0068"/><path class="d" d="M648.6364,443.1411s33.4339-89.9026,43.0655-104.2555"/><path class="d" d="M643.934,442.717s22.4871-81.6391,47.7679-103.8314"/><path class="m" d="M673.5509,419.3407v17.3248c0,38.355-15.6185,63.0386-15.6185,63.0386H609.57s-15.6184-24.6836-15.6184-63.0386V419.3407Z"/><path class="l" d="M41.7377,418.9478C35.9215,393.191,21.297,337.6516,38.8948,255.826c24.6182,44.4,24.203,109.89,19.6482,169.1719"/><path class="d" d="M38.8948,255.826s2.3365,103.2284,10.53,168.1322"/><path class="d" d="M38.8948,255.826s-8.3857,74.089,5.8219,166.986"/><path class="d" d="M52.5062,423.0071S48.9818,293.5985,38.8948,255.826"/><path class="d" d="M55.342,423.0783S60.2894,301.003,38.8948,255.826"/><path class="l" d="M29.3974,428.8631C19.5491,412.6956-3.7392,378.1455.5131,321.3855,31.8654,347.0718,41.9282,390.4544,46.9206,430.35"/><path class="d" d="M.5131,321.3855s10.721,67.8009,32.8437,107.3475"/><path class="d" d="M37.582,430.35S9.6939,336.7232.5131,321.3855"/><path class="d" d="M42.8024,430.35S26.1482,346.0446.5131,321.3855"/><path class="l" d="M76.494,418.6272c7.9489-22.6643,27.309-71.4892,14.1188-144.29C61.3605,313.0828,57.351,371.0464,58.1745,423.6084"/><path class="d" d="M90.6128,274.337s-9.5074,91.2992-22.65,148.5536"/><path class="d" d="M90.6128,274.337s3.8994,65.75-17.5559,147.6436"/><path class="d" d="M64.7429,421.9806S77.296,307.54,90.6128,274.337"/><path class="d" d="M61.7162,421.9806S64.7429,313.8414,90.6128,274.337"/><path class="l" d="M82.3784,442.3421c10.3065-15.1154,34.3514-47.2352,35.561-103.4565-30.5217,22.7389-43.4381,64.6281-51.4773,103.4969"/><path class="d" d="M117.9394,338.8856s-15.6772,65.8737-39.1159,103.0068"/><path class="d" d="M74.874,443.1411s33.4338-89.9026,43.0654-104.2555"/><path class="d" d="M70.1716,442.717s22.4871-81.6391,47.7678-103.8314"/><path class="m" d="M99.7884,419.3407v17.3248c0,38.355-15.6185,63.0386-15.6185,63.0386H35.8072s-15.6184-24.6836-15.6184-63.0386V419.3407Z"/><path class="l" d="M486.41,442.7841c-3.9524-13.3385-14.1659-42.3975,2.56-79.6217,19.0244,27.1192,16.3665,56.82,10.9,84.9587"/><path class="d" d="M488.97,363.1624s-6.46,35.207,2.3008,82.3481"/><path class="d" d="M492.4715,445.8679s3.5588-62.9223-3.5016-82.7055"/><path class="d" d="M494.7713,446.3072s10.2165-58.1516-5.8014-83.1448"/><path class="l" d="M473.2458,451.6276c-7.9367-7.0946-26.3718-21.8358-28.7107-54.017,22.9345,8.3294,33.4741,30.432,40.365,51.5565"/><path class="d" d="M444.5351,397.6106s8.0353,27.1209,32.3684,54.5183"/><path class="d" d="M480.7437,450.1123s-26.8182-38.8482-36.2086-52.5017"/><path class="d" d="M482.5537,449.3782s-18.5486-39.0387-38.0186-51.7676"/><path class="l" d="M480.7829,443.6765c-6.2966-9.2652-24.6751-37.15-19.0576-66.7527,21.218,15.9034,29.7517,47.4479,31.5019,68.8567"/><path class="d" d="M461.7253,376.9238s7.893,44.4673,21.8907,66.9824"/><path class="d" d="M486.5593,445.077s-18.9762-59.3757-24.834-68.1532"/><path class="d" d="M490.2867,445.47s-11.3788-53.6153-28.5614-68.5465"/><path class="l" d="M511.1136,443.1527c5.3871-12.0026,18.5077-37.8595,9.5685-76.4139-19.8248,20.5192-22.5422,51.2158-21.9841,79.0518"/><path class="d" d="M520.6821,366.7388s-9.3689,44.6134-16.3674,77.8023"/><path class="d" d="M520.6821,366.7388s2.13,34.82-12.4108,78.19"/><path class="d" d="M501.0983,444.9287s4.0483-52.3,19.5838-78.19"/><path class="l" d="M511.7075,455.7117c6.9849-8.0049,24.9267-27.9864,26.3631-54.7889-20.6851,12.0422-29.4389,34.2261-34.8872,54.81"/><path class="d" d="M538.0706,400.9228s-12.8441,33.94-28.729,53.605"/><path class="d" d="M505.4914,454.5278s19.3244-40.703,32.5792-53.605"/><path class="m" d="M527.3491,440.9328v12.67c0,28.05-13.6247,46.1013-13.6247,46.1013h-42.189s-13.6244-18.0516-13.6244-46.1013v-12.67Z"/><line class="g" x1="5.5009" y1="500.4189" x2="747.1899" y2="500.4189"/><path class="n" d="M690.6658,219.8176l1.576,13.51a18.7492,18.7492,0,0,1-12.6779,5.4516c-7.6323,0-7.6323-5.0882-7.6323-5.0882l1.4537-11.63L685.12,209.7468l5.546,10.0708"/><path class="o" d="M669.6285,210.8828c-.0305-.4888-.6288-.7505-1.1141-.6844a2.1976,2.1976,0,0,0-1.582,1.24,4.7994,4.7994,0,0,0-.4188,2.0317,3.8566,3.8566,0,0,0,.319,1.8958,2.3606,2.3606,0,0,0,2.9622,1.0239"/><path class="n" d="M670.2278,201.7084s-4.0333,15.3813-1.8173,18.5355c3.3194,4.7247,11.2152,5.0882,14.5431,2.9076,2.7913-1.8291,5.0828-11.63,5.0828-14.1743C688.0364,202.0717,673.8622,198.0739,670.2278,201.7084Z"/><path class="p" d="M693.0979,213.2936a14.4241,14.4241,0,0,1,.4452-1.5219c.4327-1.2057,1.0942-2.271,1.5671-3.4563a6.1476,6.1476,0,0,0-1.8394-6.8989,10.33,10.33,0,0,1-1.0593-.85,8.6908,8.6908,0,0,1-1.3642-2.71,3.7808,3.7808,0,0,0-1.56-1.8887c-1.6866-.8989-3.9323.32-5.618-.5805a7.9153,7.9153,0,0,1-1.0039-.7266c-2.4175-1.8281-5.16-1.4021-7.7958-.45a8.2982,8.2982,0,0,0-2.6639,1.7311c-1.1211.8726-2.6736.8139-3.8011,1.6684-1.1835.8966-1.4814,2.5429-1.4938,4.0277a3.6463,3.6463,0,0,0,.2483,1.5807,2.9679,2.9679,0,0,0,1.517,1.351c1.5111.6877,3.21.4228,4.812.302,1.5654-.1182,3.3837-1.2209,4.9149-.6492,1.4935.5576,1.8752,2.39,3.7142,2.5324.7249.0564,1.6064-.0761,2.0393.5079.4888.6594.2313,1.7439.6177,2.5073a18.0016,18.0016,0,0,0,1.4691,2.0323c.9291,1.319,2.2463,2.2242,1.7753,3.945-.3274,1.1962-1.657,3.1174-1.1083,4.3851.3625.8352,2.2006.8212,3.5919-.2372,1.4332-1.09,1.86-3.1689,2.2108-4.8248C692.8421,214.4635,692.9582,213.8757,693.0979,213.2936Z"/><path class="q" d="M673.1437,223.9945s5.2952,1.044,8.943-.9136C684.9635,221.5371,686,217.96,686,217.96"/><path class="n" d="M684.2036,212.9355a2.948,2.948,0,0,1,2.07-1.2377,2.6024,2.6024,0,0,1,1.6084.92c2.0191,2.2721-.1787,6.6084-3.2734,6.129-1.1359-.1759-.8261-1.6789-.8261-1.6789"/><path class="r" d="M672.814,209.7468s-2.353,3.6219-2.1307,4.6295,2.62,1.1259,2.62,1.1259"/><path class="s" d="M670.677,216.7426l6.5416.9129a4.1976,4.1976,0,0,1-4.8041,2.6286C669.8769,219.7508,670.677,216.7426,670.677,216.7426Z"/><path class="p" d="M670.1934,208.6307c-.0559.1372-.106.2748-.1533.4151s-.0977.2775-.1318.4208a.4144.4144,0,0,0,.04.304.3945.3945,0,0,0,.7211-.0942c.0445-.14.0724-.2847.104-.4285s.06-.2882.0831-.4344a.3751.3751,0,0,0-.0346-.2649.344.344,0,0,0-.47-.1233l-.07.0538a.3431.3431,0,0,0-.0884.1516Z"/><path class="t" d="M672.25,207.0674a1.7026,1.7026,0,0,0-2.4553-.2893"/><path class="p" d="M677.6405,210.37c-.0477.1394-.09.279-.1288.4211s-.0815.2821-.1074.4269a.4256.4256,0,0,0,.04.304.3946.3946,0,0,0,.7211-.0943c.0373-.1456.0571-.2945.081-.4429.0281-.1742.0521-.3479.07-.5234a.3417.3417,0,0,0-.1007-.2431.3535.3535,0,0,0-.1974-.0945.3467.3467,0,0,0-.3772.2462Z"/><path class="t" d="M677.2784,207.8177s1.6-.5476,3.2614,1.3422"/><path class="n" d="M667.106,455.3033l-3.11,31.2077.2629,9.8153-38.4835-.1964a1.7017,1.7017,0,0,1-1.6923-1.71h0a1.7017,1.7017,0,0,1,1.0985-1.5822l16.5972-7.6319,1.5924-32.4712"/><path class="u" d="M622.4,495.7155c.3932-1.2325,1.1156-2.617,1.8432-2.93l17.5983-7.5792c9.7,3.9319,22.2563.9266,22.2563.9266l2.24,13.25a.7941.7941,0,0,1-.7982.79H622.6946C621.8327,500.1674,622.3875,495.7544,622.4,495.7155Z"/><path class="v" d="M638.0325,485.9645a20.761,20.761,0,0,1,2.4809,4.166"/><path class="v" d="M635.8167,487.2891a18.2429,18.2429,0,0,1,2.04,3.5425"/><path class="v" d="M633.944,488.256a25.9592,25.9592,0,0,1,1.9124,3.2506"/><line class="v" x1="666.111" y1="497.3118" x2="622.2188" y2="497.0869"/><path class="v" d="M664.8919,490.8316s-10.311.2091-11.198,6.4213"/><path class="v" d="M627.85,491.2317s2.843,4.04,3.4036,5.9029"/><path class="w" d="M649.1014,321.2857c-6.6152,47.5269-12.5427,159.7985-12.5427,159.7985H669.692s6.8337-70.1855,12.6382-120.9589c14.5805-24.1275,13.446-50.261,15.09-53.7331"/><path class="x" d="M665.1668,481.0842s8.1918-77.5218,13.9965-128.2953"/><path class="n" d="M720.3278,455.3033l1.4156,31.2077.263,9.8153-38.4835-.1964a1.7018,1.7018,0,0,1-1.6924-1.71h0a1.702,1.702,0,0,1,1.0985-1.5822l16.5972-7.6319-2.9328-32.4712"/><path class="u" d="M680.1468,495.7155c.3933-1.2325,1.1156-2.617,1.8431-2.93l17.5984-7.5792c9.7,3.9319,22.2563.9266,22.2563.9266l2.24,13.25a.7943.7943,0,0,1-.7983.79H680.4414C679.58,500.1674,680.1345,495.7544,680.1468,495.7155Z"/><path class="v" d="M695.7794,485.9645a20.7568,20.7568,0,0,1,2.481,4.166"/><path class="v" d="M693.5637,487.2891a18.2473,18.2473,0,0,1,2.0395,3.5425"/><path class="v" d="M691.6909,488.256a25.96,25.96,0,0,1,1.9125,3.2506"/><line class="v" x1="723.858" y1="497.3118" x2="679.9658" y2="497.0869"/><path class="v" d="M722.6389,490.8316s-10.3112.2091-11.198,6.4213"/><path class="v" d="M685.5969,491.2317s2.8428,4.04,3.4035,5.9029"/><path class="w" d="M719.3123,316.8859a185.5966,185.5966,0,0,1-.8243,37.14c2.8289,57.2261,6.741,127.0579,6.741,127.0579H692.104s-15.9534-126.7353-16.6977-165.1483"/><path class="x" d="M713.6558,316.8859a185.5966,185.5966,0,0,1-.8243,37.14c2.8288,57.2261,6.741,127.0579,6.741,127.0579"/><path class="x" d="M680.3075,378.1993s-4.6-39.7447-4.9988-54.3326"/><line class="x" x1="724.8642" y1="474.5302" x2="691.2895" y2="474.5302"/><line class="x" x1="670.3447" y1="474.4362" x2="636.9881" y2="474.4362"/><path class="x" d="M714.0247,339.8921s-9.5224.7409-14.78-12.758"/><path class="x" d="M676.7746,339.8994s-3.3206-.9443-3.6309-1.9824-1.2121-13.3358-1.2121-13.3358"/><path class="x" d="M659.7753,327.1341a14.3392,14.3392,0,0,1-12.9115,12.7653"/><path class="n" d="M614.89,253.5669s-15.743-16.6591-16.712-16.5057,1.17,3.2409.3508,3.2184-5.7638-6.88-6.6908-6.4688c-1.2565.5579,3.4031,6.6154,3.4031,6.6154s-1.233-1.1023-2.183-.3031c-.673.5662.2585,2.4752.2585,2.4752s-1.2282-.59-1.9144.0122c-.6806.5977.1875,2.2332.1875,2.2332s-1.2613-1.282-1.96-.0759c-.654,1.1289,3.9675,10.6052,11.5139,20.7642"/><path class="y" d="M672.3064,230.6928c-7.8825.7086-16.3844,4.5445-21.5954,11.274-8.7734,11.33-19.9,25.67-19.9,25.67l-18.24-18.6444L595.4,263.3s23.7717,33.5232,35.5585,33.6016c10.5971.0706,28.4963-15.1353,33.6834-23.3237C675.0761,257.1054,672.3064,230.6928,672.3064,230.6928Z"/><path class="z" d="M691.7355,229.0428s-2.195,3.2338-11.0754,4.1487c-6.7113.6914-8.3537-2.4987-8.3537-2.4987s-16.2032,8.6316-21.01,44.3864-5.2753,54.4719-5.2753,54.4719H722.098s.256-27.1987-1.9695-50.5825C717.8405,254.9276,712.7894,234.6091,691.7355,229.0428Z"/><path class="aa" d="M599.6164,241.8093a40.1819,40.1819,0,0,0,2.1387,6.351"/><path class="ab" d="M590.1385,247.0029c.6567.7613,1.3388,1.5014,2.0589,2.1988a13.1786,13.1786,0,0,0,1.1262.9849,4.3177,4.3177,0,0,0,.6133.3952c.201.1121.4637.1618.5214.052a.94.94,0,0,0-.0329-.614,5.6043,5.6043,0,0,0-.2556-.686c-.2-.4519-.4336-.8932-.678-1.3282-.4885-.87-1.0328-1.7146-1.5794-2.5482l.3527-.2435c.6658.9066,1.3654,1.7987,2.1079,2.6405a12.5983,12.5983,0,0,0,1.1722,1.1852,2.6178,2.6178,0,0,0,.6362.4295.2447.2447,0,0,0,.1814.03.3687.3687,0,0,0,.0273-.1855,5.5455,5.5455,0,0,0-.4353-1.539c-.2072-.5181-.44-1.03-.6855-1.5373-.4912-1.0132-1.0243-2.0133-1.5811-2.9926l.3809-.2333c.6241.9695,1.2943,1.9176,1.9907,2.8352a13.8611,13.8611,0,0,0,1.1151,1.3066,3.3891,3.3891,0,0,0,.6359.5228.4838.4838,0,0,0,.2941.081c.0531-.0056.09-.0742.1019-.2032a4.96,4.96,0,0,0-.3881-1.6237c-.1982-.5412-.417-1.078-.6512-1.6083-.4684-1.061-.9782-2.1059-1.515-3.1366.5872,1.0032,1.1484,2.0222,1.6709,3.0634.26.5212.5114,1.0478.733,1.59a5.0753,5.0753,0,0,1,.4528,1.7375.4906.4906,0,0,1-.3185.4841.7581.7581,0,0,1-.5359-.0965,3.6806,3.6806,0,0,1-.7249-.5584,14.1851,14.1851,0,0,1-1.1838-1.3107c-.74-.9092-1.4043-1.8669-2.0526-2.8416l.3807-.2333c.5731.9871,1.1167,1.9847,1.6245,3.0077.253.5117.495,1.03.714,1.5627a5.3465,5.3465,0,0,1,.4683,1.7236.6747.6747,0,0,1-.2428.5869.6649.6649,0,0,1-.6353.0173,3.0119,3.0119,0,0,1-.7675-.5179,13.0315,13.0315,0,0,1-1.2077-1.2422c-.75-.8664-1.4431-1.7674-2.1113-2.6946l.3528-.2435c.5556.8479,1.0611,1.72,1.5382,2.614.2357.4482.46.9032.6549,1.3762a5.9234,5.9234,0,0,1,.25.7334,1.1033,1.1033,0,0,1-.0306.8523.4637.4637,0,0,1-.47.1582,1.2653,1.2653,0,0,1-.3917-.1455,3.9846,3.9846,0,0,1-.6343-.448,13.3294,13.3294,0,0,1-1.0933-1.0547C591.4026,248.569,590.7572,247.7958,590.1385,247.0029Z"/><path class="y" d="M672.3064,230.6928c-15.5937,29.9662-16.631,103.8025-16.631,103.8025h-11.928s.5562-47.864,9.5722-79.0808c3.83-13.2629,13.67-23.7762,18.9868-24.7217"/><path class="ac" d="M646.7439,290.519s2.65-28.9689,7.8447-38.8632"/><path class="ac" d="M661.0391,271.0874,658.6568,248.16l3.9979-2.1514-3.9979-2.51s3.48-6.704,6.51-11.329"/><path class="y" d="M691.4487,229.037c-9.3619,20.17-1.0619,105.4583-1.0619,105.4583h36.2173S724.89,303.2509,723.39,291.123s-11.3581-51.0248-11.3581-51.0248Z"/><path class="ad" d="M714.1153,309.8016l-34.9537.49.03,2.1382,36.9114-.5177h0A2.0542,2.0542,0,0,0,714.1153,309.8016Z"/><path class="ad" d="M636.5979,313.0277l49.1091-.6889-9.8522-32.8246a3.754,3.754,0,0,0-3.5737-2.7914l-44.3994.6228a1.5771,1.5771,0,0,0-1.3665,2.09Z"/><path class="ae" d="M634.3918,313.0585l49.1092-.6888-9.8524-32.8246a3.7537,3.7537,0,0,0-3.5736-2.7913l-44.3993.6228a1.5769,1.5769,0,0,0-1.3665,2.09Z"/><path class="ad" d="M648.636,295.4947a3.8593,3.8593,0,0,0,3.8505,2.7312c1.8171-.0255,3.0395-1.29,2.73-2.8235a3.859,3.859,0,0,0-3.85-2.7312C649.5489,292.6966,648.3266,293.9607,648.636,295.4947Z"/><path class="n" d="M704.5975,272.0989s9.6025,16.8274,9.0416,20.7125c-.4231,2.9309-26.5983,9.651-26.5983,9.651l1.1818,16.4838s43.7918-3.7213,48.88-12.5043c6.965-12.022-12.3221-43.142-12.3221-43.142"/><path class="n" d="M692.1232,301.4717c-3.5914.6311-22.4991,4.4684-22.2732,5.4253.2181.9209,5.77.741,5.6045,1.2654-.2349.7445-4.3434,1.74-6.6977,2.0863-2.1.3086-5.4214,1.1478-5.4058,2.0788.03,1.7712,11.53-.0679,11.53-.0679s-12.736-.3348-12.8633,1.1494c-.1846,2.14,13.3079,1.9875,13.7822,2.4547,0,0-11.7353-3.1159-11.8718-1.5325s10.2735,4.626,13.49,4.4022c-2.6727-.3126-10.8283-4.2829-10.89-2.8241s7,3.5176,8.13,3.6032a64.69,64.69,0,0,0,17.6992-1.3116"/><path class="ab" d="M664.6414,313.01a44.5328,44.5328,0,0,1,4.5056-.4679c1.5051-.0814,3.0063-.1375,4.5259-.1033a19.5806,19.5806,0,0,1-2.2391.3943c-.75.103-1.5039.157-2.2575.2078A31.9187,31.9187,0,0,1,664.6414,313.01Z"/><path class="ab" d="M665.9978,314.9789c1.65.006,3.28.1207,4.91.2151,1.6316.1071,3.2493.2254,4.8955.2662a12.8019,12.8019,0,0,1-2.4582.2773,24.524,24.524,0,0,1-2.4693-.0448A29.0213,29.0213,0,0,1,665.9978,314.9789Z"/><path class="ab" d="M668.0957,316.8585c1.4719.0537,2.918.2267,4.3638.4005,1.4455.189,2.8784.3918,4.3315.6191a13.8675,13.8675,0,0,1-2.2034.0613c-.7348-.02-1.4636-.0992-2.1909-.1847A26.1147,26.1147,0,0,1,668.0957,316.8585Z"/><path class="y" d="M691.4487,229.037c10.2319,1.6558,22.9523,4.8473,28.1238,11.5916,7.9344,10.3475,29.1067,53.6654,21.2665,64.2875-6.6667,9.0322-43.6592,15.8759-43.6592,15.8759l-9.9694-20.4,25.2862-9.4328-15.7313-34.3161"/><polyline class="af" points="687.21 300.392 712.497 290.959 699.817 263.3"/><line class="af" x1="697.1798" y1="320.792" x2="725.229" y2="313.9483"/><line class="af" x1="690.485" y1="299.1707" x2="700.9964" y2="319.8609"/><path class="ac" d="M687.0408,272.0781c1.62-10.6368,8.4678-19.3017,8.4678-19.3017l-4.2339-4.6161,5.9051-2.1514s2.7322-11.2751,4.69-14.7755"/><path class="n" d="M580.5188,257.609s5.8771,13.3542,7.3938,23.3605-12.3862,38.2568-12.3862,38.2568l-11.9036-6.99s3.6252-21.0571,3.6252-28.5526-6.8251-17.9226-6.8251-17.9226"/><path class="n" d="M564.21,310.658c-1.53,4.63-8.1632,17.3174-7.4836,18.0489s3.0721-3.7012,3.5187-2.9966-2.773,7.7734-1.8988,8.3224c1.1848.7444,4.0941-6.6714,4.0941-6.6714s-2.7816,8.2813-1.5671,8.6294c.8607.2466,3.2735-5.9759,4.4942-8.2384-1.0106,2.62-2.145,7.06-1.2467,7.297.8911.2351,2.6246-3.9659,4.124-7.1142-.7521,2.0525-1.92,5.86-1.1,6.1186.8175.2575,5.745-9.6655,10.016-19.19"/><path class="n" d="M556.229,370.2313c-1.4417,33.5047,7.7777,117.34,7.7777,117.34l-10.3507,6.59s31.8405,1.48,32.7653.5486-1.1671-7.3125-1.1671-7.3125.9256-99.0324,1.85-113.6993S557.6705,336.7266,556.229,370.2313Z"/><path class="u" d="M578.4965,494.6292l7.63-4.1652-.5991-2.1875-9.9036,6.3633-3.1338.0116L561.4482,489.2l-11.9865,7.5033a1.6239,1.6239,0,0,0,.8674,3l16.1113-.0583,5.1416-3.5771,1.46-.0054.0126,3.5581,13.8862-.0382-.0182-4.9721Z"/><path class="n" d="M513.7329,375.9507c-2.3,47.0818-1.45,111.5735-1.45,111.5735L501.9548,494.15s31.8455,1.3812,32.7669.4467-1.1925-7.3085-1.1925-7.3085S542.38,405.5557,545.56,374.99,516.0327,328.8689,513.7329,375.9507Z"/><path class="u" d="M526.7967,494.5315l7.6149-4.18-.6067-2.1854-9.8813,6.3859-3.1338.0225-11.06-5.4126-11.96,7.5449a1.6239,1.6239,0,0,0,.8779,2.9973l16.111-.1143,5.1291-3.595,1.46-.01.0249,3.558,13.8861-.0744-.0354-4.9721Z"/><path class="ag" d="M571.3984,299.0923c2.737,1.8932,8.8738,10.5947,11.4145,19.1559,5.9716,20.1215,6.0613,64.5944,6.0613,64.5944H512.0779s.4511-42.7346,3.436-61.3537a58.1438,58.1438,0,0,1,8.6311-22.3182"/><path class="ah" d="M528.4513,298.5385c-2.3028,1.94-6.1752,9.1467-7.2714,17.3128-3.7039,27.59-2.9218,66.9913-2.9218,66.9913"/><path class="ai" d="M552.659,229.4747c22.9763,1.46,30.5794,30.16,30.5794,30.16l-16.23,11.2041"/><line class="ah" x1="573.9465" y1="261.3359" x2="582.0071" y2="255.9474"/><path class="n" d="M510.833,243.2391s-17.1428,13.215-19.8891,13.277c-2.84.064-24.9586-20.563-24.9586-20.563l-11.6328,13.572S477.6809,281.33,490.1887,281.33c16.6043,0,34.2747-18.2214,34.2747-18.2214"/><path class="ai" d="M535.74,229.5235s2.6573,2.0218,7.8043,1.4171a73.92,73.92,0,0,0,9.2961-1.7079c.05.1309,20.7239,9.6031,21.3852,21.565.7379,13.3477.6929,21.28-2.7889,48.373H524.1451s-7.3509-33.1583-7.3509-45.8567S535.74,229.5235,535.74,229.5235Z"/><path class="ai" d="M535.74,229.5235a27.6093,27.6093,0,0,0-13.06,3.1022c-10.3655,5.8316-19.0661,15.1346-19.0661,15.1346l13.769,24.3178,14.4621-10.2291"/><path class="ah" d="M574.607,265.5938a83.5265,83.5265,0,0,0-1.36-18.8335"/><line class="ah" x1="507.0946" y1="244.3409" x2="521.1799" y2="269.9841"/><line class="ah" x1="518.8305" y1="271.6513" x2="530.9272" y2="263.0673"/><path class="n" d="M474.4357,243.6212s-19.56-18.0807-20.7707-17.6591,2.2553,3.8982,1.196,4.059-8.8259-8.0559-9.9236-7.3121c-1.4873,1.0086,5.2118,7.8161,5.2118,7.8161s-1.7705-1.197-2.8075.051c-.7346.8842,1.351,3.6341,1.351,3.6341s-2.0373-1.3518-2.78-.4181c-.7372.9263,1.0785,3.7061,1.0785,3.7061s-1.4488-1.0716-1.93-.0782c-.7657,1.5824,8.9066,12.883,17.8961,22.827"/><path class="n" d="M551.6747,217.3189l1.7559,13.162s-8.5719,8.8318-17.6906-.9574l-.5107-7.3815Z"/><path class="n" d="M537.2969,200.099s-12.3762,13.9974-7.85,19.78c2.3524,3.0057,12.5021,6.6894,16.1608,4.4037,2.7146-1.6962,7.8169-13.5458,6.6572-15.86C547.8346,199.58,537.2969,200.099,537.2969,200.099Z"/><path class="u" d="M537.8543,202.6363c-.7682,8.1507,1.64,12.3,1.64,12.3s-5.3884,17.05-4.2112,18.6754,18.6081,4.15,27.0929.5252c0,0,1.3474-25.7572-6.4392-32.2964-7.4064-6.22-16.9872-5.6609-22.2159-2.4108a4.2166,4.2166,0,0,0,2.3511,2.374c.9261.4071,1.9647.8681,1.9647.8681"/><path class="n" d="M537.8187,212.8657c1.5115-1.916,2.7351-1.6115,3.403-.5594.8908,1.4032-.8953,4.32-1.7272,4.8176-1.6855,1.0086-3.0505.9027-3.18-.4664"/><path class="aj" d="M535.2829,223.409a2.5131,2.5131,0,0,0,2.3545-1.4952"/><path class="ak" d="M534.042,208.014c-.5181.4316-1.0037,1.2147-.7177,1.79a.4016.4016,0,0,0,.4158.2232C534.903,209.9131,535.1244,207.1126,534.042,208.014Z"/><path class="al" d="M534.1873,205.8838a4.3044,4.3044,0,0,1,2.3314,1.8323"/><path class="s" d="M532.6571,214.3494l-2.5477-1.3627s-1.6731,3.13-.4871,3.79C530.9333,217.5071,532.6571,214.3494,532.6571,214.3494Z"/><path class="u" d="M551.5967,199.4183a2.5864,2.5864,0,0,1-1.8231-2.5451,3.2741,3.2741,0,0,1,1.7664-2.7,4.4983,4.4983,0,0,1,3.2885-.2781,3.5333,3.5333,0,0,1,1.165.5369c1.41,1.0427,1.3733,3.2968.3743,4.7376a2.9647,2.9647,0,0,1-1.6749,1.27,1.6535,1.6535,0,0,1-1.8447-.7528"/><path class="am" d="M375.0568,462.4813c-21.0032-6.3463-34.9109-13.528-46.3905-24.96-12.1977-12.1471-16.5124-23.9516-19.82-40.4772-4.61-23.0343-9.61-59.7808-34.5427-68.5733-23.18-8.1746-43.8182,10.2568-55.6393,29.1717-15.1958,24.3148-19.7956,48.6569-19.8206,77.2277-.02,23.12,5.9274,65.5489,79.0182,65.5489h86.849C412.7027,500.4189,405.2274,471.5975,375.0568,462.4813Z"/><path class="c" d="M368.5905,460.9288c-4.3028-8.8314-22.5645-6.1792-42.2741-26.8322-11.4149-11.9611-16.16-22.2962-19.3967-37.861-2.7373-13.1634-12.9874-57.1435-31.2135-58.8748-7.3417-.6973-14.8473.2244-21.31,3.7725-8.9645,4.9219-15.93,12.9694-20.8595,21.9213s-7.9563,18.82-10.4125,28.7371c-3.41,13.7687-5.7932,23.5118-4.0634,37.59,2.9371,23.9031,17.9493,44.9941,41.3059,50.583,23.5418,5.633,44.8141,3.6829,72.6633,3.423C343.6838,483.288,377.4809,479.1754,368.5905,460.9288Z"/><path class="an" d="M247.1268,345.7633a67.9376,67.9376,0,0,0-12.07,13.8737,98.1894,98.1894,0,0,0-9.34,17.9039,114.4863,114.4863,0,0,0-6.0553,20.3618,108.2767,108.2767,0,0,0-2.1525,21.084,86.0251,86.0251,0,0,0,2.3278,20.41,62.1779,62.1779,0,0,0,7.3535,17.9952,49.8421,49.8421,0,0,0,13.03,14.12c6.8525,4.98,15.0163,7.9687,23.1778,10.0047a142.9036,142.9036,0,0,0,31.2,3.7527c5.2593.125,10.52.0244,15.7764-.1672,5.1448-.1874,10.2962-.4183,15.4268-.8456,2.4033-.2,4.8214-.4034,7.2287-.5393.4159-.0235.4186-.6737,0-.65-4.9631.28-9.9429.3848-14.91.6022-5.1211.2242-10.2471.3926-15.3736.4106a179.985,179.985,0,0,1-31.36-2.1532c-9.0609-1.5687-18.3078-4.1-26.323-8.723a47.57,47.57,0,0,1-14.2756-12.66,57.3644,57.3644,0,0,1-8.592-16.9676,78.8073,78.8073,0,0,1-3.4923-19.77,103.5115,103.5115,0,0,1,1.0508-20.866,115.0933,115.0933,0,0,1,5.01-20.4253,103.0549,103.0549,0,0,1,8.4187-18.48,75.5468,75.5468,0,0,1,11.2411-14.9424q1.4979-1.52,3.1042-2.9262c.2766-.2421-.1262-.6392-.4021-.4022Z"/><path class="ao" d="M377.4981,465.51l29.6125,22.0768,5.5643,8.5428,31.7993-21.6756a1.7016,1.7016,0,0,0,.447-2.3641h0a1.7016,1.7016,0,0,0-1.7953-.6979l-18.0279,2.95-29.3565-24.23"/><path class="ap" d="M447.0417,472.2235c-1.0151-.8022-2.3878-1.5464-3.1664-1.3994l-18.8286,3.5532c-5.8451,8.6828-17.9361,13.21-17.9361,13.21l5.55,12.2381a.7943.7943,0,0,0,1.1036.2087l35.525-23.9506C450.0007,475.5977,447.0738,472.2488,447.0417,472.2235Z"/><path class="aq" d="M428.6289,472.8771a20.7616,20.7616,0,0,0,.2717,4.8412"/><path class="aq" d="M431.2066,472.7368a18.2412,18.2412,0,0,0,.2892,4.0773"/><path class="aq" d="M433.3,472.4916a25.9819,25.9819,0,0,0,.2314,3.7644"/><line class="aq" x1="411.6907" y1="497.9821" x2="447.9584" y2="473.2594"/><path class="aq" d="M409.0788,491.9275s8.6666-5.5906,12.8746-.9356"/><path class="aq" d="M440.0163,471.5523s-.0989,4.939.4778,6.7971"/><path class="ao" d="M334.683,455.3033l12.6615,30.8292-.1619,10.1938,38.4836-.1964a1.7015,1.7015,0,0,0,1.6922-1.71h0a1.7015,1.7015,0,0,0-1.0984-1.5822l-16.5971-7.6319-11.2457-32.4712"/><path class="ap" d="M389.0423,495.7155c-.3934-1.2325-1.1156-2.617-1.8433-2.93l-17.5982-7.5792c-9.7,3.9319-22.2563.9266-22.2563.9266l-2.24,13.25a.7944.7944,0,0,0,.7984.79h42.8446C389.6094,500.1674,389.0546,495.7544,389.0423,495.7155Z"/><path class="aq" d="M373.41,485.9645a20.7572,20.7572,0,0,0-2.4811,4.166"/><path class="aq" d="M375.6254,487.2891a18.2429,18.2429,0,0,0-2.04,3.5425"/><path class="aq" d="M377.4981,488.256a25.9592,25.9592,0,0,0-1.9124,3.2506"/><line class="aq" x1="345.3311" y1="497.3118" x2="389.2232" y2="497.0869"/><path class="aq" d="M346.55,490.8316s10.3111.2091,11.1981,6.4213"/><path class="aq" d="M383.5922,491.2317s-2.843,4.04-3.4035,5.9029"/><path class="ao" d="M279.78,325.9765s8.3868,13.2273,4.8075,18.9275c-1.8606,2.9626-8.8524,4.9625-12.4039,3.2249-2.6355-1.2895-8.4078-11.61-7.57-13.8291C267.8161,325.8192,279.78,325.9765,279.78,325.9765Z"/><path class="ao" d="M263.9535,344.5478l-.7931,10.25s6.5245,16.2969,18.3256,1.6146l-.5221-11.3112Z"/><path class="ar" d="M260.3519,341.48c-1.2138-2.949-2.2295-4.4842-2.7349-8.0848a4.3,4.3,0,0,1,2.5379-4.86s-.5228.4248,1.13-2.8383c1.5613-3.0815,6.7993-2.9431,9.951-3.4469,4.1388-.6617,10.2617-4.34,12.7086-2.7083,1.0666.7111,1.0636,7.103-2.3079,8.9811-1.9269,1.0735-5.0909.4667-7.3169.8187-4.15.6563-5.1165,1.5312-5.6256,4.1788-.2825,1.4689-3.0144,1.2039-1.4674,4.2184a4.7637,4.7637,0,0,1,.3754,1.2372l-1.6483,1.18c-2.1006,1.4239,2.4728,5.0978,2.1331,6.8614-.1783.924-2.0368,1.3227-3.6787.5667S261.6718,344.6868,260.3519,341.48Z"/><path class="ao" d="M267.0148,340.32c-1.8688-1.9222-3.1715-1.4505-3.7823-.225-.8142,1.6342,1.4685,4.6183,2.4341,5.0684,1.9564.9109,3.4356.6405,3.4222-.87"/><path class="as" d="M281.1082,348.102c-6.323,1.405-9.5864-.4318-9.5864-.4318"/><path class="at" d="M278.9719,333.9177s3.0285,3.2746,2.9785,4.339-2.469,1.6042-2.469,1.6042"/><path class="s" d="M283.1328,340.2745l-6.4979,2.0736a4.3348,4.3348,0,0,0,5.3494,1.8347C284.4735,343.196,283.1328,340.2745,283.1328,340.2745Z"/><path class="p" d="M280.7911,332.5657c.05.1452.1043.2868.1624.4288.0692.1687.1335.34.2172.5022a.3946.3946,0,0,0,.7211-.0942l.0141-.1049a.3932.3932,0,0,0-.0538-.1991c-.06-.1394-.1349-.2709-.2068-.4044s-.1461-.2642-.2259-.3932a.3456.3456,0,0,0-.4293-.1407.3412.3412,0,0,0-.199.4055Z"/><path class="t" d="M279.0772,331.0921a1.7579,1.7579,0,0,1,2.448-.724"/><path class="p" d="M273.516,335.6387c.0414.1485.0881.2938.1383.44.06.1734.119.3445.1937.5122a.3911.3911,0,0,0,.2358.1813.4086.4086,0,0,0,.2569-.02.3767.3767,0,0,0,.1886-.1615.39.39,0,0,0,.04-.304c-.0623-.1719-.1418-.336-.2191-.5015-.0651-.1394-.1325-.2759-.2057-.4112a.3443.3443,0,0,0-.6283.2649Z"/><path class="t" d="M274.0907,332.7356s-1.7238-.2773-3.0844,1.9368"/><path class="ao" d="M311.8364,377.1358s10.0459,19.3835,12.9657,19.7568c3.5244.4508,31.3223-20.0947,31.3223-20.0947l11.2261,13.599s-26.0181,31.5837-43.5265,31.5837-33.7806-31.5916-33.7806-31.5916"/><path class="ap" d="M263.16,354.7974s2.5474,4.592,10.0414,4.2524c5.714-.259,8.2842-2.6378,8.2842-2.6378s17.1059,4.4525,20.4444,26.9714c3.11,20.977,7.0167,56.8154,7.0167,56.8154l-64.9661,4.3641a370.5446,370.5446,0,0,1,.8115-50.9527C246.5841,373.1194,263.16,354.7974,263.16,354.7974Z"/><path class="ad" d="M261.6351,425.6172l34.9538.49-.03,2.1382-36.9116-.5177h0A2.0542,2.0542,0,0,1,261.6351,425.6172Z"/><path class="ad" d="M339.1526,428.8432l-49.1092-.6888,9.8523-32.8247a3.7537,3.7537,0,0,1,3.5737-2.7913l44.3993.6227a1.5769,1.5769,0,0,1,1.3664,2.09Z"/><path class="ae" d="M341.3585,428.8741l-49.1091-.6888,9.8524-32.8247a3.7536,3.7536,0,0,1,3.5735-2.7912l44.3995.6227a1.577,1.577,0,0,1,1.3665,2.09Z"/><path class="ad" d="M327.1145,409.2557a3.8594,3.8594,0,0,1-3.8506,2.7312c-1.8172-.0256-3.0394-1.29-2.73-2.8235a3.859,3.859,0,0,1,3.8505-2.7312C326.2015,406.4576,327.4239,407.7217,327.1145,409.2557Z"/><path class="ap" d="M281.486,356.412c6.4648-.4343,14.7769,1.1843,19.3562,4.1586,12.1417,7.8864,17.2358,24.7731,17.2358,24.7731l-16.7336,4.2573"/><path class="ao" d="M257.36,393.1527s-4.912,17.2509-3.7771,21.0088c.856,2.8348,25.6717,6.3921,25.6717,6.3921l1.2932,16.4754s-43.8563,2.8606-50.1993-5.0638c-8.6824-10.847,1.1945-43.8119,1.1945-43.8119"/><path class="ao" d="M274.081,420.333c3.6451.0876,22.914,1.0581,22.8336,2.0379-.0783.9432-5.5947,1.5946-5.3527,2.0883.3434.7011,4.5547,1.0723,6.934,1.0626,2.1225-.0084,5.5322.3253,5.6557,1.2482.2347,1.7557-11.4111,1.6549-11.4111,1.6549s12.5431-2.2334,12.8907-.7847c.502,2.088-12.8618,3.9528-13.2612,4.4856,0,0,11.1385-4.8336,11.51-3.2885s-9.4674,6.1086-12.6807,6.3676c2.596-.7082,10.0672-5.8521,10.3458-4.4188s-6.3959,4.5234-7.5,4.777a64.6942,64.6942,0,0,1-17.6967,1.3464"/><path class="au" d="M302.9775,427.6369a31.9154,31.9154,0,0,1-4.4793.7079c-.7527.0623-1.5061.1215-2.2632.1318a19.5918,19.5918,0,0,1-2.273-.0556c1.4975-.2608,2.99-.4294,4.4908-.5738A44.546,44.546,0,0,1,302.9775,427.6369Z"/><path class="au" d="M301.93,429.787a29.0193,29.0193,0,0,1-4.7169,1.4343,24.5223,24.5223,0,0,1-2.4349.4132,12.8086,12.8086,0,0,1-2.4721.0929c1.6217-.2862,3.2036-.6448,4.8009-.9944C298.7057,430.3961,300.3,430.0392,301.93,429.787Z"/><path class="au" d="M300.1367,431.9587a26.1043,26.1043,0,0,1-4.1186,1.5285c-.7065.1932-1.4153.3805-2.1388.51a13.88,13.88,0,0,1-2.188.2686c1.4029-.4418,2.7894-.8564,4.19-1.2591C297.2855,432.6187,298.69,432.2317,300.1367,431.9587Z"/><path class="ap" d="M263.16,354.7974s-13.1433.8829-18.1448,4.6481c-13.388,10.0784-16.4558,29.7933-16.4558,29.7933l29.3636,7.6538L263.2,380.6844"/><path class="aq" d="M256.7359,396.9725a85.347,85.347,0,0,1,4.0161-13.5891"/><path class="aq" d="M302.87,389.103a111.6108,111.6108,0,0,0-4.8412-18.1543"/><line class="aq" x1="229.5983" y1="384.6604" x2="257.6702" y2="392.953"/><line class="aq" x1="316.6017" y1="381.3687" x2="302.0877" y2="385.2713"/><path class="aq" d="M260.3579,355.07s3.5177,6.882,13.7809,6.1926,10.6961-4.9083,10.6961-4.9083"/><path class="ao" d="M348.6956,382.49s19.3854-15.0579,20.3595-14.7513-1.7018,3.1572-.8548,3.26,6.9895-6.2,7.8807-5.634c1.2082.7672-5.11,6.7773-5.11,6.7773s7.3456-6.1718,8.201-5.2032c.606.6861-6.6,7.5773-6.6,7.5773s7.2851-5.32,7.8992-4.595c.6091.72-5.8268,6.8409-5.8268,6.8409s5.0542-4.4369,5.8675-3.6928-9.929,14.4809-19.2564,23.7829"/><path class="as" d="M366.83,371.8409a41.8334,41.8334,0,0,1-3.176,6.2105"/><path class="as" d="M366.0255,379.6944c2.0672-2.1107,4.8145-2.48,7.3947-2.3594"/><path class="av" d="M272.3567,469.6043s-1.7537,10.5149,8.93,9.7972c25.9716-1.7447,67.3718-32.6881,67.3718-32.6881l50.3162,38.9458,20.6978-22.08s-34.0613-28.4285-44.0753-36.1115c-4.1764-3.2042-12.8233-10.4518-22.5115-9.8011s-64.4914,22.0009-64.4914,22.0009"/><path class="aw" d="M280.9074,473.7577c22.3941-1.5043,56.1808-25.8752,65.1478-31.3171a3.8107,3.8107,0,0,1,4.3149.2475l51.3193,40.075"/><path class="ax" d="M246.2359,444.413s-4.362,38.4567,27.65,36.3062c22.5635-1.5158,50.9157-33.63,50.9157-33.63l17.4232,39.4243,29.6332-8.7827S357.2845,441.13,352.2873,428.702c-4.2526-10.576-11.93-18.8859-19.587-19.8867s-15.74,2.5006-25.3,8.0447c-7.71,4.4713-31.71,25.5744-31.71,25.5744"/><path class="ay" d="M254.7209,443.843s-1.9006,31.7884,21.0005,30.25c13.7256-.922,40.7041-28.183,48.3486-34.779a1.9931,1.9931,0,0,1,3.1268.712l19.8052,45.0722"/><path class="ay" d="M254.9821,451.7854s9.0849-1.1179,9.786-8.6174"/><line class="ay" x1="339.8047" y1="481.0371" x2="369.605" y2="472.0737"/><line class="aw" x1="394.1574" y1="481.9306" x2="414.9297" y2="459.6291"/><path class="o" d="M145.9386,210.8828c.03-.4888.6288-.7505,1.1141-.6844a2.1976,2.1976,0,0,1,1.582,1.24,4.7994,4.7994,0,0,1,.4188,2.0317,3.8566,3.8566,0,0,1-.319,1.8958,2.3606,2.3606,0,0,1-2.9622,1.0239"/><path class="n" d="M145.3393,201.7084s4.0333,15.3813,1.8173,18.5355c-3.3194,4.7247-11.2153,5.0882-14.5431,2.9076-2.7913-1.8291-5.0828-11.63-5.0828-14.1743C127.5307,202.0717,141.7049,198.0739,145.3393,201.7084Z"/><path class="n" d="M124.9013,219.8176l-1.5761,13.51a18.75,18.75,0,0,0,12.678,5.4516c7.6323,0,7.6323-5.0882,7.6323-5.0882l-1.4538-11.63-11.7343-12.3143-5.5461,10.0708"/><path class="az" d="M132.0039,208.5329q-.0223-1.326-.0587-2.6516a7.9087,7.9087,0,0,0-.2663-2.1068,44.3221,44.3221,0,0,0,11.4776.7707,7.2368,7.2368,0,0,0,3.5213-.8882c.9326-.6035.737-9.4069-10.4619-9.8321a12.1753,12.1753,0,0,0-6.2523.9894c-1.8886,1.0088-4.785,2.9468-4.8332,5.0873-2.7455.9207-5.6756,6.36-4.0873,12.1193.893,3.2383,1.4778,6.5818,3.8582,7.7967,3.0281-1.2352,5.0963-4.6372,5.6227-5.3721A10.5252,10.5252,0,0,0,132.0039,208.5329Z"/><path class="q" d="M142.4234,223.9945s-5.2952,1.044-8.943-.9136c-2.8768-1.5438-3.9129-5.1207-3.9129-5.1207"/><path class="n" d="M131.3635,212.9355a2.948,2.948,0,0,0-2.07-1.2377,2.6021,2.6021,0,0,0-1.6084.92c-2.0191,2.2721.1787,6.6084,3.2734,6.129,1.1359-.1759.826-1.6789.826-1.6789"/><path class="r" d="M142.7531,209.7468s2.353,3.6219,2.1307,4.6295-2.62,1.1259-2.62,1.1259"/><path class="s" d="M144.89,216.7426l-6.5416.9129a4.1976,4.1976,0,0,0,4.8041,2.6286C145.69,219.7508,144.89,216.7426,144.89,216.7426Z"/><path class="p" d="M144.7108,208.8135c.0231.1462.0512.29.083.4344s.0595.2881.1041.4285a.415.415,0,0,0,.1813.2358.3946.3946,0,0,0,.58-.4456c-.0341-.1433-.0847-.2813-.1318-.4208s-.0974-.2779-.1533-.4151a.3772.3772,0,0,0-.1579-.2054.344.344,0,0,0-.47.1233l-.0346.0821a.3457.3457,0,0,0,0,.1828Z"/><path class="t" d="M143.317,207.0674a1.7026,1.7026,0,0,1,2.4553-.2893"/><path class="p" d="M137.2513,210.4612c.0175.1755.0415.3492.07.5234.024.1484.0438.2973.0811.4429a.3947.3947,0,0,0,.4853.2756.3988.3988,0,0,0,.2358-.1813.4462.4462,0,0,0,.04-.304c-.0259-.1448-.0684-.2852-.1074-.4269s-.0811-.2817-.1288-.4211a.3467.3467,0,0,0-.3772-.2462.327.327,0,0,0-.1974.0945.3352.3352,0,0,0-.1007.2431Z"/><path class="t" d="M138.2887,207.8177s-1.6-.5476-3.2614,1.3422"/><path class="n" d="M148.4611,455.3033l3.11,31.2077-.263,9.8153,38.4836-.1964a1.7018,1.7018,0,0,0,1.6922-1.71h0a1.7019,1.7019,0,0,0-1.0985-1.5822l-16.5972-7.6319-1.5924-32.4712"/><path class="u" d="M193.1672,495.7155c-.3932-1.2325-1.1156-2.617-1.8431-2.93l-17.5984-7.5792c-9.7,3.9319-22.2563.9266-22.2563.9266l-2.24,13.25a.7941.7941,0,0,0,.7982.79h42.8447C193.7345,500.1674,193.18,495.7544,193.1672,495.7155Z"/><path class="v" d="M177.5346,485.9645a20.7564,20.7564,0,0,0-2.4809,4.166"/><path class="v" d="M179.75,487.2891a18.2421,18.2421,0,0,0-2.04,3.5425"/><path class="v" d="M181.6232,488.256a25.96,25.96,0,0,0-1.9125,3.2506"/><line class="v" x1="149.456" y1="497.3118" x2="193.3482" y2="497.0869"/><path class="v" d="M150.6751,490.8316s10.3112.2091,11.1982,6.4213"/><path class="v" d="M187.7172,491.2317s-2.8429,4.04-3.4036,5.9029"/><path class="ai" d="M166.4657,321.2857c6.6152,47.5269,12.5427,159.7985,12.5427,159.7985H145.8751s-6.8336-70.1855-12.6383-120.9589c-14.58-24.1275-13.4459-50.261-15.09-53.7331"/><path class="ah" d="M150.4,481.0842s-8.1919-77.5218-13.9964-128.2953"/><path class="n" d="M95.2393,455.3033,93.8237,486.511l-.263,9.8153,38.4836-.1964a1.7016,1.7016,0,0,0,1.6922-1.71h0a1.7017,1.7017,0,0,0-1.0985-1.5822l-16.597-7.6319,2.9327-32.4712"/><path class="u" d="M135.42,495.7155c-.3933-1.2325-1.1156-2.617-1.8432-2.93l-17.5983-7.5792c-9.7,3.9319-22.2563.9266-22.2563.9266l-2.24,13.25a.7942.7942,0,0,0,.7983.79h42.8447C135.9875,500.1674,135.4326,495.7544,135.42,495.7155Z"/><path class="v" d="M119.7877,485.9645a20.7568,20.7568,0,0,0-2.481,4.166"/><path class="v" d="M122.0034,487.2891a18.2473,18.2473,0,0,0-2.04,3.5425"/><path class="v" d="M123.8762,488.256a25.96,25.96,0,0,0-1.9125,3.2506"/><line class="v" x1="91.7091" y1="497.3118" x2="135.6013" y2="497.0869"/><path class="v" d="M92.9282,490.8316s10.3111.2091,11.1981,6.4213"/><path class="v" d="M129.97,491.2317s-2.8429,4.04-3.4035,5.9029"/><path class="ai" d="M96.2548,316.8859a185.6035,185.6035,0,0,0,.8242,37.14c-2.8288,57.2261-6.7409,127.0579-6.7409,127.0579H123.463s15.9535-126.7353,16.6978-165.1483"/><path class="ah" d="M101.9113,316.8859a185.5966,185.5966,0,0,0,.8243,37.14c-2.8288,57.2261-6.741,127.0579-6.741,127.0579"/><path class="ah" d="M135.26,378.1993s4.6-39.7447,4.9988-54.3326"/><line class="ah" x1="90.7029" y1="474.5302" x2="124.2776" y2="474.5302"/><line class="ah" x1="145.2224" y1="474.4362" x2="178.579" y2="474.4362"/><path class="ah" d="M101.5424,339.8921s9.5224.7409,14.78-12.758"/><path class="ah" d="M138.7925,339.8994s3.3206-.9443,3.6309-1.9824,1.2121-13.3358,1.2121-13.3358"/><path class="ah" d="M155.7918,327.1341a14.3393,14.3393,0,0,0,12.9115,12.7653"/><path class="n" d="M174.4334,257.56s7.6828,10.7745,10.1556,11.2611,23.8837-23.42,23.8837-23.42l13.0422,10.0676s-19.4134,39.2353-37.6409,40.2868c-15.73.9074-30.9616-23.6775-30.9616-23.6775"/><path class="z" d="M123.8316,229.0428s2.195,3.2338,11.0754,4.1487c6.7112.6914,8.3537-2.4987,8.3537-2.4987s16.2032,8.6316,21.01,44.3864,5.2753,54.4719,5.2753,54.4719H93.469s-.2559-27.1987,1.97-50.5825C97.7266,254.9276,102.7776,234.6091,123.8316,229.0428Z"/><polygon class="c" points="148.546 336.571 113.531 329.831 112.4 328.7 124.934 276.799 162.212 285.802 163.343 286.933 148.546 336.571"/><polygon class="ba" points="148.546 336.571 113.531 329.831 112.4 328.7 124.934 276.799 126.065 277.93 148.546 336.571"/><rect class="bb" x="119.2621" y="281.6856" width="38.3498" height="53.3926" transform="translate(76.2611 -23.8806) rotate(13.5769)"/><path class="s" d="M151.1645,339.8994l-37.278-9.0026s8.0162-33.83,9.4312-39.0525c0,0,2.3932-5.9512,6.8169-8.1652a16.9017,16.9017,0,0,1,8.6584-1.6949l24.9055,6.0147Z"/><line class="bc" x1="147.5215" y1="334.3454" x2="119.6803" y2="327.9145"/><line class="bc" x1="148.278" y1="331.3092" x2="120.4367" y2="324.8783"/><line class="bc" x1="149.0344" y1="328.273" x2="121.1932" y2="321.8421"/><line class="bc" x1="149.7909" y1="325.2369" x2="121.9497" y2="318.8059"/><line class="bc" x1="150.5474" y1="322.2007" x2="122.7061" y2="315.7698"/><line class="bc" x1="151.3038" y1="319.1645" x2="123.4626" y2="312.7336"/><line class="bc" x1="152.0603" y1="316.1283" x2="124.2191" y2="309.6974"/><line class="bc" x1="152.8168" y1="313.0921" x2="124.9755" y2="306.6612"/><line class="bc" x1="153.5733" y1="310.0559" x2="125.732" y2="303.625"/><line class="bc" x1="154.3297" y1="307.0197" x2="126.4885" y2="300.5888"/><line class="bc" x1="155.0862" y1="303.9837" x2="127.2449" y2="297.5526"/><line class="bc" x1="155.8427" y1="300.9475" x2="128.0014" y2="294.5166"/><line class="bc" x1="156.5991" y1="297.9113" x2="128.7579" y2="291.4804"/><line class="bc" x1="157.3556" y1="294.8751" x2="129.5144" y2="288.4442"/><line class="bc" x1="152.9559" y1="289.0833" x2="137.7678" y2="285.6536"/><path class="c" d="M130.1346,283.6791c-4.4238,2.214-6.8169,8.1652-6.8169,8.1652s5.57-5.6625,11.0562-5.2774c.0963-2.8878,4.4191-4.5827,4.4191-4.5827A16.9017,16.9017,0,0,0,130.1346,283.6791Z"/><path class="z" d="M143.2607,230.6928c7.8825.7086,16.5953,3.713,21.1289,9.4054A185.8643,185.8643,0,0,1,180.14,263.89l-21.3634,15.0787Z"/><path class="bd" d="M164.39,274.8414c-1.2592-10.0163-3.9921-22.8425-3.9921-22.8425"/><line class="bd" x1="163.6944" y1="269.9158" x2="178.121" y2="259.9257"/><path class="n" d="M106.5617,277.0194s-7.4333,16.3239-6.8724,20.209c.4231,2.9309,24.4291,10.1545,24.4291,10.1545l-1.1819,16.4838s-43.7916-3.7213-48.88-12.5043c-6.965-12.022,7.7244-43.142,7.7244-43.142"/><path class="n" d="M119.0361,306.3922c3.5914.6311,22.4991,4.4684,22.2732,5.4253-.2182.9209-5.77.7411-5.6045,1.2654.2347.7445,4.3434,1.74,6.6976,2.0863,2.1.3086,5.4215,1.1478,5.4058,2.0789-.03,1.7711-11.53-.068-11.53-.068s12.7359-.3348,12.8633,1.1494c.1846,2.14-13.3079,1.9875-13.7824,2.4547,0,0,11.7355-3.1159,11.8719-1.5325s-10.2736,4.626-13.4894,4.4022c2.6726-.3125,10.8283-4.2829,10.89-2.824s-7,3.5175-8.13,3.6031a64.6907,64.6907,0,0,1-17.6993-1.3116"/><path class="ab" d="M146.5178,317.93a31.9186,31.9186,0,0,1-4.5349.0309c-.7535-.0508-1.5073-.1048-2.2574-.2078a19.5862,19.5862,0,0,1-2.2392-.3943c1.52-.0342,3.0208.0219,4.526.1033A44.5308,44.5308,0,0,1,146.5178,317.93Z"/><path class="ab" d="M145.1614,319.8994a29.0069,29.0069,0,0,1-4.8783.7138,24.526,24.526,0,0,1-2.4694.0449,12.8,12.8,0,0,1-2.4581-.2774c1.6461-.0407,3.2639-.1591,4.8955-.2661C141.8818,320.02,143.5116,319.9054,145.1614,319.8994Z"/><path class="ab" d="M143.0634,321.779a26.1145,26.1145,0,0,1-4.3008.8962c-.7273.0855-1.4562.1648-2.1909.1847a13.8684,13.8684,0,0,1-2.2035-.0613c1.4531-.2273,2.886-.43,4.3315-.6191C140.1456,322.0057,141.5917,321.8327,143.0634,321.779Z"/><path class="z" d="M124.1184,229.037c-8.97-.1438-17.7147,1.5363-23.3131,5.6953C90.3381,242.5083,80.3345,268.22,80.3345,268.22l29.0727,11.2539,12.6608-24.6351"/><line class="bd" x1="107.39" y1="278.9686" x2="117.1877" y2="261.9897"/><line class="bd" x1="110.154" y1="274.1787" x2="82.8832" y2="262.8456"/><path class="bd" d="M120.2471,229.0589a19.1494,19.1494,0,0,0,14.78,6.4353c9.8619,0,10.9274-4.4705,10.9274-4.4705"/><path class="n" d="M202.997,251.7137s14.2852-17.9248,15.2636-17.8535-.8933,3.3279-.0787,3.2366,5.1644-7.341,6.1227-7.009c1.2991.45-2.8342,6.8783-2.8342,6.8783s1.1359-1.2021,2.15-.4857c.7182.5076-.0494,2.4881-.0494,2.4881s1.1742-.6911,1.9087-.1489c.7285.5383.0011,2.2411.0011,2.2411s1.149-1.3837,1.9464-.2406c.7468,1.07-3.0608,10.9015-9.7256,21.6594"/><path class="aa" d="M217.2265,238.7126a40.1885,40.1885,0,0,1-1.5967,6.5083"/><path class="ab" d="M227.1078,243.09c-.55.8421-1.1278,1.6669-1.7528,2.459a13.3458,13.3458,0,0,1-1.0006,1.143,3.9808,3.9808,0,0,1-.5944.5,1.263,1.263,0,0,1-.378.1779.464.464,0,0,1-.4821-.1179,1.1036,1.1036,0,0,1-.1022-.8468,5.93,5.93,0,0,1,.1874-.7518c.1539-.4877.34-.96.5368-1.4264.4-.9307.83-1.8426,1.3127-2.7342l.3719.213c-.5876.98-1.2025,1.9362-1.8769,2.8626a13.019,13.019,0,0,1-1.0988,1.34,3.0084,3.0084,0,0,1-.7213.5806.6647.6647,0,0,1-.6344.0363.6746.6746,0,0,1-.2914-.5643,5.35,5.35,0,0,1,.3216-1.757c.1733-.5493.3709-1.0861.58-1.6172.42-1.0621.8776-2.1019,1.3656-3.1337l.3991.2c-.564,1.0258-1.145,2.036-1.8063,3.0043a14.1781,14.1781,0,0,1-1.0693,1.4056,3.6823,3.6823,0,0,1-.6753.6174.7579.7579,0,0,1-.5259.1412.49.49,0,0,1-.358-.4556,5.0749,5.0749,0,0,1,.3049-1.7694c.1752-.559.3815-1.1049.5967-1.6462.433-1.0814.9063-2.1441,1.4072-3.1931-.4484,1.0722-.8683,2.1563-1.2457,3.253-.1889.5481-.3616,1.1014-.5137,1.6574a4.9633,4.9633,0,0,0-.25,1.6506c.0226.1275.0653.1928.1188.1939a.4844.4844,0,0,0,.2861-.1055,3.39,3.39,0,0,0,.59-.5744,13.847,13.847,0,0,0,1.0011-1.3958c.6167-.973,1.2047-1.9741,1.7451-2.9927l.3991.2005c-.4723,1.0227-.9193,2.0641-1.3235,3.115-.2014.5259-.3909,1.0559-.5538,1.59a5.5421,5.5421,0,0,0-.3041,1.57.3673.3673,0,0,0,.0428.1825.2442.2442,0,0,0,.1781-.0451,2.6181,2.6181,0,0,0,.5979-.4815,12.6061,12.6061,0,0,0,1.0683-1.28c.6689-.9013,1.291-1.8491,1.8781-2.8085l.3721.2129c-.4746.8766-.9458,1.764-1.3595,2.6721-.2069.454-.4021.9134-.5638,1.3805a5.6211,5.6211,0,0,0-.1969.7051.94.94,0,0,0,.0189.6146c.0666.1045.3243.0329.5152-.0957a4.3319,4.3319,0,0,0,.5778-.4454,13.19,13.19,0,0,0,1.0393-1.0763C225.9,244.6988,226.5176,243.9039,227.1078,243.09Z"/></svg>