<svg xmlns="http://www.w3.org/2000/svg" xmlns:xlink="http://www.w3.org/1999/xlink" viewBox="0 0 750 500"><defs><style>.a,.ab,.ac,.ae,.af,.ao,.aq,.ar,.aw,.ax,.bb,.be,.bg,.bh,.bk,.e,.f,.g,.m,.t,.x,.y{fill:none;}.b{isolation:isolate;}.c{clip-path:url(#a);}.d{fill:#e1f1ff;}.e,.f,.g,.l,.m{stroke:#b8e2ff;}.ac,.af,.ar,.bb,.be,.bg,.bh,.e,.f,.g,.l,.r,.y{stroke-linejoin:round;}.f{stroke-dasharray:3.965 1.9825;}.g{stroke-dasharray:4 2;}.h{fill:#f0fbff;}.aa,.i{opacity:0.55;}.j{fill:#b8e2ff;}.k{fill:#cde2fc;}.ad,.l{fill:#eff6f9;}.ac,.bb,.be,.l,.t{stroke-linecap:round;}.ab,.ae,.ao,.aq,.aw,.ax,.bk,.m,.t,.x{stroke-miterlimit:10;}.n{fill:#b7cfe5;}.o{fill:#dfe6ea;}.p,.r{fill:#fff;}.q,.z{fill:#eff7f9;}.r{stroke:#c0e3ff;}.s{fill:#c0e3ff;}.ab,.ac,.bb,.t{stroke:#fff;}.ac,.t{stroke-width:0.5px;}.u{fill:#83bbff;opacity:0.75;}.u,.z{mix-blend-mode:screen;}.v{fill:#edf2f4;}.aa,.w{fill:#d5eaf7;}.x{stroke:#d5eaf7;}.y{stroke:#99d6ff;}.z{opacity:0.45;}.ae{stroke:#edf2f4;}.af{stroke:#71bfff;}.ag{fill:#4376cf;}.ah{clip-path:url(#c);}.ai{fill:url(#d);}.aj{fill:url(#e);}.ak{fill:#ffd9d7;}.al{fill:#cad3d8;}.am{fill:#010101;}.an{fill:#ff5245;}.ao{stroke:#aa312e;}.ao,.aq,.ar,.aw,.ax,.bg,.bh,.bk{stroke-width:0.75px;}.ap{fill:#039;}.aq{stroke:#68707a;}.ar{stroke:#ffa4a4;}.as{fill:#33002c;}.at{fill:#611223;}.au{fill:#ffa4a4;}.av{fill:#011e3b;}.aw{stroke:#19417c;}.ax{stroke:#031628;}.ay{fill:#82b1f4;}.az{fill:#f9afaf;}.ba{fill:#031628;}.bc{fill:#3074e2;}.bd{fill:#aa312e;}.be,.bh{stroke:#010101;}.bf{fill:#191956;}.bg{stroke:#4376cf;}.bi{fill:#699fed;}.bj{fill:#1238a7;}.bk{stroke:#152377;}.bl{fill:#f9c8c7;}.bm{fill:#3f111d;}</style><clipPath id="a"><rect class="a" x="717.7589" y="-23.8689" width="852.6111" height="568.4074"/></clipPath><clipPath id="c"><path class="a" d="M274.8571,95.833H477.7918A11.1281,11.1281,0,0,1,488.92,106.9611V488.8719A11.1281,11.1281,0,0,1,477.7918,500H274.8572a11.1282,11.1282,0,0,1-11.1282-11.1282V106.9611A11.1281,11.1281,0,0,1,274.8571,95.833Z"/></clipPath><linearGradient id="d" x1="531.4492" y1="114.2725" x2="197.7587" y2="447.9631" gradientUnits="userSpaceOnUse"><stop offset="0.2704" stop-color="#fff" stop-opacity="0.4"/><stop offset="1" stop-color="#fff" stop-opacity="0.3"/></linearGradient><linearGradient id="e" x1="572.3495" y1="119.2594" x2="248.6328" y2="442.9762" xlink:href="#d"/></defs><title>people</title><g class="b"><path class="d" d="M289.9618,128.7313a13.6964,13.6964,0,0,0-19.3236-14.5621,18.3924,18.3924,0,0,0-36.6533,2.2094c0,.1192.0156.2344.0178.3531a12.5788,12.5788,0,0,0-20.8892,12Z"/><line class="e" x1="430.9528" y1="109.1437" x2="432.9528" y2="109.1437"/><path class="f" d="M434.9353,109.1437h143.256a24.6567,24.6567,0,0,1,0,49.3133h-28.123"/><line class="e" x1="549.0771" y1="158.457" x2="547.0771" y2="158.457"/><path class="g" d="M501.2268,158.457H186.014a26.8686,26.8686,0,0,0-26.8628,26.8743h0a26.8685,26.8685,0,0,0,26.8628,26.8742H346.1587"/><rect class="h" x="507.4153" y="154.1945" width="32.6541" height="23.9142"/><g class="i"><polyline class="h" points="540.069 178.109 523.795 161.803 507.415 178.109"/><path class="j" d="M540.0694,178.1088c-2.858-2.5723-5.6389-5.2215-8.4077-7.8827-1.3986-1.3165-2.7474-2.6827-4.1192-4.0259l-4.1005-4.0445.7053.0011-4.1259,4.0453c-1.382,1.3418-2.7365,2.7111-4.1445,4.0267l-4.1935,3.9775c-1.4236,1.3-2.823,2.6241-4.2681,3.9025,1.2849-1.4393,2.6155-2.8326,3.9218-4.25l3.9965-4.1754c1.322-1.402,2.6974-2.75,4.0454-4.1262l4.064-4.1075a.4954.4954,0,0,1,.7005-.0039l.0051.0051,4.0365,4.1083c1.3406,1.3744,2.7041,2.7258,4.0179,4.127C534.8588,172.46,537.5027,175.2457,540.0694,178.1088Z"/></g><path class="d" d="M522.6048,168.81l-15.1895-14.6158h32.6541l-15.0874,14.612A1.7112,1.7112,0,0,1,522.6048,168.81Z"/><path class="d" d="M493.5587,77.7893a14.4685,14.4685,0,0,0-22.14-9.5936,25.1779,25.1779,0,1,0-49.825-7.156,14.2227,14.2227,0,0,0-21.63,16.75Z"/><rect class="h" x="118.6562" y="106.5661" width="35.6772" height="26.1282"/><polygon class="d" points="136.553 123.787 118.656 106.566 154.333 106.566 136.553 123.787"/><polygon class="d" points="136.553 92.102 118.656 106.566 154.333 106.566 136.553 92.102"/><polyline class="h" points="154.333 132.694 136.553 114.879 118.656 132.694"/><path class="k" d="M154.3333,132.6944c-3.1091-2.8238-6.141-5.7247-9.161-8.6375-1.5241-1.4423-2.9985-2.9342-4.4958-4.4032l-4.4771-4.4219.7052.0011-4.505,4.4227c-1.5083,1.4676-2.9893,2.9626-4.5236,4.4041l-4.5726,4.3549c-1.55,1.4256-3.0757,2.8757-4.6472,4.28,1.4112-1.5651,2.8682-3.0842,4.3009-4.6278l4.3756-4.5527c1.4483-1.5278,2.95-3.0019,4.4245-4.5036l4.4432-4.4849a.4956.4956,0,0,1,.7009-.0034l.0046.0046,4.4132,4.4857c1.4661,1.5,2.9552,2.9774,4.3945,4.5043C148.6206,126.5422,151.5156,129.58,154.3333,132.6944Z"/><g class="i"><line class="l" x1="136.4948" y1="79.7207" x2="136.4948" y2="85.8423"/><line class="l" x1="136.4948" y1="145.4148" x2="136.4948" y2="151.5363"/><line class="l" x1="172.3873" y1="115.6285" x2="166.2684" y2="115.6285"/><line class="l" x1="106.7211" y1="115.6285" x2="100.6022" y2="115.6285"/><line class="l" x1="111.1149" y1="90.2379" x2="115.4416" y2="94.5666"/><line class="l" x1="157.5479" y1="136.6906" x2="161.8746" y2="141.0192"/><line class="l" x1="161.8746" y1="90.2379" x2="157.5479" y2="94.5666"/><line class="l" x1="115.4416" y1="136.6906" x2="111.1149" y2="141.0192"/><line class="l" x1="122.7591" y1="82.4542" x2="125.1009" y2="88.1097"/><line class="l" x1="147.8886" y1="143.1475" x2="150.2304" y2="148.8031"/><line class="l" x1="169.6553" y1="101.8873" x2="164.002" y2="104.2298"/><line class="l" x1="108.9875" y1="127.0273" x2="103.3343" y2="129.3699"/><line class="l" x1="103.3343" y1="101.8873" x2="108.9875" y2="104.23"/><line class="l" x1="164.002" y1="127.0273" x2="169.6553" y2="129.3699"/><line class="l" x1="150.2304" y1="82.4542" x2="147.8886" y2="88.1097"/><line class="l" x1="125.1009" y1="143.1475" x2="122.7591" y2="148.8031"/></g><path class="m" d="M206.8087,142.3117a2.731,2.731,0,1,1-2.7309-2.7321A2.7315,2.7315,0,0,1,206.8087,142.3117Z"/><circle class="m" cx="249.4084" cy="189.2533" r="2.7315"/><path class="m" d="M47.9825,196.752a2.731,2.731,0,1,1-2.731-2.7321A2.7315,2.7315,0,0,1,47.9825,196.752Z"/><circle class="m" cx="512.0602" cy="122.9917" r="2.7315"/><path class="m" d="M640.4742,290.6656a2.731,2.731,0,1,1-2.7309-2.7321A2.7314,2.7314,0,0,1,640.4742,290.6656Z"/><path class="m" d="M348.3344,52.457a2.7309,2.7309,0,1,1-2.7309-2.7322A2.7314,2.7314,0,0,1,348.3344,52.457Z"/><line class="m" x1="479.3955" y1="86.2362" x2="498.4441" y2="86.2362"/><line class="m" x1="185.8533" y1="168.3595" x2="204.9018" y2="168.3595"/><line class="m" x1="246.6729" y1="309.7275" x2="265.7214" y2="309.7275"/><line class="m" x1="292.7192" y1="67.2188" x2="311.7677" y2="67.2188"/><line class="m" x1="319.5616" y1="67.2188" x2="329.8345" y2="67.2188"/><line class="m" x1="506.5217" y1="95.833" x2="514.8072" y2="95.833"/><line class="m" x1="609.2015" y1="330.0554" x2="617.4869" y2="330.0554"/><line class="m" x1="502.379" y1="233.2423" x2="510.6644" y2="233.2423"/><line class="m" x1="140.7515" y1="220.7485" x2="149.0369" y2="220.7485"/><line class="m" x1="648.5954" y1="149.3537" x2="656.8809" y2="149.3537"/><line class="m" x1="591.7718" y1="203.2848" x2="600.0572" y2="203.2848"/><line class="m" x1="606.6792" y1="203.2848" x2="621.6297" y2="203.2848"/><line class="m" x1="1.3244" y1="500" x2="751.3244" y2="500"/><path class="n" d="M274.8571,95.833H477.7918A11.1281,11.1281,0,0,1,488.92,106.9611V488.8719A11.1281,11.1281,0,0,1,477.7918,500H274.8572a11.1282,11.1282,0,0,1-11.1282-11.1282V106.9611A11.1281,11.1281,0,0,1,274.8571,95.833Z"/><path class="o" d="M384.3827,478.62a8.0583,8.0583,0,1,1-8.0584-8.0616A8.06,8.06,0,0,1,384.3827,478.62Z"/><rect class="p" x="269.7516" y="124.6456" width="213.1456" height="338.7485"/><rect class="q" x="278.6321" y="441.8219" width="195.3847" height="15.2148"/><path class="r" d="M281.5464,242.1571H471.0169a2.8713,2.8713,0,0,1,2.8713,2.8713V427.8706a2.8713,2.8713,0,0,1-2.8713,2.8713H281.5464a2.8714,2.8714,0,0,1-2.8714-2.8714V245.0285A2.8714,2.8714,0,0,1,281.5464,242.1571Z"/><path class="s" d="M278.675,258.0652H473.8882V245.4715a3.3137,3.3137,0,0,0-3.3131-3.3144H281.9881a3.3137,3.3137,0,0,0-3.3131,3.3144Z"/><line class="t" x1="467.5984" y1="247.3713" x2="462.1212" y2="252.851"/><line class="t" x1="467.5984" y1="252.851" x2="462.1212" y2="247.3713"/><path class="u" d="M442.0516,254.6718H289.9037a4.56,4.56,0,0,1-4.5588-4.5606h0a4.56,4.56,0,0,1,4.5588-4.5607H442.0516a4.56,4.56,0,0,1,4.5587,4.5607h0A4.56,4.56,0,0,1,442.0516,254.6718Z"/><rect class="v" x="285.0554" y="269.1558" width="182.087" height="144.8157" rx="2.7076"/><rect class="w" x="294.8618" y="277.9409" width="161.8802" height="7.1419"/><line class="x" x1="298.885" y1="308.5926" x2="453.3129" y2="308.5926"/><line class="x" x1="298.885" y1="299.7629" x2="453.3129" y2="299.7629"/><line class="x" x1="298.885" y1="317.0869" x2="415.5423" y2="317.0869"/><line class="x" x1="425.5324" y1="317.0869" x2="453.3129" y2="317.0869"/><line class="x" x1="298.885" y1="325.5812" x2="453.3129" y2="325.5812"/><line class="x" x1="298.885" y1="342.3905" x2="453.3129" y2="342.3905"/><line class="x" x1="298.885" y1="350.8847" x2="453.3129" y2="350.8847"/><line class="x" x1="298.885" y1="334.0755" x2="339.2781" y2="334.0755"/><line class="x" x1="353.8182" y1="334.0755" x2="453.3129" y2="334.0755"/><line class="x" x1="358.8303" y1="359.3108" x2="453.3129" y2="359.3108"/><line class="x" x1="358.8303" y1="367.8051" x2="418.1682" y2="367.8051"/><line class="x" x1="425.5324" y1="367.8051" x2="453.3129" y2="367.8051"/><line class="x" x1="358.8303" y1="376.2993" x2="453.3129" y2="376.2993"/><line class="x" x1="358.8303" y1="393.1086" x2="453.3129" y2="393.1086"/><line class="x" x1="358.8303" y1="401.6028" x2="453.3129" y2="401.6028"/><line class="x" x1="358.8303" y1="384.7935" x2="416.305" y2="384.7935"/><line class="x" x1="400.0952" y1="384.7935" x2="453.3129" y2="384.7935"/><line class="y" x1="298.885" y1="290.6656" x2="355.7635" y2="290.6656"/><line class="y" x1="298.885" y1="281.5287" x2="450.3678" y2="281.5287"/><rect class="z" x="298.885" y="359.3108" width="52.146" height="42.292"/><rect class="aa" x="304.1309" y="363.9165" width="24.9549" height="20.2393"/><rect class="aa" x="304.1309" y="388.0488" width="42.0595" height="10.1196"/><path class="r" d="M280.1232,138.8143h89.918a1.3627,1.3627,0,0,1,1.3627,1.3627V231.88a1.3627,1.3627,0,0,1-1.3627,1.3627H280.1233a1.3627,1.3627,0,0,1-1.3627-1.3627V140.1769A1.3626,1.3626,0,0,1,280.1232,138.8143Z"/><path class="s" d="M278.7606,146.3639H371.404v-5.9767a1.5727,1.5727,0,0,0-1.5724-1.5729H280.333a1.5727,1.5727,0,0,0-1.5724,1.5729Z"/><line class="t" x1="368.419" y1="141.2889" x2="365.8197" y2="143.8893"/><line class="t" x1="368.419" y1="143.8893" x2="365.8197" y2="141.2889"/><path class="u" d="M348.3271,144.7535H287.4617a2.164,2.164,0,0,1-2.1635-2.1644h0a2.164,2.164,0,0,1,2.1635-2.1644h60.8654a2.164,2.164,0,0,1,2.1634,2.1644h0A2.164,2.164,0,0,1,348.3271,144.7535Z"/><path class="v" d="M286.2922,154.89h77.58a1.2368,1.2368,0,0,1,1.2368,1.2368V222.38a1.2367,1.2367,0,0,1-1.2367,1.2367h-77.58a1.2367,1.2367,0,0,1-1.2367-1.2367V156.1272A1.2368,1.2368,0,0,1,286.2922,154.89Z"/><path class="w" d="M289.96,162.4551h34.0692a.77.77,0,0,1,.77.77v10.2685a.77.77,0,0,1-.77.77H289.96a.77.77,0,0,1-.77-.77V163.2252A.77.77,0,0,1,289.96,162.4551Z"/><line class="x" x1="289.5392" y1="181.6747" x2="362.0162" y2="181.6747"/><line class="x" x1="289.5392" y1="188.5307" x2="344.2895" y2="188.5307"/><line class="x" x1="348.9781" y1="188.5307" x2="362.0162" y2="188.5307"/><line class="x" x1="289.5392" y1="195.3867" x2="362.0162" y2="195.3867"/><line class="x" x1="289.5392" y1="208.9541" x2="362.0162" y2="208.9541"/><line class="x" x1="289.5392" y1="215.8101" x2="362.0162" y2="215.8101"/><line class="x" x1="289.5392" y1="202.2428" x2="334.4129" y2="202.2428"/><line class="ab" x1="327.9449" y1="164.9337" x2="360.634" y2="164.9337"/><line class="ab" x1="327.9449" y1="170.8381" x2="343.8409" y2="170.8381"/><line class="y" x1="291.1998" y1="168.3595" x2="317.8944" y2="168.3595"/><path class="r" d="M382.6932,138.8143h89.918a1.3626,1.3626,0,0,1,1.3626,1.3626V231.88a1.3627,1.3627,0,0,1-1.3627,1.3627H382.6932a1.3626,1.3626,0,0,1-1.3626-1.3626V140.1769A1.3626,1.3626,0,0,1,382.6932,138.8143Z"/><path class="s" d="M381.3306,146.3639h92.6433v-5.9767a1.5727,1.5727,0,0,0-1.5723-1.5729H382.9029a1.5726,1.5726,0,0,0-1.5723,1.5729Z"/><line class="ac" x1="470.989" y1="141.2889" x2="468.3896" y2="143.8893"/><line class="ac" x1="470.989" y1="143.8893" x2="468.3896" y2="141.2889"/><path class="u" d="M451.1,144.7535H390.2344a2.164,2.164,0,0,1-2.1635-2.1644h0a2.164,2.164,0,0,1,2.1635-2.1644H451.1a2.164,2.164,0,0,1,2.1634,2.1644h0A2.164,2.164,0,0,1,451.1,144.7535Z"/><rect class="ad" x="388.0709" y="188.6309" width="46.7893" height="34.2662"/><polygon class="w" points="411.541 207.397 388.071 188.631 434.86 188.631 411.541 207.397"/><polygon class="w" points="411.541 169.865 388.071 188.631 434.86 188.631 411.541 169.865"/><polyline class="ad" points="434.86 222.897 411.541 199.533 388.071 222.897"/><path class="j" d="M434.86,222.897c-4.0321-3.7486-7.9871-7.5743-11.93-11.4119-1.9856-1.9047-3.9215-3.859-5.88-5.79l-5.8617-5.8092.7053.0012-5.8985,5.81c-1.9729,1.93-3.9183,3.8874-5.9171,5.7913l-5.9661,5.7421c-2.0146,1.888-4.0048,3.8-6.0408,5.667,1.8758-2.0274,3.7973-4.009,5.6944-6.015l5.7691-5.94c1.9129-1.99,3.8792-3.9267,5.8181-5.8908l5.8366-5.8721a.4966.4966,0,0,1,.7022-.0023l.0034.0034,5.7977,5.873c1.9277,1.9625,3.8782,3.9022,5.7791,5.8915C427.3014,214.8953,431.1194,218.8576,434.86,222.897Z"/><rect class="v" x="388.0709" y="154.8904" width="79.1626" height="7.5647"/><line class="ae" x1="467.2335" y1="168.3595" x2="429.7192" y2="168.3595"/><line class="ae" x1="467.2335" y1="176.1506" x2="429.7192" y2="176.1506"/><line class="ae" x1="467.2335" y1="183.9416" x2="443.8944" y2="183.9416"/><line class="ae" x1="467.2335" y1="191.7328" x2="443.8944" y2="191.7328"/><line class="ae" x1="467.2335" y1="199.5239" x2="443.8944" y2="199.5239"/><line class="ae" x1="467.2335" y1="207.3149" x2="443.8944" y2="207.3149"/><line class="ae" x1="467.2335" y1="215.106" x2="443.8944" y2="215.106"/><line class="ae" x1="467.2335" y1="222.897" x2="443.8944" y2="222.897"/><line class="af" x1="282.9095" y1="449.2253" x2="303.1814" y2="449.2253"/><line class="af" x1="449.5532" y1="449.2253" x2="469.8251" y2="449.2253"/><path class="ag" d="M395.6773,110.225H356.9716a.8658.8658,0,0,1,0-1.7315h38.7057a.8658.8658,0,0,1,0,1.7315Z"/><path class="ag" d="M349.7725,110.225h-7.1378a.8658.8658,0,0,1,0-1.7315h7.1378a.8658.8658,0,0,1,0,1.7315Z"/><g class="ah"><polygon class="ai" points="428.505 52.043 259.988 510.192 300.703 510.192 469.22 52.043 428.505 52.043"/><polygon class="aj" points="484.367 52.043 315.849 510.192 336.616 510.192 505.133 52.043 484.367 52.043"/></g><path class="ak" d="M655.3241,241.1134,627.3686,246.8l-32.0618-17.4641-7.2424,5.2657s23.5147,24.4268,35.2435,29.5783c8.054,3.5376,41.5524-4.1331,41.5524-4.1331"/><path class="al" d="M677.7524,238.05a63.8153,63.8153,0,0,0-17.9643.3651c-6.4852,1.1047-19.3139,5.3416-19.3139,5.3416l4.6284,22.8625,29.6574-5.268"/><path class="ak" d="M665.2955,457.4068l2.081,29.1541s-16.8836,11.3122-16.8836,11.4932,13.7968.6788,13.7968.6788l6.1067-2.9866h10.1187a1.0889,1.0889,0,0,0,1.0612-1.3312l-1.2422-5.4486.4579-23.3087"/><path class="am" d="M651.4866,496.014c2.1728-1.2634,9.6714-5.9955,9.6714-5.9955l9.1932,5.7277H681.88V500h-11.89v-2.5511h-1.0414a1.2178,1.2178,0,0,0-.7312.244l-2.6108,1.96a1.7338,1.7338,0,0,1-1.0407.3471H650.4929C648.5929,500,648.1677,497.9438,651.4866,496.014Z"/><polygon class="am" points="673.423 496.547 681.083 491.82 680.673 490.018 672.362 495.759 673.423 496.547"/><path class="an" d="M657.76,308.1115s-7.5082,11.7438-7.5082,46.1277c0,23.5534,8.0552,124.2845,8.0552,124.2845h28.1207s.691-100.1379.691-112.2891c0-24.1167,5.7594-42.5091,3.032-54.9208"/><line class="ao" x1="657.6696" y1="472.8294" x2="686.2768" y2="472.8294"/><path class="ak" d="M704.8172,457.4068l2.0809,29.1541s-16.8835,11.3122-16.8835,11.4932,13.7968.6788,13.7968.6788l6.1067-2.9866h10.1187a1.0888,1.0888,0,0,0,1.0611-1.3312l-1.2422-5.4486.458-23.3087"/><path class="am" d="M691.0083,496.014c2.1727-1.2634,9.6714-5.9955,9.6714-5.9955l9.1932,5.7277h11.5284V500h-11.89v-2.5511h-1.0415a1.2182,1.2182,0,0,0-.7312.244l-2.6108,1.96a1.7337,1.7337,0,0,1-1.0406.3471H690.0146C688.1145,500,687.6892,497.9438,691.0083,496.014Z"/><polygon class="am" points="712.944 496.547 720.605 491.82 720.194 490.018 711.883 495.759 712.944 496.547"/><path class="an" d="M675.751,313.5979l23.9532,164.9258h26.4s-3.6823-118.257-7.194-134.0755c-5.9077-26.6128-12.7717-30.8824-16.3065-36.7255"/><path class="ao" d="M686.9984,391.04S680.2,339.4238,675.751,307.961"/><path class="ao" d="M670.5681,309.1177s2.7815,14.9084,4.0545,16.1819a20.357,20.357,0,0,0,4.0546,2.6825"/><path class="ao" d="M690.8841,309.1177s5.067,9.7391,16,11.5371"/><path class="ao" d="M653.9387,318.55s9.0007.1077,11.0123-8.8222"/><line class="ao" x1="698.7611" y1="472.8294" x2="725.7589" y2="472.8294"/><path class="ao" d="M723.6438,478.07s-.88-81.872-8.02-129.98a88.4783,88.4783,0,0,0-17.7868-41.64"/><line class="ao" x1="684.6738" y1="375.0342" x2="683.1483" y2="478.5237"/><path class="al" d="M660.1487,252.3851c-6.2778,9.0987-11.8565,14.7655-4.0978,28.37,1.6021,18.5926,1.4572,27.6492,1.4572,27.6492s16.7676,7.9245,45.0955-.6813c0,0,11.2448-42.81,7.7028-46.2389s-35.3081-27.2648-35.3081-27.2648l-12.1329,9.6872Z"/><rect class="ag" x="662.4016" y="269.8935" width="33.9424" height="45.4733" transform="translate(-48.9766 163.4523) rotate(-13.246)"/><path class="ap" d="M666.6456,268.6631h15.7059a1.0639,1.0639,0,0,1,1.0639,1.0639v2.0276a0,0,0,0,1,0,0H665.5817a0,0,0,0,1,0,0v-2.0277A1.0639,1.0639,0,0,1,666.6456,268.6631Z" transform="translate(-43.9684 161.736) rotate(-13.2458)"/><path class="ap" d="M673.2332,264.8288a2.5008,2.5008,0,1,0,3.1886,1.8113A2.5973,2.5973,0,0,0,673.2332,264.8288Zm.8413,3.5773a1.1846,1.1846,0,1,1,.97-1.4418A1.23,1.23,0,0,1,674.0745,268.4061Z"/><path class="ak" d="M677.05,293.8119s-6.948-1.8733-9.2883-2.5621a13.2386,13.2386,0,0,0-3.3443-.6926c-.32-.0068-.812-.0272-.82.4217-.0089.4755.98,1.0446,1.3018,1.3216a.5792.5792,0,0,1,.229.337.43.43,0,0,1-.2641.4138,1.2588,1.2588,0,0,1-.5134.0869c-.7563.0214-1.5111.0434-2.2646.0292q-.13-.6064-.2605-1.2129a2.0456,2.0456,0,0,0-1.2054,1.5031c-.2293,1.0783.7968,1.6667,1.6443,1.9457-.3686-.0069-1.2074.5025-1.2172.8711a1.0821,1.0821,0,0,0,.5423.9065,5.8813,5.8813,0,0,0,1.37.3513s-1.1615.14-1.2009.76a1.1625,1.1625,0,0,0,.0862.5921,1.3215,1.3215,0,0,0,.8252.5714c.589.1945.9563.3487.9563.3487a.845.845,0,0,0-.528.8943c0,.5791.6009,1.1166,1.4086,1.2857,2.0779.4352,3.8661.6528,5.9728.8917a30.2082,30.2082,0,0,0,5.868,0"/><path class="ak" d="M712.6661,260.0464s14.6646,36.9246,6.9332,46.4033-47.3274-4.6147-47.3274-4.6147l3.3255-7.9292,26.3874-1.7038-7.0886-26.547"/><path class="al" d="M677.05,237.4371s17.8649.7006,27.6095,7.8242,16.2092,30.8737,16.2092,30.8737l-23.8072,7.2764-4.9831-20.3738"/><line class="aq" x1="697.0611" y1="283.4114" x2="692.4971" y2="264.7512"/><path class="aq" d="M652.7382,265.2629a39.9456,39.9456,0,0,1,6.8353-12.0418,9.34,9.34,0,0,0,2.09-6.7285"/><path class="ak" d="M596.5158,230.6186c-2.0586-1.8766-5.7113-7.4337-7.77-9.31-1.2138-1.1065-3.4364-2.9344-3.9333-2.5758-1.2771.9225,2.8193,3.3975,2.1717,3.8651-.393.2837-2.9534-2.1789-4.2715-3.4373-1.1759-1.1226-2.8853-2.4971-3.61-2.0408-.9312.5864,5.7044,6.84,5.7044,6.84s-7.1906-6.318-7.94-5.7767c-1.08.78,6.1432,7.15,6.1432,7.15s-6.204-5.29-7.0034-4.7125,3.8288,4.36,5.5142,6.1831c-1.4438-1.0512-4.9733-4.1274-5.556-3.7065s1.7885,3.02,2.43,3.6011c3.8762,3.5123,12.0853,9.7667,12.0853,9.7667"/><path class="ar" d="M591.1357,230.2653a10.3306,10.3306,0,0,1-3.3849-6.2461"/><path class="ak" d="M678.598,226.7985l3.2209,11.8529s-.8155,4.71-6.923,5.35c-4.3574.4562-4.3776-3.9463-4.3776-3.9463l.4579-12.4584"/><path class="ak" d="M669.0687,210.1742c-5.8843,5.2671-11.6687,19.528-2.9655,21.7285a12.79,12.79,0,0,0,15.1347-7.8891C684.3229,215.8487,674.9531,204.9072,669.0687,210.1742Z"/><path class="ar" d="M670.8062,232.2227a14.5646,14.5646,0,0,0,6.1738-2.64"/><path class="as" d="M668.2946,219.0125a.8072.8072,0,1,1-.7611-.8513A.8074.8074,0,0,1,668.2946,219.0125Z"/><path class="as" d="M666.75,216.5225a3.52,3.52,0,0,1,2.6643.4039,3.2923,3.2923,0,0,1,.8916.8471,6.7382,6.7382,0,0,1,.5985,1.0878.1219.1219,0,0,0,.2256-.0611,3.0164,3.0164,0,0,0-1.4879-2.2636,3.3309,3.3309,0,0,0-2.969-.2928.1447.1447,0,0,0,.0769.2787Z"/><path class="ak" d="M664.86,217.2906s-4.6951,4.1217-4.4091,4.8987c.4726,1.2836,2.3433,1.3876,2.3433,1.3876"/><path class="p" d="M667.2888,226.3117l-4.4442-1.877s-.7962,3.6066.6556,4.248C666.3191,229.9273,667.2888,226.3117,667.2888,226.3117Z"/><path class="at" d="M687.9882,206.89c-3.3673-3.2566-7.2673-3.5066-11.6352-2.2046a2.1321,2.1321,0,0,1-1.0818.1364,3.0125,3.0125,0,0,1-.6847-.3255,5.6221,5.6221,0,0,0-3.72-.1769,10.3329,10.3329,0,0,0-4.762,1.9629,6.0966,6.0966,0,0,0-2.1163,4.5535,3.72,3.72,0,0,0,2.27,3.513c.6251.3319,4.1882,1.52,4.6455.4462a2.19,2.19,0,0,0,.77,2.44,4.9373,4.9373,0,0,0,2.555.904,1.451,1.451,0,0,1,.7562.2316,1.3215,1.3215,0,0,1,.3685.662c.59,1.8788.371,3.8594.4753,5.7942.0913,1.6915.6181,3.4471-.16,5.0531-1.1121,2.2961-2.9776,4.78-.614,7.07.88.852,2.0185,1.5943,2.3037,2.7856.2248.9392-.1431,1.9917.2784,2.8605a3.48,3.48,0,0,0,2.4787,1.47,32.7626,32.7626,0,0,0,8.03,1.2978,11.37,11.37,0,0,0,7.5559-2.5606,3.6473,3.6473,0,0,0,1.4545-3.0228c-.1224-.8955-.7695-1.6683-.8207-2.5707-.0616-1.0848.7378-2.0117,1.0551-3.051.8222-2.6929-1.6117-4.45-1.4907-6.9364.0586-1.2029.7764-2.2911.8855-3.4906.2153-2.3674-1.9014-3.92-2.9813-5.7787a25.1353,25.1353,0,0,1-1.8-3.051c-.5158-1.2738-.64-2.6715-1.1977-3.9316A13.0969,13.0969,0,0,0,687.9882,206.89Z"/><path class="ak" d="M673.174,223.3326a2.275,2.275,0,0,1,2.9508-.4043c1.4054.95,1.3917,2.95.6495,4.475a2.8676,2.8676,0,0,1-2.94,1.9335c-.8841-.1089-1.49-1.2436-1.2732-2.6023"/><path class="ak" d="M504.32,340.1c-1.376,2.9009-2.0683,10.3569-2.122,13.0167-.0318,1.5683.081,4.33.7668,4.522,1.7637.4934.7862-4.1011,1.68-3.8511.5426.1518.365,3.5314.2817,5.2657-.0742,1.5474.0392,3.6542.982,3.971,1.2116.4073,1.5615-8.28,1.5615-8.28s.0163,9.159,1.0512,9.4484c1.4915.4171,1.4951-8.7966,1.4951-8.7966s.1529,7.813,1.2567,8.1217.54-5.5886.831-7.9252c.1906,1.7185.8465,6.74,1.6425,6.4864.71-.2264.6747-3.6171.7468-4.4408a41.51,41.51,0,0,0-1.105-13.9377"/><path class="au" d="M505.3053,352.1531c.4981-1.4414,1.0938-2.751,1.6022-4.0942a20.7132,20.7132,0,0,0,1.2058-4.1529,5.0433,5.0433,0,0,1,.2687,2.2806,8.8,8.8,0,0,1-.542,2.2318,10.7179,10.7179,0,0,1-1.0494,2.0165A7.9041,7.9041,0,0,1,505.3053,352.1531Z"/><path class="an" d="M503.3143,333.675c0,.5452-.711,8.5557-.711,8.5557l15.0944,3.2818,1.0278-7.3042"/><path class="ap" d="M537.9206,232.2327s-24.972,5.3537-28.2065,11.8015c-5.9509,11.8632-4.8489,37.8211-5.8311,46.5206-1.5462,13.6962-2.6562,47.3747-2.6562,47.3747l19.2662,3.3287s6.4348-31,7.8249-42.92c1.4007-12.0093,3.9123-48.2048,3.9123-48.2048"/><path class="ak" d="M545.7816,463.0532l-1.6065,24.8654.0891,8.71-29.8611,2.137c-.8249,0-1.1131-2.6662-.5365-2.8882l18.5129-7.8752-2.41-23.06"/><path class="av" d="M545.2027,489.276s.2361-2.0241-.7179-2.0241-1.0209.9073-2.0027,1.1649c-1.8713.4912-6,.0521-9.6564-1.2233-.4474-.1561-.3621-1.886-1.7063-1.886s-1.0654,2.0744-2.4739,2.7345-12.4723,6.2137-15.4723,7.5083c-2.5436,1.0975-4.2646,4.45.1879,4.45h32.5147a.6971.6971,0,0,0,.6971-.6973v-1.9808A59.543,59.543,0,0,0,545.2027,489.276Z"/><path class="ag" d="M510.613,498.1422h35.96a0,0,0,0,1,0,0V500a0,0,0,0,1,0,0H511.1991a.5861.5861,0,0,1-.5861-.5861v-1.2717A0,0,0,0,1,510.613,498.1422Z"/><path class="ap" d="M524.0825,490.6313a4.9253,4.9253,0,0,1,.4925.3851c.1675.1473.326.3048.4808.4653q.1135.1179.2207.2417.0561.065.11.1313l.0489.0607c.0125.0157.0437.0556.0154.0189a3.8661,3.8661,0,0,0,.249.3058c.035.037.068.0764.1039.1126a.5654.5654,0,0,0,.2108.128c.1538.061.2929-.0912.3016-.23a.7667.7667,0,0,0-.1219-.3924,1.9149,1.9149,0,0,0-.2227-.326,6.0663,6.0663,0,0,0-.4665-.5225,5.7959,5.7959,0,0,0-1.139-.8645.2813.2813,0,0,0-.2839.4857Z"/><path class="ap" d="M525.69,489.0717a12.6121,12.6121,0,0,1,1.2459,1.3776,8.2758,8.2758,0,0,1,.5106.7267,3.03,3.03,0,0,0,.5707.7683c.1368.1109.4148.0571.3938-.1631a1.2976,1.2976,0,0,0-.1546-.4918,3.3569,3.3569,0,0,0-.2469-.4146,9.7491,9.7491,0,0,0-.6306-.8,7.27,7.27,0,0,0-1.4853-1.2664c-.1593-.105-.3424.1338-.2036.2638Z"/><path class="ak" d="M587.9856,463.0532l2.9241,24.8654.089,8.71-29.861,2.137c-.8249,0-1.1131-2.6662-.5365-2.8882l18.5129-7.8752-6.941-23.06"/><path class="av" d="M591.9373,489.276s.2361-2.0241-.7179-2.0241-1.0209.9073-2.0027,1.1649c-1.8713.4912-6,.0521-9.6565-1.2233-.4473-.1561-.362-1.886-1.7063-1.886s-1.0653,2.0744-2.4738,2.7345-12.4724,6.2137-15.4723,7.5083c-2.5436,1.0975-4.2646,4.45.1879,4.45H592.61a.6971.6971,0,0,0,.6971-.6973v-1.9808A59.543,59.543,0,0,0,591.9373,489.276Z"/><path class="ag" d="M557.3475,498.1422h35.96a0,0,0,0,1,0,0V500a0,0,0,0,1,0,0H557.9336a.5861.5861,0,0,1-.5861-.5861v-1.2717A0,0,0,0,1,557.3475,498.1422Z"/><path class="ap" d="M570.8171,490.6313a4.9368,4.9368,0,0,1,.4925.3851c.1674.1473.326.3048.4807.4653q.1137.1179.2207.2417.0561.065.11.1313l.049.0607c.0124.0157.0436.0556.0154.0189a3.8648,3.8648,0,0,0,.2489.3058c.0351.037.0681.0764.104.1126a.5658.5658,0,0,0,.2107.128c.1539.061.293-.0912.3017-.23a.7665.7665,0,0,0-.122-.3924,1.9092,1.9092,0,0,0-.2227-.326,6.0663,6.0663,0,0,0-.4665-.5225,5.7952,5.7952,0,0,0-1.1389-.8645.2813.2813,0,0,0-.2839.4857Z"/><path class="ap" d="M572.4247,489.0717a12.601,12.601,0,0,1,1.2458,1.3776,8.2557,8.2557,0,0,1,.5107.7267,3.03,3.03,0,0,0,.5707.7683c.1368.1109.4148.0571.3938-.1631a1.2976,1.2976,0,0,0-.1546-.4918,3.3569,3.3569,0,0,0-.2469-.4146,9.7491,9.7491,0,0,0-.6306-.8,7.2682,7.2682,0,0,0-1.4854-1.2664c-.1592-.105-.3423.1338-.2035.2638Z"/><path class="ag" d="M543.0846,303.0682s-2.7009,20.7165,0,39.6315c7.0845,44.4251,27.308,139.5743,27.308,139.5743h29.31s-8.6148-102.2458-10.7706-136.3786c-.652-10.3213-1.0962-23.14-16.028-38.133"/><path class="ag" d="M516.6692,307.7624c-9.42,61.8373,3.8977,174.5116,3.8977,174.5116H549.85l4.05-132.6312s7.1173-31.09.2148-45.3736"/><path class="aw" d="M552.5276,394.6031s-7.784-54.3972-7.784-75.99"/><path class="aw" d="M539.953,318.613s1.9982,18.9439,5.8286,18.9439"/><path class="aw" d="M595.156,482.274,582.1116,345.8954s-3.832-20.61-16.0279-38.133"/><line class="aw" x1="545.7816" y1="482.3475" x2="550.1691" y2="377.7784"/><path class="an" d="M572.0979,245.5358c-2.8509-12.5584-5.1479-11.0883-16.0784-13.7929a82.8476,82.8476,0,0,0-11.9842-.3067c-1.9738.1608-2.9891.33-6.1147.7965-4.5424,4.2057-17.8679,16.6253-19.4922,35.5341-1.2717,14.8058-1.5332,52.1382-1.5332,52.1382s38.8506,3.4324,63.1842-2.1062C580.0794,302.8745,576.2486,263.8211,572.0979,245.5358Z"/><path class="ap" d="M556.02,231.7429c-4.2738,16.6361-2.27,49.2376.5109,100.2247,9.7516-1.06,28.8281-3.1729,28.8281-3.1729s-2.5135-69.4437-5.2791-75.7474C575.1416,241.7931,556.02,231.7429,556.02,231.7429Z"/><path class="ap" d="M537.9206,232.2327s-6.846,8.142-4.0919,101.4423c-7.5617,0-16.8073-1.4292-21.7685-3.62-1.2515-40.2053,4.1428-83.5818,4.1428-83.5818Z"/><path class="ax" d="M512.06,330.0554s2.35-64.5812,3.0323-74.0815"/><rect class="ay" x="552.3347" y="298.143" width="34.2383" height="49.0149" transform="translate(17.7226 674.7493) rotate(-62.0806)"/><path class="ag" d="M539.1388,308.8383h16.94a1.1471,1.1471,0,0,1,1.1471,1.1471v2.1851a0,0,0,0,1,0,0H537.9917a0,0,0,0,1,0,0v-2.1851A1.1471,1.1471,0,0,1,539.1388,308.8383Z" transform="translate(16.8371 648.986) rotate(-62.0803)"/><path class="ag" d="M542.346,307.7132a2.6957,2.6957,0,1,0,3.7327-1.3034A2.8015,2.8015,0,0,0,542.346,307.7132Zm3.5,1.856a1.2769,1.2769,0,1,1-.4816-1.8106A1.3259,1.3259,0,0,1,545.8455,309.5692Z"/><path class="ak" d="M575.16,327.5772l-3.2462,6.0859s-3.604,1.3087-5.106,3.7316a28.4609,28.4609,0,0,1-1.6392,2.3362l-2.4913-1.1923s-.3153,3.534.46,4.3218a3.0822,3.0822,0,0,0,1.9912.4109,1.3865,1.3865,0,0,0,1.83,1.6337c-.7418,1.3316.93,2.548,2.3415,1.136-.13,1.4772,1.41,1.9759,2.854,1.5673a9.6628,9.6628,0,0,0,5.08-3.5324c1.0078-1.6981,2.2446-4.21,2.2446-4.21l3.2244-6.0133"/><polyline class="an" points="573.017 327.854 571.177 332.181 588.361 342.364 592.238 332.89"/><path class="au" d="M565.3982,339.76c-.1574.3159-.3355.6093-.471.922a2.6519,2.6519,0,0,0-.3.86c-.0055.0533.0178.0826.0142.0492l.1331.1127a1.1765,1.1765,0,0,0,.3385.2173,1.0939,1.0939,0,0,0,.7389.0039,5.3326,5.3326,0,0,0,1.5637-1.046,18.1067,18.1067,0,0,1,1.5925-1.324,12.94,12.94,0,0,1-1.1743,1.7335,4.2543,4.2543,0,0,1-1.7491,1.349,1.771,1.771,0,0,1-1.27-.0743,1.8547,1.8547,0,0,1-.4909-.3839,1.3472,1.3472,0,0,1-.2167-.2615.6183.6183,0,0,1-.058-.4479A3.628,3.628,0,0,1,565.3982,339.76Z"/><path class="ap" d="M565.8116,259.1541c3.57,8.6128,13.0357,36.3293,13.0357,36.3293l-6.9889,34.27,22.3672,11.2353s12.4927-35.1695,12.4927-45.2319-11.9784-38.8747-20.8616-51.48c-6.9448-9.8551-22.8066-11.3785-29.8372-12.5334"/><polyline class="ax" points="576.208 308.424 578.42 295.483 566.678 262.339"/><path class="ak" d="M539.7941,224.6933l-1.281,8.5744s.0166,3.5792,6.7339,3.2492c5.3632-.2636,8.1469-2.3166,9.1594-3.2674a1.3094,1.3094,0,0,0,.39-1.0953l-1.6381-15.5336"/><path class="az" d="M535.9422,211.9237c.0588-.4949-.4918-.8657-.9892-.8882a2.2342,2.2342,0,0,0-1.8084.9518,4.8817,4.8817,0,0,0-.7892,1.9563,3.9218,3.9218,0,0,0-.0268,1.9549,2.4,2.4,0,0,0,2.7757,1.5649"/><path class="ak" d="M538.215,202.8542s-6.8389,14.6523-5.1982,18.2125c2.4576,5.3327,10.2875,7.137,14.0134,5.5628,3.125-1.3206,7.2043-10.708,7.6682-13.2533C555.9581,206.4675,542.5125,199.8815,538.215,202.8542Z"/><path class="ba" d="M562.4868,206.3332a13.0913,13.0913,0,0,0-4.971-8.9772,6.601,6.601,0,0,0-4.0252-1.6448c-1.2207.0146-2.4223.55-3.6292.3673a8.12,8.12,0,0,1-2.8046-1.3517,13.4147,13.4147,0,0,0-7.7327-1.8584,4.9,4.9,0,0,0-2.8351.9175c-2.8082,2.3241-.8027,6.8147,1.1888,8.9771,2.8116,3.0527,7.3141,3.7835,11.1107,4.9479a5.95,5.95,0,0,1,2.2423,1.05c1.6381,1.4344,1.2359,4.0348.728,6.1524a8.4818,8.4818,0,0,0,.3637,5.5349c.4017,1.1065,1.4075,3.315,2.0379,4.6042,1.2254-2.4934,3.2083-4.5161,4.8851-6.7308A17.0228,17.0228,0,0,0,562.4868,206.3332Z"/><path class="ar" d="M538.7435,226.0873s4.1288,1.3051,7.4325.3134c3.1789-.9542,4.8472-4.4091,4.8472-4.4091"/><path class="ak" d="M550.1434,216.6369a2.9973,2.9973,0,0,1,2.2963-.8606,2.6456,2.6456,0,0,1,1.4408,1.2138c1.6047,2.6414-1.3841,6.5789-4.3916,5.5347-1.1039-.3834-.52-1.8306-.52-1.8306"/><path class="ar" d="M540.407,211.3459s-2.9207,3.0984-3.087,3.9666,2.0468,1.7388,2.0468,1.7388"/><path class="ba" d="M544.2384,213.3793a.5813.5813,0,1,0,.8028-.4644A.6693.6693,0,0,0,544.2384,213.3793Z"/><path class="ba" d="M536.2667,209.95a.5814.5814,0,1,0,.8028-.4645A.669.669,0,0,0,536.2667,209.95Z"/><path class="ba" d="M548.3991,211.2394q-.067-.3189-.15-.6338a.4076.4076,0,0,0-.3483-.3582,10.3563,10.3563,0,0,0-2.2653-.4609,4.9379,4.9379,0,0,0-1.1066-.0394c-.4614.0685-.398.0857-.3175.5562a.279.279,0,0,0,.0472.1326.2843.2843,0,0,0,.2188.0705,9.5741,9.5741,0,0,1,3.7162.8947c.06.0283.1383.0549.1869.0093C548.421,211.3718,548.4129,211.3058,548.3991,211.2394Z"/><path class="ba" d="M536.5618,206.972q.227-.2126.4614-.4125a.5191.5191,0,0,1,.1878-.1184.3589.3589,0,0,1,.2291.0372,6.7959,6.7959,0,0,1,1.6133.9421,3.4162,3.4162,0,0,1,.679.6065c.2333.32.1856.2971-.1385.621a.2784.2784,0,0,1-.1059.0772c-.0658.0193-.1227-.0272-.171-.0705a6.2754,6.2754,0,0,0-2.7281-1.4366c-.0522-.0125-.1142-.0368-.1163-.1A.2151.2151,0,0,1,536.5618,206.972Z"/><path class="p" d="M535.9147,218.0217l6.9576,2.3082s-1.7656,3.4633-5.1256,2.3485C534.76,221.6878,535.9147,218.0217,535.9147,218.0217Z"/><path class="at" d="M206.123,216.0264a23.9081,23.9081,0,0,0-8.0738,4.9326c-2.96,2.9242-2.0538,5.0195-3.2223,8.2362-1.2769,3.5151-5.13,5.2773-7.4667,7.9851-3.4708,4.0226-3.5593,10.3034-.9457,14.93s7.5,7.667,12.6521,8.9589a18.8625,18.8625,0,0,0,12.8574-.9281c3.9059-1.9315,6.7627-5.5631,8.59-9.52a57.6275,57.6275,0,0,0,3.6206-12.5337"/><path class="ak" d="M172.669,259.3344l-14.4815,14.8341-40.3643,31.0494,7.5485,7.6655s40.5818-18.2619,45.5231-21.8031c6.7274-4.8213,20.7068-19.8168,20.7068-19.8168"/><path class="an" d="M207.3169,238.8406s-16.3138,1.276-23.3188,6.9976c-7.0475,5.7563-17.3982,18.2164-17.3982,18.2164l15.494,18.7044,12.897-14.4867"/><path class="ak" d="M121.9031,302.7008c-2.3868,1.1727-6.9132,3.0862-9.3,4.2589-1.4075.6915-3.8085,2.0591-3.6642,2.7568.3712,1.794,4.0031-1.1832,4.1914-.2737.1141.552-2.9687,1.945-4.5473,2.6669-1.4084.644-3.2272,1.7117-3.0759,2.6951.1942,1.2638,8.07-2.4115,8.07-2.4115s-8.1268,4.2175-7.9088,5.27c.3141,1.517,8.4985-2.7079,8.4985-2.7079s-6.8687,3.7214-6.6363,4.8442,5.2113-2.0845,7.42-2.8983c-1.4387.958-5.5976,3.8456-5.0069,4.4366.5269.527,3.522-1.06,4.2868-1.3742a41.4764,41.4764,0,0,0,11.871-7.3782"/><path class="ar" d="M122.2121,306.7613s-2.9822,2.9053-6.1937,2.3423"/><polyline class="ak" points="249.142 464.22 249.408 486.605 248.675 496.736 238.473 486.686 233.829 461.644"/><path class="an" d="M237.4543,485.6813s-3.2448,6.4246-4.3154,8.217a5.6814,5.6814,0,0,0-.7937,3.5083h19.668c1.1162-2.6739-2.6048-11.7253-2.6048-11.7253S242.49,486.6277,237.4543,485.6813Z"/><rect class="ap" x="232.3452" y="496.2843" width="19.8877" height="3.7157"/><path class="bb" d="M240.4036,490.2768a7.7191,7.7191,0,0,1,5.7071,0"/><path class="bb" d="M240.4036,492.1687a7.7171,7.7171,0,0,1,5.7071,0"/><path class="bb" d="M240.6,488.5667c1.3951-.5011,3.7517-.8867,5.3137,0"/><path class="ap" d="M203.4526,499.3246v-1.918H178.47a3.4439,3.4439,0,0,1-2.9559-1.6774l-.2137-.0384v3.0843a.4516.4516,0,0,0,.1221.3089l.0737.0785a2.6506,2.6506,0,0,0,1.9334.8375h25.348A.6752.6752,0,0,0,203.4526,499.3246Z"/><path class="ak" d="M202.4918,464.22l-.0328,22.9582-.7336,9.557h-24.03a1.4465,1.4465,0,0,1-1.4462-1.4468h0a1.447,1.447,0,0,1,.9266-1.35L191.036,487.26l-2.359-26.7372"/><path class="an" d="M190.7886,485.8262l-14.4645,8.0721a1.8246,1.8246,0,0,0-1.0239,1.6935h0a1.9877,1.9877,0,0,0,1.9141,1.8148h26.2383l-.7713-10.4657S197.5217,489.6153,190.7886,485.8262Z"/><path class="bb" d="M187.7329,487.642a17.6576,17.6576,0,0,1,2.1276,3.5314"/><path class="bb" d="M185.8555,488.7781a15.5346,15.5346,0,0,1,1.75,3.003"/><path class="bb" d="M184.2681,489.6088a21.713,21.713,0,0,1,1.5874,2.7559"/><path class="ap" d="M194.512,296.703l-6.6042,6.2715c-1.2022,4.43-10.7838,15.083-11.8061,48.789-1.1309,37.2806,5.3785,115.3823,5.3785,115.3823h27.3472l2.6739-132.6169-.4238-48.2513"/><path class="ap" d="M232.8672,300.214c2.5067,6.16,11.3743,19.1527,15.6238,36.9734,6.5806,27.596,5.2864,129.9584,5.2864,129.9584H229.4119L206.0838,333.9681s-1.8482-11.8047-1.8482-31.4792"/><path class="ax" d="M211.2064,363.2128c-1.871-6.9214-5.75-42.522-6.9708-60.7239"/><path class="ax" d="M224.5165,300.214a84.4713,84.4713,0,0,1,16.4665,35.233c3.4618,17.5469,10.48,131.6988,10.48,131.6988"/><path class="ax" d="M214.3513,302.4889s3.19,10.5325,19.2687,11.9624"/><path class="ax" d="M183.0767,313.4328s11.2822-6.2012,13.4-10.9439"/><path class="ax" d="M199.6566,304.1171s1.1225,16.8083,2.5673,18.2536,4.4148,1.7966,4.4148,1.7966"/><path class="ax" d="M206.8087,466.064s1.2326-98.5394,2.0268-117.6524"/><polygon class="bc" points="209.64 470.714 180.252 470.714 180.41 463.384 209.531 463.384 209.64 470.714"/><polygon class="bc" points="254.996 470.714 228.361 470.714 227.705 463.384 254.666 463.384 254.996 470.714"/><path class="an" d="M237.99,254.0469c-3.2806-4.8831-20.341-14.7043-20.341-14.7043a77.0907,77.0907,0,0,0-12.1408-.3167s-9.183,7.6594-15.3661,16.5066c-5.151,5.1532-7.1668,9.0936-7.0613,14.4211.0719,3.6408,1.8687,6.7457,2.9289,12.2789,1.1486,5.994,1.8983,20.742,1.8983,20.742,10.3316,3.757,31.0242,3.3513,46.01-.4856C235.3631,288.5464,241.27,258.93,237.99,254.0469Z"/><path class="ao" d="M190.1419,255.5325c-5.151,5.1532-7.1668,9.0936-7.0613,14.4211.0719,3.6408,1.3167,5.562,2.1939,9.1189"/><path class="ao" d="M207.3169,269.1163l1.4384-25.9075Z"/><path class="bd" d="M211.07,250.8376a.4882.4882,0,1,1-.4881-.4884A.4884.4884,0,0,1,211.07,250.8376Z"/><circle class="bd" cx="210.0934" cy="259.3115" r="0.4883"/><path class="bd" d="M210.0934,267.7855a.4882.4882,0,1,1-.4882-.4883A.4882.4882,0,0,1,210.0934,267.7855Z"/><path class="ak" d="M247.1149,257.8964s19.2417,19.569,23.27,22.5225c3.9211,2.8747,37.983,23.1376,37.983,23.1376l-2.57,9.6289s-43.6805-14.4174-49.5878-18.36c-8.2116-5.48-28.7049-25.8776-28.7049-25.8776"/><path class="an" d="M218.1872,239.5506A72.5825,72.5825,0,0,1,236.5,245.43c6.0416,3.0731,19.6976,17.8327,19.6976,17.8327l-17.23,18.7179-18.4139-15.9516"/><line class="ao" x1="236.3868" y1="279.7448" x2="225.341" y2="270.176"/><path class="ak" d="M303.2282,300.97c2.5489.758,7.3308,1.8894,9.88,2.6473,1.503.4471,4.0983,1.3948,4.0724,2.1069-.067,1.8309-4.1442-.4987-4.1782.43-.0206.5632,3.2513,1.4223,4.9282,1.8707,1.4959.4,3.4674,1.1493,3.4822,2.1441.0192,1.2787-8.3587-1.0312-8.3587-1.0312s8.716,2.8024,8.6767,3.8768c-.0568,1.5481-8.831-1.2518-8.831-1.2518s7.3929,2.5229,7.3509,3.6688-5.4278-.8428-7.741-1.2767c1.5782.7045,5.8368,2.0964,5.8062,2.9318s-3.2971.1906-4.1035.0087a43.57,43.57,0,0,1-13.4748-5.6781"/><path class="ar" d="M303.6,305.0251s3.4248,2.367,6.4975,1.2762"/><path class="ak" d="M206.0676,230.5769l-.6154,9.0357s-1.6513,3.5586,5.1294,3.7562a7.4152,7.4152,0,0,0,7.0672-4.0262L214.6917,225.37"/><path class="ak" d="M198.0019,210.5625c-1.6359,5.8037-3.4583,17.7534,3.2792,21.2566,1.5509.8066,3.8625.59,6.1934-.4555,5.05-2.2661,8.2-6.4045,8.9842-10.0234C217.4437,216.7942,205.0492,200.6033,198.0019,210.5625Z"/><path class="at" d="M222.1285,208.7287a6.4234,6.4234,0,0,1,.7667,4.0359c-.2076,1.32-.8649,2.5249-1.2024,3.8177a3.7528,3.7528,0,0,0,.7192,3.739,6.4322,6.4322,0,0,0,2.02.9883c3.9035,1.5525,7.1208,5.69,8.7447,9.8279,1.5351,3.9117,1.3967,8.8964.6192,13.0261A107.1372,107.1372,0,0,0,219.1629,239.8a7.9076,7.9076,0,0,1-1.9735-2.6277L214.6917,225.37s-3.08-8.5829-3.4627-8.707c-4.4273-1.4355-7.0987-4.5895-7.58-6.0754-2.0419,1.1515-5.81,3.2222-7.2612,5.0637a6.8552,6.8552,0,0,1,5.2161-10.3682c2.8111-.2627,5.3442-2.39,8.64-2.3472A16.37,16.37,0,0,1,219,205.3728,9.3467,9.3467,0,0,1,222.1285,208.7287Z"/><path class="ar" d="M201.9152,219.5516s-2.2568,3.79-1.7618,4.6177,2.4579.4045,2.4579.4045"/><path class="ba" d="M207.0486,219.5746a1.56,1.56,0,0,1,.0949.1619,2.6169,2.6169,0,0,1,.1732,1.2217c.0158.6923-1.1422.6339-1.0874-.0766a4.3,4.3,0,0,1,.2559-1.3118C206.6524,219.1682,206.8846,219.3325,207.0486,219.5746Z"/><path class="ba" d="M199.12,218.6537a1.62,1.62,0,0,1,.0618.1771,2.6167,2.6167,0,0,1-.066,1.2322c-.1179.6824-1.2429.4012-1.052-.2854a4.3168,4.3168,0,0,1,.5042-1.2377C198.81,218.1784,199.0056,218.3842,199.12,218.6537Z"/><path class="ba" d="M210.5806,219.067a2.1316,2.1316,0,0,0-.1605-.8187,3.042,3.042,0,0,0-1.19-1.3952,2.6285,2.6285,0,0,0-1.8264-.3833,1.6215,1.6215,0,0,0-.58.2467,1.2719,1.2719,0,0,0-.1729.16s.0917.0115.2236.0164a2.5244,2.5244,0,0,1,.5181.1176,6.1147,6.1147,0,0,1,1.3439.6435,11.1719,11.1719,0,0,1,1.2442.904c.157.1427.33.2538.4239.3626A1.8242,1.8242,0,0,0,210.5806,219.067Z"/><path class="ba" d="M200.7947,216.7067a1.1686,1.1686,0,0,0-.0724-.1616,1.1184,1.1184,0,0,0-.3271-.3527,1.7234,1.7234,0,0,0-1.4017-.21,1.8971,1.8971,0,0,0-1.1223.813,1.3006,1.3006,0,0,0-.1939.6107,1.6659,1.6659,0,0,0,.1645-.0622c.0885-.0483.2383-.0857.3843-.1409.2993-.1064.6562-.2228,1.0072-.3108a5.2844,5.2844,0,0,1,.9925-.1887A2.9436,2.9436,0,0,1,200.7947,216.7067Z"/><path class="ar" d="M212.13,228.4867s-1.5482,2.568-6.18,3.8221"/><path class="ak" d="M212.2645,222.2313a2.2131,2.2131,0,0,1,3.3771-1.4441,2.0458,2.0458,0,0,1,.7047,1.45,4.8851,4.8851,0,0,1-1.2342,3.841,2.8157,2.8157,0,0,1-1.2137.829,1.7279,1.7279,0,0,1-2.2609-1.7608"/><path class="at" d="M216.39,204.9505c-1.4213-.2058-2.1057-1.918-2.033-3.3531.2228-4.3993,4.4915-6.3328,7.952-3.5469a6.0741,6.0741,0,0,1,2.09,5.8456,4.0208,4.0208,0,0,1-.9173,1.9188c-1.4946,1.6209-4.2135,1.13-6.0927-.0225"/><path class="p" d="M200.0005,226.2588h6.495s-.5194,3.4054-3.6562,3.4054C200.0516,229.6642,200.0005,226.2588,200.0005,226.2588Z"/><polygon class="p" points="217.189 237.172 208.755 243.209 212.121 249.032 219.262 239.932 217.189 237.172"/><polygon class="p" points="205.55 237.425 208.755 243.209 206.227 248.455 203.248 239.321 205.55 237.425"/><path class="ak" d="M132.87,267.2439l9.2107,23.2492,22.1307,35.6588-8.8339,8.45s-29.0048-26.132-32.8247-33.013c-5.2084-9.3822-13.7754-34.3452-13.7754-34.3452"/><polyline class="ar" points="149.192 301.951 142.081 290.493 140.596 287.7"/><path class="ak" d="M162.6,324.7594c1.995,1.793,5.87,4.8565,7.8654,6.6495,1.1763,1.0573,3.3361,3.21,2.7788,3.7893-1.0918,1.1359-3.5783-2.1576-4.0329-1.2129-.2758.5734,2.337,2.7572,3.6724,3.8849,1.1914,1.006,2.66,2.5609,2.22,3.5938-.5656,1.3276-7.2058-4.378-7.2058-4.378s6.726,6.3482,6.2,7.4416c-.7583,1.5759-7.5388-4.7929-7.5388-4.7929s5.6384,5.5353,5.0772,6.7016-4.497-3.3987-6.4235-4.7637c1.1281,1.353,4.3538,5.3922,3.5986,5.9037-.6736.4562-3.1966-1.856-3.8-2.4266a144.9148,144.9148,0,0,1-11.7712-13.187"/><path class="ar" d="M167.2574,333.7364a11.163,11.163,0,0,1-6.1422-2.9713"/><path class="ap" d="M105.2031,229.063s16.5528,1.9068,23.5595,16.2617a151.5644,151.5644,0,0,1,10.32,28.757l-32.1981,11.3"/><path class="am" d="M100.9243,499.3454v-1.8588h26.2108A3.3381,3.3381,0,0,0,130,495.8607l.2071-.0372v2.9893a.4367.4367,0,0,1-.1184.2994l-.0713.0761a2.5692,2.5692,0,0,1-1.8739.8117h-26.565A.6544.6544,0,0,1,100.9243,499.3454Z"/><path class="ak" d="M101.0976,463.318l.7076,23.8344.7931,9.6837H127.886a1.402,1.402,0,0,0,1.4018-1.4024h0a1.4023,1.4023,0,0,0-.8981-1.3087l-13.1791-7.952,1.5452-23.3479"/><path class="ap" d="M115.2106,486.173l14.0042,7.9131a1.7684,1.7684,0,0,1,.9924,1.6415h0a1.9266,1.9266,0,0,1-1.8553,1.759H100.9243l.85-10.6465S108.6846,489.8456,115.2106,486.173Z"/><path class="be" d="M117.8335,486.8149a17.0985,17.0985,0,0,0-2.0621,3.4226"/><path class="be" d="M119.653,487.9161a15.0379,15.0379,0,0,0-1.6956,2.9106"/><path class="be" d="M121.1916,488.7211a21.0653,21.0653,0,0,0-1.5386,2.671"/><path class="am" d="M21.7208,483.7566l1.0412-1.54,21.7087,14.6943a3.3369,3.3369,0,0,0,3.2836.26l.1923.0855-1.6744,2.4758a.4368.4368,0,0,1-.2658.1816l-.1017.0229a2.5679,2.5679,0,0,1-2.0067-.3782L21.896,484.6655A.6547.6547,0,0,1,21.7208,483.7566Z"/><path class="ak" d="M39.3581,451.3266,29.28,474.1518l-4.7674,8.465L45.457,496.7936a1.4014,1.4014,0,0,0,1.9465-.3756h0a1.4029,1.4029,0,0,0-.0108-1.5875l-6.4611-13.9746,11.6712-21.1592"/><path class="ap" d="M40.9316,480.8559l7.1663,14.405A1.769,1.769,0,0,1,48,497.1767h0a1.9254,1.9254,0,0,1-2.5218.4167L22.762,482.217l6.6678-8.341S33.4694,480.2391,40.9316,480.8559Z"/><path class="be" d="M42.7445,482.8579a17.0929,17.0929,0,0,0-3.625,1.6789"/><path class="be" d="M43.6347,484.79A15.03,15.03,0,0,0,40.6,486.25"/><path class="be" d="M44.458,486.32a21.0158,21.0158,0,0,0-2.77,1.35"/><path class="bf" d="M128.5243,316.95s3.0851,75.939,2.6835,86.9121C129.8042,442.2174,125,478.6484,125,478.6484H93.4009l1.0309-71.41L89.3143,355.907s-6.6207-28.9194-.2-42.2064"/><line class="bg" x1="93.1406" y1="470.8314" x2="125.2982" y2="470.8314"/><path class="bg" d="M98.0364,478.6484s2.224-42.8589,1.6164-75.1842c-.3015-16.0377-3.0982-22.421-3.0982-26.7525"/><path class="bf" d="M102.1354,312.5836s2.5124,19.27,0,36.865c-1.1521,8.0678-6.2049,35.9024-13.6705,63.68-8.8156,32.8-30.1242,65.52-30.1242,65.52L31.0374,463.3843l19.9164-56.1474,5.8713-54.8157S54.2928,333.25,65.6373,316.95"/><line class="bg" x1="62.2203" y1="472.3296" x2="33.7446" y2="455.7522"/><path class="bg" d="M35.8306,466.064s19.0779-52.16,21.6642-60.5414c.6815-2.2082,5.01-36.6208,6.741-50.5128a37.1843,37.1843,0,0,0,.081-9.0162,34.0406,34.0406,0,0,1,5.1884-21.8263"/><path class="bg" d="M81.12,331.7934s-5.0965,5.42-6.5143,5.7534c-3.5943.8462-10.1,0-10.1,0"/><path class="bg" d="M101.4176,348.4116s3.721-1.4577,4.7228-4.2423c2.011-5.59,2.011-17.9425,2.011-17.9425"/><path class="bg" d="M93.1557,394.438s10.7221-53.455,10.7221-68.2112"/><path class="bg" d="M128.7626,337.5468s-7.431-2.1861-9.5311-3.1683c-2.6663-1.2471-2.8877-8.1517-2.8877-8.1517"/><path class="ap" d="M106.112,229.7431a55.0562,55.0562,0,0,1,22.6506,40.598c1.9111,26.45,2.443,57.8484,2.443,57.8484-31.11,10.0078-72.9715-.3436-72.9715-.3436s3.7053-69.7609,16.3832-90.3716l22.63-10.5349Z"/><path class="ak" d="M54.32,253.611s-12.8768,27.488-12.4418,37.5351c.663,15.3155,17.1121,51.1058,17.1121,51.1058s11.5182-2.594,11.4476-4.2234-6.9811-45.8265-6.9811-45.8265l15.6552-34.4309"/><path class="ak" d="M69.8389,336.551c.9688,2.5019,3.04,6.9877,4.0089,9.49.5712,1.4752,1.5244,4.372.7653,4.6369-1.4873.5191-2.216-3.5433-3.0486-2.9065-.5052.3865.8379,3.5166,1.5191,5.1265.6078,1.4363,1.2147,3.4876.3551,4.21-1.1046.9281-4.4475-7.1651-4.4475-7.1651s3.129,8.7051,2.1653,9.4422c-1.3888,1.0624-4.5569-7.6858-4.5569-7.6858s2.5262,7.488,1.4984,8.2743-2.4742-5.066-3.5753-7.155c.3945,1.7171,1.4453,6.779.5406,6.8935-.807.1022-2.012-3.1016-2.2923-3.8836A144.9538,144.9538,0,0,1,58.2341,338.74"/><path class="ap" d="M93.6281,227.4772s-20.314.4848-29.8993,9.23c-12.1991,11.13-18.6079,32.4094-18.6079,32.4094l25.2406,10.6285L84.78,254.735"/><line class="bh" x1="70.3615" y1="279.7448" x2="82.4232" y2="258.8231"/><path class="bh" d="M108.1514,229.648s0,5.5795-8.4987,5.5795c-9.9088,0-12.486-6.7558-12.486-6.7558"/><path class="ak" d="M105.4044,217.303,94.649,204.6566l-4.32,12.471-.2815,2.7347.3875,9.625s8.6431,6.185,15.1726,1.1105a1.4433,1.4433,0,0,0,.53-1.2306l-.7331-12.0642"/><path class="ak" d="M102.9647,195.7208c3.5388,3.9375,10.1755,17.7572,7.21,23.2187-2.68,4.9362-8.2779,4.7866-11.8491,3.1248-3.0985-1.4416-11.4543-13.4064-9.6974-18.2671S98.0026,190.2,102.9647,195.7208Z"/><path class="am" d="M85.99,194.3558c.3251-.8688.6-1.7624.9521-2.6206A6.21,6.21,0,0,1,90.0773,188.1c1.5308-.6026,3.64.1563,3.9337,1.7756a10.2528,10.2528,0,0,1,11.6341-4.3729c4.0105,1.31,4.454,6.11,2.8232,9.6215-1.4788,3.1838-5.1653,4.546-7.9874,6.6328-4.6913,3.469-4.0094,7.207-6.2191,11.99-.1648.3568-3.6536,7.35-4.0675,6.9881-4.8354-4.2281-13.8777-12.0354-8.9562-19.7043,1.1-1.7131,2.7954-2.9868,3.8473-4.73A11.5942,11.5942,0,0,0,85.99,194.3558Z"/><path class="ar" d="M105.2031,222.9485s-5.14.6073-8.1243-2.0328"/><path class="ak" d="M106.8845,205.6242s6.0987,3.2365,5.9319,4.7409-2.48,1.8389-2.48,1.8389"/><path class="am" d="M104.9161,205.6985a4.0708,4.0708,0,0,1,.5591.869.6505.6505,0,0,1-.5378.9332c-.8268.1336-1.5541-1.6105-.6246-1.9564A.5475.5475,0,0,1,104.9161,205.6985Z"/><path class="p" d="M108.6223,214.3043l-5.9816,1.1854s1.8292,4.0839,5.2878,3.0586C110.0307,217.925,108.6223,214.3043,108.6223,214.3043Z"/><path class="am" d="M105.1946,203.79A10.4554,10.4554,0,0,0,102.12,206.28c-.149-.0029-.7348-.403-.7267-.8185a7.64,7.64,0,0,1,3.18-2.7058S105.3474,203.5247,105.1946,203.79Z"/><path class="ak" d="M95.4455,211.79c-.857-.583-1.9093-1.1959-2.7984-.8392a1.7285,1.7285,0,0,0-.9348,1.0748,4.9068,4.9068,0,0,0,3.0913,6.1552c1.0529.2884,2.205.0782,2.4063-1.1707l-1.3377-4.72C95.84,212.075,95.6331,211.9182,95.4455,211.79Z"/><path class="ar" d="M93.6024,217.6242s2.1154,1.1774,3.4664-.1472"/><path class="bh" d="M128.7626,277.7036s-.6035-19.9058-4.2381-27.7624"/><polyline class="ak" points="363.977 464.22 361.825 486.605 361.091 496.736 348.717 485.681 348.664 461.644"/><path class="ag" d="M348.7168,485.6813s-16.1252,6.4246-17.1957,8.217a5.6811,5.6811,0,0,0-.7938,3.5083h31.3946c1.1162-2.6739-.2972-11.7253-.2972-11.7253S353.7526,486.6277,348.7168,485.6813Z"/><rect class="bf" x="330.7273" y="496.2843" width="31.6142" height="3.7157"/><path class="bb" d="M340.673,489.4392a9.699,9.699,0,0,1,3.0622,3.6525"/><path class="bb" d="M342.65,488.475a9.7,9.7,0,0,1,3.062,3.6524"/><path class="bb" d="M344.6277,487.6131a9.7,9.7,0,0,1,3.0621,3.6523"/><polyline class="ak" points="421.184 464.22 421.451 486.605 420.717 496.736 409.497 485.681 405.871 461.644"/><path class="ag" d="M409.4969,485.6813s-3.2448,6.4246-4.3153,8.217a5.6811,5.6811,0,0,0-.7938,3.5083h19.668c1.1163-2.6739-2.6048-11.7253-2.6048-11.7253S414.5327,486.6277,409.4969,485.6813Z"/><rect class="bf" x="404.3878" y="496.2843" width="19.8877" height="3.7157"/><path class="bb" d="M412.4462,490.2768a7.7191,7.7191,0,0,1,5.7071,0"/><path class="bb" d="M412.4462,492.1687a7.7171,7.7171,0,0,1,5.7071,0"/><path class="bb" d="M412.6429,488.5667c1.3951-.5011,3.7517-.8867,5.3137,0"/><path class="bf" d="M354.2656,309.8888c-1.18,1.606-9.16,59.4846-10.4111,89.615-1.5108,36.39-2.8534,80.5819-2.8534,80.5819h29.2945l9.0159-79.04,10.3107-47.9047s3.08-28.0581-4.4587-52.5435"/><path class="bf" d="M418.6967,309.8888c2.5292,3.4435,10.9568,170.1969,10.9568,170.1969H400.3588L383.34,353.1407s-3.08-28.0581,4.4588-52.5435"/><path class="bg" d="M385.708,371.3266s-3.0005-33.0732-3.0005-47.1593"/><path class="bg" d="M377.0005,324.7594s.7786,14.5506,1.7906,19.1466c.4451,2.0208,4.8817,1.6065,4.8817,1.6065"/><path class="bg" d="M426.5133,480.0857S417.8184,333.2106,413.0886,318.55"/><path class="bg" d="M400.8256,322.65s2.8015,7.4474,4.9534,9.6,9.35,1.4856,9.35,1.4856"/><path class="bg" d="M367.0174,480.0857s6.7521-73.5861,7.6319-78.89c.5728-3.4525,10.4444-36.9891,10.4444-36.9891"/><path class="bg" d="M350.65,331.981s5.5962,1.6019,7.19.27c2.18-1.8221,6.05-8.0835,6.05-8.0835"/><path class="ak" d="M341.2524,248.6925l-8.4386,10.3931L313.6,238.6551s-7.9625,2.5229-8.23,6.1735c8.3044,13.4054,19.21,37.7452,30.5926,36.321,9.7434-1.219,26.6812-25.3029,26.6812-25.3029"/><path class="ar" d="M332.8138,259.0856a46.8043,46.8043,0,0,1,7.0334,9.31"/><path class="ag" d="M378.7911,223.9232s-11.7014-4.5-23.18,2.3258c-7.2355,4.3027-13.0714,15.5677-19.9634,27.5423,2.8017,4.6958,18.2445,15.2266,22.69,15.4264,5.2582-6.7179,10.9336-24.416,10.9336-24.416"/><path class="ak" d="M306.7317,245.8427c-3.1266-1.5645-5.2634-4.72-6.4328-8.0154a6.4313,6.4313,0,0,1-.4238-1.9874,4.1855,4.1855,0,0,1,5.0053-4.2009,7.3356,7.3356,0,0,1,3.9515,2.8509c.9749,1.1872,1.8952,2.6684,1.5463,4.1646"/><path class="ag" d="M309.7169,222.8954a64.26,64.26,0,0,1-8.012,7.84c-1.4614,1.19-3.4376,2.0029-4.739,3.365-1.0308,1.0788-.6635,1.3761.4284,2.2178a20.2424,20.2424,0,0,0,4.8016,2.702,1.9236,1.9236,0,0,0,.9771.1962,1.8377,1.8377,0,0,0,.7971-.3955,18.5317,18.5317,0,0,0,3.0576-3.0566c2.3479-2.799,6.9352-7.8138,8.8571-10.9209"/><path class="an" d="M320.5611,227.8486a4.5624,4.5624,0,1,1-.4287-6.6784A4.7353,4.7353,0,0,1,320.5611,227.8486Z"/><path class="bi" d="M312.0856,229.1749l-5.2957-4.0987,8.4262-10.7211,5.5632,4.8548a1.47,1.47,0,0,1,.13,1.8993c-1.885,3.3669-3.9443,6.1646-6.9249,7.9361C313.3451,229.4249,312.6455,229.6635,312.0856,229.1749Z"/><path class="ag" d="M313.0362,221.3966c-2.3831,2.9267-5.2269,4.5562-6.3517,3.6395s-.1048-4.0324,2.2784-6.9591,5.2269-4.556,6.3517-3.6394S315.4194,218.47,313.0362,221.3966Z"/><path class="an" d="M289.5311,219.5063s11.5325,2.3214,17.2163,4.5616c2.0769.4775,4.3913-1.9893,5.5665-3.46,3.0327-3.7949,2.6232-5.4087,2.6232-5.4087-4.5687-5.4567-8.25-16.6881-8.25-16.6881"/><path class="bi" d="M302.1085,212.28c-5.5593,6.8035-13.0619,9.8687-16.7576,6.8463s-2.1848-10.9878,3.3745-17.7911,13.0618-9.8687,16.7575-6.8464S307.6678,205.4762,302.1085,212.28Z"/><path class="ag" d="M300.4765,210.9822c-4.7021,5.7543-10.889,8.4767-13.8191,6.08s-1.4935-9.0036,3.2085-14.7579,10.889-8.4766,13.8191-6.08S305.1785,205.2278,300.4765,210.9822Z"/><path class="bj" d="M292.0694,208.24a34.09,34.09,0,0,1,5.5529,5.7166,25.8863,25.8863,0,0,0,5.2-6.3641,34.0868,34.0868,0,0,1-6.7042-4.3075Z"/><path class="p" d="M295.4444,206.8668c-1.129,1.3817-2.649,2.0073-3.3948,1.3974s-.4354-2.2246.6937-3.6063,2.649-2.0073,3.3948-1.3973S296.5734,205.4852,295.4444,206.8668Z"/><path class="ak" d="M314.0284,240.4363a16.2686,16.2686,0,0,0-3.5746-8.8755c-1.8334-2.1376-3.6547-4.01-6.4569-3.74-.3823.0367-.8578.2267-.8423.6106a.8066.8066,0,0,0,.3992.5518,7.4165,7.4165,0,0,1,3,3.9639,17.12,17.12,0,0,1,.2041,2.6226,8.34,8.34,0,0,0,3.13,5.8263"/><path class="ak" d="M298.6284,232.6717a3.7925,3.7925,0,0,1-.01-1.5295,1.838,1.838,0,0,1,.5364-.6478.9035.9035,0,0,1,.722-.1484,2.0914,2.0914,0,0,1,.6945.2981,3.8986,3.8986,0,0,1,1.9471,2.577.3807.3807,0,0,1-.0085.205.329.329,0,0,1-.1159.131,1.7051,1.7051,0,0,1-.9842.304c-.7994,0-2.1465-1.3339-2.2431-1.5442"/><path class="ak" d="M299.8592,231.382a4.52,4.52,0,0,1,.2313-1.6633,1.2109,1.2109,0,0,1,.3513-.5827.9037.9037,0,0,1,.7219-.1486,2.0954,2.0954,0,0,1,.6944.2983,3.8981,3.8981,0,0,1,1.9471,2.5769.38.38,0,0,1-.0084.205.3286.3286,0,0,1-.1159.1311,1.1463,1.1463,0,0,1-.9842.1227,3.39,3.39,0,0,1-.9062-.4752l-.9413-.6219a1.2581,1.2581,0,0,1-.492-.4763"/><path class="ak" d="M301.1457,230.0236a4.52,4.52,0,0,1,.2315-1.6633,1.21,1.21,0,0,1,.3511-.5827.9038.9038,0,0,1,.7219-.1486,2.0942,2.0942,0,0,1,.6945.2983,3.8988,3.8988,0,0,1,1.9472,2.5769.3806.3806,0,0,1-.0085.205.3281.3281,0,0,1-.1158.131,1.1465,1.1465,0,0,1-.9844.1228,3.3936,3.3936,0,0,1-.9061-.4751l-.9413-.622a1.2584,1.2584,0,0,1-.4921-.4763"/><path class="ak" d="M302.4324,228.6652a4.52,4.52,0,0,1,.2313-1.6633,1.2121,1.2121,0,0,1,.3512-.5828.9035.9035,0,0,1,.722-.1484,2.0882,2.0882,0,0,1,.6944.2982,3.8978,3.8978,0,0,1,1.9471,2.577.3783.3783,0,0,1-.0084.2049.3284.3284,0,0,1-.1159.131,1.1456,1.1456,0,0,1-.9842.1226,3.3838,3.3838,0,0,1-.9062-.475q-.4707-.3108-.9413-.6219a1.257,1.257,0,0,1-.492-.4764"/><path class="ar" d="M306.8855,234.1606s.0127,5.5411,1.7057,7.2349"/><path class="ag" d="M351.7061,241.4809l-3.5537,82.6864s42.8083,11.2186,75.8585-1.5169c-.63-18.1486-3.5493-67.4685-17.0162-84.503-14.6144-18.4862-26.4884-17.733-26.4884-17.733l-13.9988,8.6288Z"/><path class="bk" d="M350.7494,263.7405s.9567-13.1887.9567-22.26"/><path class="ak" d="M462.3749,251.8864l-4.09-8.9089s11.54-13.0055,12.1648-12.6133c1.2805.8035-3.5556,6.3563-3.5556,6.3563s6.0449-5.6277,6.3768-4.9926c.594,1.1359-4.5173,7.2875-4.5173,7.2875s5.5647-5.7232,5.9086-4.7819-6.7635,9.9031-6.7635,9.9031Z"/><path class="ak" d="M456.791,243.2376l2.0518-1.9031a37.1738,37.1738,0,0,1,3.8993-6.4c2.0782-2.5433,2.8489-3.2835,3.3884-3.0884s-1.147,4.1435-1.147,4.1435-.48,4.2336-2.745,6.2822"/><path class="ak" d="M427.8168,248.6925l8.4385,10.3931,22.03-17.234s6.6452,5.0416,6.9124,8.6922c-8.3044,13.4054-20.7087,32.03-32.0912,30.6058-9.7435-1.219-26.6811-25.3029-26.6811-25.3029"/><path class="ar" d="M436.2553,259.0856a46.8,46.8,0,0,0-7.0332,9.31"/><path class="ak" d="M463.34,252.6063s7.4509-8.2214,8.6-9.8806,4.3093-5.6457,3.5-5.9383-4.2947,3.1423-5.047,3.9752c-1.93.2779-5.8552,2.3392-6.842,5.1554"/><path class="ag" d="M385.47,222.2012s16.51-2.7784,27.9887,4.0478c7.2356,4.3027,13.0713,15.5677,19.9633,27.5423-2.8016,4.6958-18.2445,15.2266-22.6894,15.4264-5.2582-6.7179-10.9336-24.416-10.9336-24.416"/><line class="bk" x1="410.7325" y1="269.2177" x2="400.8256" y2="247.8367"/><path class="ar" d="M464.7281,237.3666a6.8662,6.8662,0,0,1-.3418,5.7185"/><path class="at" d="M377.6607,185.4705c-8.9691.5932-10.9388,10.5086-10.24,18.1213.4368,4.7528,2.8346,9.4921,6.57,11.115,3.1757,1.38,6.9128,1.4645,10.3628,1.1729,1.1215-.0947,2.418-1.5852,3.452-2.0308,4.1369-1.7827,6.9886-7.2257,7.4882-10.6765.57-3.9369.7119-9.2459-1.33-12.7747-1.6439-2.8414-7.3153-2.06-10.4047-3.1666"/><path class="bl" d="M370.1677,202.0063a1.8982,1.8982,0,0,0-2.53.014,3.4941,3.4941,0,0,0-.7246,3.0711c.3089,1.5649,1.7308,3.2486,3.4893,2.7247a2.1739,2.1739,0,0,0,1.4116-1.3564"/><path class="bl" d="M389.8772,202.4826a2.5072,2.5072,0,0,1,.2067-.1992,1.5833,1.5833,0,0,1,2.1143.3254,2.9028,2.9028,0,0,1,.5188,2.2457,3.8228,3.8228,0,0,1-1.0928,2.3139,2.55,2.55,0,0,1-2.4069.6477,2.1739,2.1739,0,0,1-1.4116-1.3564"/><path class="ak" d="M372.997,212.4307l8.9565-12.1773,4.7247,11.049.793,11.58c-3.09,6.6276-12.7731,5.1251-14.3585,1.2356l-.1157-11.6871"/><path class="ak" d="M370.2987,194.2294c-1.7447,4.494-1.0973,20.5206,2.4335,22.5947s11.2917,1.572,13.7974-.9947c2.174-2.2268,5.593-15.6835,2.5308-19.256S372.7452,187.9279,370.2987,194.2294Z"/><path class="at" d="M393.3733,188.2838c-1.7-2.3705-3.993-3.9947-7.0817-3.5085-1.8862-1.8869-2.67-2.2422-5.5832-2.8029a14.75,14.75,0,0,0-10.2283,1.6544c-4.5081,2.6777-5.5247,7.31-5.7946,12.2036a28.5436,28.5436,0,0,0,18.0632-2.3032c.1306,1.965,7.95,9.2448,10.0019,11.4278C397.0831,199.9318,396.0851,192.0657,393.3733,188.2838Z"/><path class="ar" d="M374.9983,217.9557s7.205,1.0384,10.4716-1.485"/><path class="ar" d="M378.3274,203.0412s-1.9306,4.6867-1.1748,5.8388,2.7716.4685,2.7716.4685"/><path class="bm" d="M382.5657,202.9944a3.6941,3.6941,0,0,0-.174.9246.5921.5921,0,0,0,.7733.6028c.7432-.1708.7594-1.8913-.1434-1.8645A.4986.4986,0,0,0,382.5657,202.9944Z"/><path class="bm" d="M372.4129,202.5684a3.6987,3.6987,0,0,0-.174.9246.5921.5921,0,0,0,.7733.6028c.7432-.1707.7592-1.8913-.1434-1.8645A.4987.4987,0,0,0,372.4129,202.5684Z"/><path class="p" d="M375.2283,211.4277l6.367-.1615s.6135,3.7245-3.2046,3.6337A3.1127,3.1127,0,0,1,375.2283,211.4277Z"/><path class="bm" d="M381.77,200.6813a9.5161,9.5161,0,0,1,3.4462,1.0457.98.98,0,0,0,.3325-.94,6.9553,6.9553,0,0,0-3.6094-1.1922S381.55,200.5094,381.77,200.6813Z"/><path class="bm" d="M374.1189,200.4294a4.6631,4.6631,0,0,0-2.4557.49,1.1563,1.1563,0,0,1-.17-.8681,3.4136,3.4136,0,0,1,2.5671-.6059S374.2705,200.2971,374.1189,200.4294Z"/></g></svg>