<svg xmlns="http://www.w3.org/2000/svg" xmlns:xlink="http://www.w3.org/1999/xlink" viewBox="0 0 750 500"><defs><style>.a{fill:url(#a);}.b{fill:url(#b);}.ab,.ad,.af,.ah,.ai,.al,.an,.ap,.ar,.at,.aw,.ay,.c,.e,.h,.j,.r,.v,.w,.z{fill:none;}.d{clip-path:url(#c);}.e,.h,.j{stroke:#adbbf9;}.ah,.al,.ay,.e,.h{stroke-linejoin:round;}.ad,.ai,.ar,.e,.h,.j,.r,.v,.w{stroke-width:1.1368px;}.e{stroke-dasharray:3.9789 3.9789;}.f{fill:#e4e9f9;}.g{fill:#fff;}.i{fill:#adbbf9;}.ab,.ad,.af,.ai,.an,.ap,.ar,.at,.aw,.j,.r,.v,.w,.z{stroke-miterlimit:10;}.k{clip-path:url(#f);}.l{mask:url(#g);}.m{fill:url(#h);}.n{clip-path:url(#i);}.o{mask:url(#j);}.p{fill:url(#k);}.q{fill:#d3dbf4;}.r{stroke:#fff;}.s{fill:#e3eafc;}.t{fill:#f0f1ff;}.u{fill:#c2cfef;}.v{stroke:#d3dbf4;}.w{stroke:#849cf4;}.x{fill:#ffcbbd;}.y{fill:#f7471e;}.z{stroke:#b22b19;}.ab,.an,.ap,.aw,.z{stroke-width:0.8526px;}.aa{fill:#122852;}.ab{stroke:#121649;}.ac,.ax{fill:#ffcbbb;}.ad{stroke:#ef977f;}.ae{fill:#4a1a1a;}.af,.ai{stroke:#f7a794;}.af,.ah,.al,.at,.ay{stroke-width:0.5684px;}.ag{fill:#212237;}.ah{stroke:#212237;}.ah,.at,.ay{stroke-linecap:round;}.aj{fill:#ef977f;}.ak{fill:#0e32ae;}.al{stroke:#e88872;}.am{fill:#28364c;}.an,.at,.ay{stroke:#28364c;}.ao{fill:#b2d1ff;}.ap{stroke:#525bce;}.aq{fill:#f49c8e;}.ar{stroke:#0e32ae;}.as{fill:#e23917;}.au{fill:#e88872;}.av{fill:#18277a;}.aw{stroke:#5565aa;}.ax{fill-rule:evenodd;}.az{fill:#14122d;}</style><linearGradient id="a" x1="-644.8432" y1="-1.9918" x2="-643.7064" y2="-1.9918" gradientTransform="matrix(413.9364, 0, 0, -413.9364, 267066.6907, -538.0346)" gradientUnits="userSpaceOnUse"><stop offset="0" stop-color="#1a1a1a"/><stop offset="0.2704" stop-color="#1a1a1a"/><stop offset="1" stop-color="#4d4d4d"/></linearGradient><linearGradient id="b" x1="-644.8228" y1="-2.0795" x2="-643.686" y2="-2.0795" gradientTransform="matrix(396.6453, 0, 0, -396.6453, 255966.0472, -538.3958)" xlink:href="#a"/><clipPath id="c"><rect class="c" x="-52.2411" y="-23.8689" width="852.6111" height="568.4074"/></clipPath><clipPath id="f"><path class="c" d="M410.75,87.4105,265.7487,481.4555a11.1509,11.1509,0,0,0,8.558,3.9891H312.54L459.01,87.4105Z"/></clipPath><mask id="g" x="66.7317" y="-9.2198" width="591.2948" height="591.2948" maskUnits="userSpaceOnUse"><rect class="a" x="153.3248" y="77.3733" width="418.1086" height="418.1086" transform="translate(-96.3965 340.1334) rotate(-45)"/></mask><linearGradient id="h" x1="-644.8432" y1="-1.9918" x2="-643.7064" y2="-1.9918" gradientTransform="matrix(413.9364, 0, 0, -413.9364, 267066.6907, -538.0346)" gradientUnits="userSpaceOnUse"><stop offset="0" stop-color="#fff"/><stop offset="0.2704" stop-color="#fff"/><stop offset="1" stop-color="#fff"/></linearGradient><clipPath id="i"><path class="c" d="M327.463,485.4446h20.4615L484.9983,112.94V98.5865a11.1743,11.1743,0,0,0-11.067-11.1749Z"/></clipPath><mask id="j" x="128.4465" y="8.644" width="555.5682" height="555.5682" maskUnits="userSpaceOnUse"><rect class="b" x="209.8076" y="90.0051" width="392.846" height="392.846" transform="translate(-83.5531 371.1412) rotate(-45)"/></mask><linearGradient id="k" x1="-644.8228" y1="-2.0795" x2="-643.686" y2="-2.0795" gradientTransform="matrix(396.6453, 0, 0, -396.6453, 255966.0472, -538.3958)" xlink:href="#h"/></defs><title>people</title><g class="d"><g class="d"><g class="d"><path class="e" d="M291.2845,403.6845c-6.55-22.6237-25.2873-40.0215-49.4537-40.6059-14.0522-.34-27.6837,5.69-39.6475,12.56-16.1553,9.2764-35.2015,20.4774-54.53,17.6615-12.3811-1.8041-27.05-8.7523-29.9551-23.1057-3.0751-15.1913,9.1991-25.61,22.3191-31.7206,11.2419-5.2361,27.013-17.7559,32.065-29.7413,20.0318-47.53-35.9825-101.779-20.1751-155.9494C168.4517,96.092,245.0571,86.5075,283.5667,125a111.9756,111.9756,0,0,1,10.2836,11.799c7.8588,10.4359,12.4823,24.6495,23.4059,32.4811,14.1476,10.1358,32.4731,6.8913,47.7087.8719,29.1161-11.5046,36.8158-19.0951,65.2827-31.4853,20.4764-8.9114,45.6966-16.8623,68.7012-8.9421,16.4849,5.6738,34.6921,15.8767,43.9117,30.6474,17.1443,27.4677,9.4458,57.0578,36.5486,96.1188,12.28,17.6968,31.7979,22.6579,47.3483,35.4447,40.3149,33.1518,26.8357,103.0387-17.1318,126.9538-36.103,19.6374-80.5546,15.1515-119.7065,10.1188q-4.5-.5781-8.9923-1.238"/><path class="f" d="M577.1069,146.0493a66.7862,66.7862,0,0,0,14.5467-27.5416l-13.4394-4.7644a52.4671,52.4671,0,0,0,1.2971-14.001l14.1056-2.194a67.2526,67.2526,0,0,0-9.19-29.7618L571.54,73.9276a52.4238,52.4238,0,0,0-8.965-10.8316l8.4124-11.5125a66.8061,66.8061,0,0,0-27.54-14.5456l-4.7654,13.4394a52.3611,52.3611,0,0,0-14-1.2971l-2.1952-14.1067a67.2882,67.2882,0,0,0-29.7607,9.1889l6.1411,12.888a52.4039,52.4039,0,0,0-10.8327,8.9661l-11.5126-8.4136a66.7815,66.7815,0,0,0-14.5443,27.5416l13.4394,4.7644a52.3707,52.3707,0,0,0-1.2983,14.0011l-14.1067,2.194a67.2865,67.2865,0,0,0,9.19,29.7607l12.8881-6.14a52.4288,52.4288,0,0,0,8.966,10.8316l-8.4146,11.5125a66.8175,66.8175,0,0,0,27.5427,14.5456l4.7633-13.4394a52.3847,52.3847,0,0,0,14.0021,1.2971l2.1929,14.1067a67.2721,67.2721,0,0,0,29.7618-9.19l-6.1411-12.8881a52.3623,52.3623,0,0,0,10.8316-8.9649Zm-65.9114-14.6a33.4449,33.4449,0,1,1,45.193-13.9543,33.4451,33.4451,0,0,1-45.193,13.9543m4.5212-8.5591a23.7646,23.7646,0,1,1,32.1115-9.9164,23.7662,23.7662,0,0,1-32.1115,9.9164"/><path class="f" d="M271.7563,178.4018a41.3664,41.3664,0,0,0,7.2631-17.8662l-8.5738-2.1065a32.4238,32.4238,0,0,0-.0637-8.7057l8.5557-2.2213a41.6439,41.6439,0,0,0-7.4973-17.77l-7.561,4.578a32.4046,32.4046,0,0,0-6.1922-6.1218l4.4734-7.6109a41.3549,41.3549,0,0,0-17.8639-7.2643l-2.1077,8.575a32.473,32.473,0,0,0-8.7057.0625l-2.2225-8.5545a41.653,41.653,0,0,0-17.77,7.4961l4.5779,7.5621a32.4623,32.4623,0,0,0-6.1206,6.1911l-7.611-4.4733a41.3521,41.3521,0,0,0-7.2642,17.865l8.5738,2.1077a32.4731,32.4731,0,0,0,.0637,8.7057l-8.5557,2.2225a41.6511,41.6511,0,0,0,7.4973,17.7684l7.561-4.578a32.4651,32.4651,0,0,0,6.1922,6.1206l-4.4734,7.6122a41.3531,41.3531,0,0,0,17.8651,7.2642l2.1065-8.575a32.4327,32.4327,0,0,0,8.7069-.0637l2.2213,8.5557a41.6519,41.6519,0,0,0,17.7695-7.4962l-4.5779-7.5621a32.4588,32.4588,0,0,0,6.1206-6.191Zm-41.51-4.9315a20.7087,20.7087,0,1,1,26.9834-11.384,20.7086,20.7086,0,0,1-26.9834,11.384m2.2577-5.5522a14.7145,14.7145,0,1,1,19.1735-8.0884,14.7145,14.7145,0,0,1-19.1735,8.0884"/><path class="f" d="M305.7919,99.5559a28.9946,28.9946,0,0,0,6.3048-11.9388l-5.8251-2.0656a22.7357,22.7357,0,0,0,.5616-6.07l6.1149-.9515a29.1593,29.1593,0,0,0-3.9834-12.8994l-5.5863,2.6613a22.6983,22.6983,0,0,0-3.8868-4.6951l3.647-4.9906a28.9814,28.9814,0,0,0-11.9377-6.3048l-2.0656,5.8262a22.6878,22.6878,0,0,0-6.0684-.5627l-.9515-6.115a29.1651,29.1651,0,0,0-12.9005,3.9834l2.6612,5.5864a22.7031,22.7031,0,0,0-4.695,3.8867L262.1905,61.26a28.9616,28.9616,0,0,0-6.3048,11.9377l5.8251,2.0656a22.73,22.73,0,0,0-.5616,6.0694l-6.115.95a29.1514,29.1514,0,0,0,3.9834,12.9006l5.5863-2.6613a22.71,22.71,0,0,0,3.8868,4.6951l-3.6469,4.9906a28.978,28.978,0,0,0,11.9377,6.3047l2.0656-5.8261a22.6507,22.6507,0,0,0,6.07.5627l.95,6.1149a29.162,29.162,0,0,0,12.9017-3.9834l-2.6624-5.5863a22.7042,22.7042,0,0,0,4.6951-3.8867Zm-26.6754-9.9187A10.438,10.438,0,1,1,293.221,85.282a10.4382,10.4382,0,0,1-14.1045,4.3552"/><path class="g" d="M168.4242,190.2231c-.0375-.7582-.1012-1.5642-.1956-2.4259-.78-7.0585-5.6158-6.4105-8.625-6.1957s-6.7515.3274-8.1907-2.9557c-.6264-1.429-.5991-3.1535-1.0106-4.6973a7.293,7.293,0,0,0-6.8641-5.4818c-2.908-.0068-5.6591,1.661-8.0419,3.7277-1.2379,1.0731-2.6328,2.33-4.1073,1.9257a4.411,4.411,0,0,1-2.27-2.1178c-3.4468-5.5954-3.4241-13.73-7.1983-18.9928-4.1664-5.8092-11.9479-5.9274-17.2159-1.7109s-8.2931,11.73-9.6732,19.3111c-.4479,2.4646-.8355,5.1668-2.3566,6.8493-2.1736,2.4032-5.501,1.6086-8.4011,1.2823-3.3661-.3774-6.9573.1717-9.689,2.6385a11.1952,11.1952,0,0,0-3.4025,8.8433Z"/><path class="h" d="M168.4242,190.2231c-.0375-.7582-.1012-1.5642-.1956-2.4259-.78-7.0585-5.6158-6.4105-8.625-6.1957s-6.7515.3274-8.1907-2.9557c-.6264-1.429-.5991-3.1535-1.0106-4.6973a7.293,7.293,0,0,0-6.8641-5.4818c-2.908-.0068-5.6591,1.661-8.0419,3.7277-1.2379,1.0731-2.6328,2.33-4.1073,1.9257a4.411,4.411,0,0,1-2.27-2.1178c-3.4468-5.5954-3.4241-13.73-7.1983-18.9928-4.1664-5.8092-11.9479-5.9274-17.2159-1.7109s-8.2931,11.73-9.6732,19.3111c-.4479,2.4646-.8355,5.1668-2.3566,6.8493-2.1736,2.4032-5.501,1.6086-8.4011,1.2823-3.3661-.3774-6.9573.1717-9.689,2.6385a11.1952,11.1952,0,0,0-3.4025,8.8433Z"/><path class="g" d="M363.1486,67.9528h95.6925s-3.8367-4.4609-8.1759-5.982c-5.4636-1.9143-7.7361,3.4617-11.1829-3.49-1.9337-3.9-3.2911-9.0354-8.3806-10.3688-7.96-2.085-9.9835,4.4938-13.7759,2.7158-3.33-1.5609-3.2263-7.8054-6.5867-13.0256-3.2843-5.1032-11.2908-8.2419-16.7521-5.5807-9.9779,4.8622-8.6819,12.5971-11.9491,15.147-3.2251,2.5157-10.6235-6.3435-18.8893,3.2365-5.6988,6.6049,0,17.3478,0,17.3478"/><path class="h" d="M363.1486,67.9528h95.6925s-3.8367-4.4609-8.1759-5.982c-5.4636-1.9143-7.7361,3.4617-11.1829-3.49-1.9337-3.9-3.2911-9.0354-8.3806-10.3688-7.96-2.085-9.9835,4.4938-13.7759,2.7158-3.33-1.5609-3.2263-7.8054-6.5867-13.0256-3.2843-5.1032-11.2908-8.2419-16.7521-5.5807-9.9779,4.8622-8.6819,12.5971-11.9491,15.147-3.2251,2.5157-10.6235-6.3435-18.8893,3.2365C357.45,57.21,363.1486,67.9528,363.1486,67.9528Z"/><path class="h" d="M463.0413,35.0733a4.2,4.2,0,1,1-4.1994-4.2005A4.2,4.2,0,0,1,463.0413,35.0733Z"/><path class="h" d="M739.7747,373.4945a4.2005,4.2005,0,1,1-4.1994-4.2005A4.2,4.2,0,0,1,739.7747,373.4945Z"/><path class="h" d="M539.219,199.4986a4.2,4.2,0,1,1-4.1994-4.2005A4.1989,4.1989,0,0,1,539.219,199.4986Z"/><path class="h" d="M19.8578,249.2941a4.2,4.2,0,1,1-4.1993-4.2A4.2,4.2,0,0,1,19.8578,249.2941Z"/><path class="h" d="M191.1632,91.8747a4.2006,4.2006,0,1,1-4.2-4.2005A4.1991,4.1991,0,0,1,191.1632,91.8747Z"/><path class="h" d="M240.9017,72.7765a2.8551,2.8551,0,1,1-2.8557-2.8557A2.8551,2.8551,0,0,1,240.9017,72.7765Z"/><path class="h" d="M705.7968,274.8436a2.8546,2.8546,0,1,1-2.8557-2.8557A2.8555,2.8555,0,0,1,705.7968,274.8436Z"/><path class="h" d="M501.2667,180.3636a2.8551,2.8551,0,1,1-2.8557-2.8557A2.8555,2.8555,0,0,1,501.2667,180.3636Z"/><path class="h" d="M613.5415,108.5412a2.8546,2.8546,0,1,1-2.8546-2.8557A2.8543,2.8543,0,0,1,613.5415,108.5412Z"/><path class="h" d="M607.4645,317.6517a2.8552,2.8552,0,1,1-2.8558-2.8556A2.8548,2.8548,0,0,1,607.4645,317.6517Z"/><path class="h" d="M164.4326,344.9809a2.8551,2.8551,0,1,1-2.8557-2.8557A2.8555,2.8555,0,0,1,164.4326,344.9809Z"/><path class="h" d="M172.9981,214.5747a2.8552,2.8552,0,1,1-2.8557-2.8545A2.8562,2.8562,0,0,1,172.9981,214.5747Z"/><path class="f" d="M723.3552,234.0109H719.531a1.2432,1.2432,0,0,1-1.2437-1.2436v-3.8242a1.2432,1.2432,0,0,1,1.2437-1.2437h3.8242a1.244,1.244,0,0,1,1.2437,1.2437v3.8242a1.244,1.244,0,0,1-1.2437,1.2436"/><path class="f" d="M135.4793,365.4091h-3.8254a1.243,1.243,0,0,1-1.2425-1.2437V360.34a1.2437,1.2437,0,0,1,1.2425-1.2436h3.8254a1.2447,1.2447,0,0,1,1.2437,1.2436v3.8254a1.244,1.244,0,0,1-1.2437,1.2437"/><path class="f" d="M128.8344,132.88H125.01a1.2439,1.2439,0,0,1-1.2436-1.2437v-3.8242a1.244,1.244,0,0,1,1.2436-1.2437h3.8243a1.2441,1.2441,0,0,1,1.2437,1.2437v3.8242a1.244,1.244,0,0,1-1.2437,1.2437"/><path class="f" d="M619.5587,87.7438h-7.3393a2.3865,2.3865,0,0,1-2.3862-2.3862v-7.34a2.3866,2.3866,0,0,1,2.3862-2.3862h7.3393a2.3868,2.3868,0,0,1,2.3873,2.3862v7.34a2.3868,2.3868,0,0,1-2.3873,2.3862"/><path class="f" d="M551.0635,270.7371H547.238a1.2439,1.2439,0,0,1-1.2436-1.2437v-3.8253a1.2447,1.2447,0,0,1,1.2436-1.2437h3.8255a1.2447,1.2447,0,0,1,1.2436,1.2437v3.8253a1.244,1.244,0,0,1-1.2436,1.2437"/><path class="g" d="M464.0648,225.45c.0319-.5445.083-1.1231.1626-1.74.6389-5.0657,4.6086-4.6007,7.0789-4.4461s5.542.2353,6.7232-2.1213a21.0573,21.0573,0,0,0,.83-3.3695,5.89,5.89,0,0,1,5.6341-3.9334,11.2591,11.2591,0,0,1,6.5947,2.6693c6.3468,4.8064,8.1668-7.8486,11.1714-11.51,3.4184-4.1676,9.7869-6.5037,14.1113-3.4775s6.8073,8.4158,7.9395,13.8555c.3684,1.7689.5014,3.9368,1.9349,4.9144,4.1971,2.86,9.5981-2.6885,14.6683,1.6211,1.7746,1.5086,2.1111,5.1623,1.8848,7.5382Z"/><path class="h" d="M464.0648,225.45c.0319-.5445.083-1.1231.1626-1.74.6389-5.0657,4.6086-4.6007,7.0789-4.4461s5.542.2353,6.7232-2.1213a21.0573,21.0573,0,0,0,.83-3.3695,5.89,5.89,0,0,1,5.6341-3.9334,11.2591,11.2591,0,0,1,6.5947,2.6693c6.3468,4.8064,8.1668-7.8486,11.1714-11.51,3.4184-4.1676,9.7869-6.5037,14.1113-3.4775s6.8073,8.4158,7.9395,13.8555c.3684,1.7689.5014,3.9368,1.9349,4.9144,4.1971,2.86,9.5981-2.6885,14.6683,1.6211,1.7746,1.5086,2.1111,5.1623,1.8848,7.5382Z"/><path class="g" d="M150.9162,485.3209c-14.2522-21.5017-44.0925-75.8233-18.2288-94.52,14.2022-10.2654,33.029-.9242,42.1315,21.7166,8.6443,21.5,11.9513,46.8993,15.5539,72.4992"/><path class="i" d="M151.2193,485.1432a236.6989,236.6989,0,0,1-18.0481-32.8016c-5.5124-12.3458-10.586-26.0945-10.2165-39.8192.3319-12.29,7.8042-24.8724,21.3266-25.4033,17.0841-.6707,27.2506,17.1488,32.1241,30.9793,7.5974,21.5552,10.3382,44.5268,13.5054,67.046.0853.6082,1.01.35.9254-.2558-3.0774-21.8894-5.77-44.155-12.86-65.1941-4.7087-13.9714-13.3576-30.8213-29.6538-33.2541-12.07-1.8018-22.5919,7.0733-25.3044,18.4744-3.1217,13.1234,1.2619,27.512,5.99,39.6953a211.8268,211.8268,0,0,0,21.6052,40.8878c.2489.3729.8537.0262.6059-.3547"/><line class="g" x1="140.0183" y1="387.5781" x2="173.6168" y2="485.3874"/><line class="h" x1="140.0183" y1="387.5781" x2="173.6168" y2="485.3874"/><path class="g" d="M93.7718,485.3375c-12.2946-15.904-39.1735-56.087-16.8623-69.9164,12.2514-7.5939,27.3563-.6843,35.2094,16.0632,7.4575,15.9041,10.31,34.6922,13.4178,53.6293"/><path class="i" d="M94.0749,485.1611a190.145,190.145,0,0,1-15.538-23.6151c-4.8167-8.808-9.5333-18.8063-9.7516-29.0388-.2171-10.1654,6.5379-18.7665,17.0375-19.6385,13.1745-1.0936,22.4271,10.6907,27.08,21.537,6.8971,16.0757,9.3606,33.6986,12.1719,50.835.0989.607,1.0243.35.9254-.2547-2.7659-16.8726-5.2146-34.159-11.832-50.0494-4.4461-10.6781-12.5345-21.9178-25.0827-22.9728-9.3537-.7855-18.5858,5.326-20.6445,14.6047-2.1713,9.7868,1.9473,20.3569,6.09,29.0559a162.47,162.47,0,0,0,18.9928,29.9618c.2432.3093.7923-.108.5513-.4251"/><line class="g" x1="83.2336" y1="413.0365" x2="112.2178" y2="485.388"/><line class="h" x1="83.2336" y1="413.0365" x2="112.2178" y2="485.388"/><path class="g" d="M237.5545,485.1122C203.865,423.9993,182.1063,363.4105,209.29,334.6275c26.9369-28.5193,55.1117,5.2771,61.9667,35.2242,8.3965,36.6782,9.614,76.3814,9.448,115.26"/><path class="h" d="M237.5545,485.1122C203.865,423.9993,182.1063,363.4105,209.29,334.6275c26.9369-28.5193,55.1117,5.2771,61.9667,35.2242,8.3965,36.6782,9.614,76.3814,9.448,115.26"/><line class="h" x1="219.2639" y1="327.2015" x2="259.7334" y2="485.022"/><path class="g" d="M187,485.3042c-13.3837-32.3287-43.4866-97.7263-22.2566-117.94,13.577-12.9278,38.0924,2.9182,50.7076,31.1692C227.43,425.3611,231.0289,452.98,238.21,484.9245"/><path class="i" d="M187.3382,485.21c-6.3537-15.5345-13.0529-30.9213-18.637-46.7617-5.6045-15.8972-11.2078-33.1029-10.8657-50.1574.1262-6.2661,1.2233-12.9347,5.0157-18.1015,4.3608-5.9376,11.3863-8.0555,18.4266-6.2582,8.2669,2.1111,15.28,8.035,20.7958,14.3137,7.512,8.5545,12.5549,18.7222,16.5736,29.2957,9.4787,24.944,13.2939,51.5852,19.1007,77.5114.1342.6037,1.06.3479.9254-.2535-5.5306-24.7041-9.248-50.0187-17.7786-73.9418-6.3889-17.9128-16.6032-38.3982-35.1549-46.3537-5.9683-2.56-12.9586-3.2069-18.6381.4377-5.1065,3.2775-7.9747,8.9058-9.2161,14.6968-1.545,7.2017-1.0277,14.7547.04,21.9848a174.2424,174.2424,0,0,0,6.5173,26.83c6.1388,19.4566,14.3284,38.1572,22.2191,56.9453.1716.4081.848.2331.6764-.1876"/><path class="g" d="M448.1073,485.1222C436.7538,355.0194,464.39,307.4869,494.6234,305.3543c14.3228-1.01,56.2746,7.2369,5.6216,179.6895"/><path class="i" d="M448.33,485.1222c-2.7977-42.84-5.66-87.354,5.3828-129.3707,4.7883-18.2152,13.7657-41.71,33.3939-48.4317,7.7417-2.6522,16.5407-2.1645,23.1,3.0717,11.59,9.2537,13.3905,27.2585,13.8294,40.9094.4911,15.314-1.1732,30.6815-3.5332,45.7909-3.5526,22.7477-8.8956,45.2032-14.93,67.4086-1.8541,6.8254-3.7821,13.6327-5.6579,20.4524a.3422.3422,0,0,0,.6594.1819,653.3066,653.3066,0,0,0,18.6779-75.3992c3.0887-16.7192,5.4805-33.7,5.7284-50.7259.1512-10.3552-.415-20.9924-3.3059-30.9964-1.7018-5.8921-4.3165-11.7546-8.6341-16.21-5.5613-5.7364-13.3269-7.8031-21.0948-6.5719-18.9813,3.008-29.72,22.3987-35.5379,38.8313-5.4635,15.4368-8.1157,31.8115-9.6527,48.0645-2.25,23.8038-1.9667,47.8258-.557,71.6694.4206,7.12.923,14.2352,1.6858,21.3255.0319.2785.465.29.4457,0"/><line class="g" x1="500.5174" y1="305.6553" x2="473.8033" y2="485.0435"/><line class="h" x1="500.5174" y1="305.6553" x2="473.8033" y2="485.0435"/><path class="g" d="M537.4782,485.1322c9.2616-77.33,40.4581-121.8972,68.6432-109.8,23.0546,9.896,11.1578,52.9437-24.7564,109.7538"/><path class="i" d="M537.6924,485.191c3.4923-22.7852,7.5553-45.3419,16.3531-66.7811,5.8284-14.2056,13.7827-29.5265,26.5219-38.754,8.6261-6.2491,20.8571-8.5227,29.7425-1.3255,10.362,8.3942,7.5371,24.9622,4.6291,36.1177-6.6106,25.3692-20.573,48.1691-33.8691,70.4643-.2263.382.349.7083.5911.3456a322.9,322.9,0,0,0,20.7525-36.3542,195.4,195.4,0,0,0,12.26-30.1972c3.4536-11.5659,7.2745-28.1407-1.2767-38.5312-6.8516-8.3237-19.2474-8.8455-28.3271-4.28-13.0007,6.5367-21.5859,20.4661-27.7156,33.1041a189.806,189.806,0,0,0-12.18,33.5,251.009,251.009,0,0,0-7.9179,42.6329c-.0216.2466.399.3069.4365.0591"/><line class="g" x1="606.1212" y1="375.3318" x2="560.0051" y2="485.0856"/><line class="h" x1="606.1212" y1="375.3318" x2="560.0051" y2="485.0856"/><line class="g" x1="172.0822" y1="363.342" x2="213.277" y2="485.3871"/><line class="h" x1="172.0822" y1="363.342" x2="213.277" y2="485.3871"/><path class="g" d="M540.9176,485.2753c18.2152-38.6153,54.95-126.7855,27.2847-158.0491-15.1913-17.167-42.9943,3.9118-57.7411,41.77-14.0044,35.9518-24.487,72.9631-33.1779,115.7721"/><path class="i" d="M541.2207,485.453a524.6143,524.6143,0,0,0,25.0349-61.7791c7.13-21.7552,13.6441-45.36,12.1935-68.4783-.89-14.1761-7.62-37.1636-26.16-34.2135-10.0381,1.5983-18.4528,9.4867-24.6757,17.0033-9.1366,11.0385-15.0412,23.9311-20.0534,37.2386C494.1782,410.75,484.3879,447.4675,476.8224,484.64c-.1239.6025.8014.8606.9242.2558,6.4674-31.76,14.516-63.2081,25.1225-93.8509,4.94-14.2739,9.8892-28.8251,17.848-41.75,6.0069-9.755,13.9089-19.69,24.3585-24.94,8.1055-4.0732,16.99-3.5776,23.1353,3.56,5.7693,6.7015,8.2271,15.6482,9.1071,24.2812,2.2384,21.9462-3.6038,44.6382-10.04,65.4317-7.1574,23.1171-16.4327,45.5578-26.6628,67.47-.19.4059.41.7628.6059.3547"/><line class="g" x1="560.0047" y1="321.836" x2="511.2933" y2="485.3862"/><line class="h" x1="560.0047" y1="321.836" x2="511.2933" y2="485.3862"/><path class="g" d="M573.0781,485.1322c24.014-48.68,44.8542-61.5551,64.4312-57.6661,15.2185,3.0251,17.6,25.509-14.5705,57.6365"/><path class="i" d="M573.27,485.2443c7.4358-13.2462,14.1545-26.7049,24.0436-38.3789,6.1058-7.2085,13.4167-14.0635,22.3828-17.48,6.249-2.3805,14.4887-3.3423,20.7912-.5366,7.0209,3.1239,8.1941,11.1271,6.8038,17.9321-3.0808,15.0946-14.5672,27.1449-24.5939,38.0787a.3423.3423,0,0,0,.4832.4843c10.2211-9.4685,20.4092-22.0189,24.3142-35.6573,1.9064-6.6583,2.1736-15.13-3.7663-19.8886-5.1736-4.1437-13.4542-4.0152-19.5941-2.6476-8.9275,1.9894-16.5577,7.68-22.8489,14.1067a115.0141,115.0141,0,0,0-13.4519,17.0295,174.8449,174.8449,0,0,0-14.948,26.7333c-.11.2535.24.48.3843.224"/><line class="g" x1="635.6241" y1="427.7918" x2="598.9356" y2="485.0987"/><line class="h" x1="635.6241" y1="427.7918" x2="598.9356" y2="485.0987"/><path class="i" d="M473.8222,88.5475a10.0512,10.0512,0,0,1,10.0392,10.0393V474.2677a10.0512,10.0512,0,0,1-10.0392,10.0392H274.3067a10.05,10.05,0,0,1-10.0381-10.0392V98.5868a10.05,10.05,0,0,1,10.0381-10.0393H473.8222m0-1.1368H274.3067a11.1751,11.1751,0,0,0-11.1749,11.1761V474.2677a11.175,11.175,0,0,0,11.1749,11.176H473.8222a11.1754,11.1754,0,0,0,11.1761-11.176V98.5868a11.1754,11.1754,0,0,0-11.1761-11.1761"/><circle class="j" cx="374.0644" cy="467.1873" r="10.1358"/></g><g class="k"><g class="l"><rect class="m" x="153.3248" y="77.3733" width="418.1086" height="418.1086" transform="translate(-96.3965 340.1334) rotate(-45)"/></g></g><g class="n"><g class="o"><rect class="p" x="209.8076" y="90.0051" width="392.846" height="392.846" transform="translate(-83.5531 371.1412) rotate(-45)"/></g></g><g class="d"><rect class="g" x="273.3779" y="124.482" width="203.9059" height="323.8911"/><rect class="j" x="273.3779" y="124.482" width="203.9059" height="323.8911"/><path class="j" d="M361.5839,103.9251h30.7475a1.2312,1.2312,0,0,1,0,2.4624H361.5839a1.2312,1.2312,0,0,1,0-2.4624Z"/><path class="j" d="M353.43,105.1563a1.27,1.27,0,1,1,1.27,1.27A1.27,1.27,0,0,1,353.43,105.1563Z"/><rect class="q" x="279.818" y="249.9091" width="94.2465" height="95.2389"/><path class="r" d="M346.4528,283.8438a19.5118,19.5118,0,1,1-19.5123-19.5123A19.512,19.512,0,0,1,346.4528,283.8438Z"/><path class="r" d="M340.383,283.8438c0,10.7759-6.0183,19.5112-13.4417,19.5112S313.5,294.62,313.5,283.8438s6.0183-19.5123,13.4417-19.5123S340.383,273.0679,340.383,283.8438Z"/><path class="r" d="M332.1777,283.8438c0,10.7759-2.3453,19.5112-5.2362,19.5112s-5.2373-8.7353-5.2373-19.5112,2.3453-19.5123,5.2373-19.5123S332.1777,273.0679,332.1777,283.8438Z"/><line class="r" x1="307.4293" y1="283.8438" x2="346.4527" y2="283.8438"/><path class="r" d="M309.4725,292.542c3.7287-1.2459,10.16-2.069,17.4683-2.069,7.3063,0,13.7361.8219,17.4648,2.0679"/><path class="r" d="M315.1332,299.3762a35.5079,35.5079,0,0,1,23.4786-.0512"/><path class="r" d="M309.4725,275.251c3.7287,1.246,10.16,2.0679,17.4683,2.0679,7.3063,0,13.7361-.8208,17.4648-2.0667"/><path class="r" d="M315.1332,268.4169a35.5071,35.5071,0,0,0,23.4786.0511"/><rect class="s" x="287.8348" y="323.0858" width="78.2128" height="5.0372"/><rect class="s" x="319.3052" y="313.7196" width="46.7424" height="5.0372"/><rect class="s" x="287.8348" y="313.7196" width="26.1592" height="5.0372"/><rect class="s" x="287.8348" y="332.4521" width="78.2128" height="5.0372"/><rect class="t" x="373.9667" y="249.9091" width="94.2465" height="95.2389"/><rect class="f" x="381.9835" y="266.8851" width="78.2128" height="5.0384"/><rect class="f" x="381.9835" y="276.2525" width="78.2128" height="5.0384"/><rect class="f" x="381.9835" y="285.6198" width="24.3562" height="5.0372"/><rect class="f" x="412.8526" y="285.6198" width="47.2369" height="5.0372"/><rect class="f" x="381.9835" y="294.986" width="78.2128" height="5.0372"/><rect class="f" x="381.9835" y="304.3523" width="78.2128" height="5.0372"/><rect class="f" x="381.9835" y="313.7196" width="78.2128" height="5.0372"/><rect class="f" x="437.6112" y="323.0858" width="22.584" height="5.0372"/><rect class="f" x="381.9835" y="323.0858" width="50.2358" height="5.0372"/><rect class="f" x="381.9835" y="332.4521" width="78.2128" height="5.0372"/><rect class="f" x="439.4813" y="257.52" width="20.715" height="5.0372"/><rect class="f" x="381.9835" y="257.52" width="52.1866" height="5.0372"/><rect class="t" x="279.818" y="345.1491" width="94.2465" height="95.2389"/><rect class="f" x="287.8348" y="418.3498" width="78.2128" height="5.0372"/><rect class="f" x="287.8348" y="408.9824" width="78.2128" height="5.0384"/><rect class="f" x="345.934" y="399.6162" width="20.1137" height="5.0372"/><rect class="f" x="287.9416" y="399.6162" width="51.4784" height="5.0372"/><rect class="f" x="287.8348" y="390.2489" width="78.2128" height="5.0372"/><rect class="f" x="287.8348" y="380.8826" width="78.2128" height="5.0372"/><rect class="f" x="287.8348" y="371.5164" width="78.2128" height="5.0372"/><rect class="f" x="287.8348" y="362.1502" width="36.3417" height="5.0372"/><rect class="f" x="329.5684" y="362.1502" width="36.4792" height="5.0372"/><rect class="f" x="287.8348" y="352.7829" width="78.2128" height="5.0372"/><rect class="f" x="287.8348" y="427.716" width="36.4508" height="5.0372"/><rect class="f" x="329.5968" y="427.716" width="36.4508" height="5.0372"/><rect class="q" x="373.9667" y="345.1491" width="94.2465" height="95.2389"/><polygon class="u" points="440.258 410.696 402.452 410.247 398.22 383.08 443.909 382.999 440.258 410.696"/><polygon class="u" points="443.909 382.999 398.22 383.079 421.03 364.257 443.909 382.999"/><rect class="g" x="405.1572" y="380.3565" width="31.1823" height="26.3395" transform="translate(-0.6881 0.737) rotate(-0.1003)"/><polygon class="s" points="398.219 383.08 398.272 412.785 421.091 398.941 398.219 383.08"/><polygon class="s" points="443.909 382.999 443.961 412.704 421.092 398.939 443.909 382.999"/><polygon class="s" points="443.961 412.703 398.272 412.784 421.082 393.962 443.961 412.703"/><polyline class="v" points="398.272 412.785 421.082 393.961 443.96 412.704"/><line class="v" x1="424.3674" y1="396.6515" x2="443.9081" y2="382.9984"/><line class="v" x1="417.8107" y1="396.6659" x2="398.22" y2="383.0799"/><rect class="s" x="402.8645" y="424.135" width="36.4508" height="5.0372"/><rect class="q" x="279.8168" y="146.4396" width="188.4942" height="95.0241"/><rect class="s" x="371.4089" y="160.1041" width="88.7875" height="6.5742"/><rect class="s" x="371.4089" y="172.3283" width="88.7875" height="6.5742"/><rect class="s" x="371.4089" y="184.5525" width="88.7875" height="6.5742"/><rect class="s" x="371.4089" y="196.7778" width="88.7875" height="6.5742"/><rect class="s" x="371.4089" y="221.2261" width="88.7875" height="6.5742"/><rect class="s" x="407.1355" y="209.0019" width="53.0608" height="6.5742"/><rect class="s" x="371.4089" y="209.0019" width="29.697" height="6.5742"/><rect class="s" x="290.6222" y="160.3724" width="67.1607" height="67.1596"/><polygon class="g" points="330.43 181.367 350.868 216.321 309.993 216.321 330.43 181.367"/><polygon class="g" points="309.72 192.853 314.084 201.261 306.266 216.321 297.538 216.321 309.72 192.853"/><path class="g" d="M299.2573,179.3462a3.7856,3.7856,0,1,0,3.7855-3.7856,3.7857,3.7857,0,0,0-3.7855,3.7856"/><path class="q" d="M320.9051,138.6673H427.2234a3.0239,3.0239,0,1,0,0-6.0478H320.9051a3.0239,3.0239,0,1,0,0,6.0478"/><line class="r" x1="374.0644" y1="249.9097" x2="374.0644" y2="440.3876"/><line class="r" x1="279.8176" y1="345.1485" x2="468.3117" y2="345.1485"/><line class="w" x1="57.1501" y1="485.4441" x2="690.9789" y2="485.4441"/><path class="x" d="M656.0534,453.8009l1.9735,32.447-1.0538,10.2052-38.6847-.2047a1.769,1.769,0,0,1-.6172-3.4229l17.2568-7.935-3.8959-33.7611"/><path class="y" d="M614.7794,495.8176c.4081-1.2812,1.1595-2.7216,1.9167-3.0467l18.2959-7.8793c10.0858,4.0869,23.141.9618,23.141.9618l1,13.7771a.8253.8253,0,0,1-.83.8207l-43.2172-.2273c-.8969-.0057-.3205-4.3654-.3069-4.4063"/><path class="z" d="M631.0323,485.68a21.6645,21.6645,0,0,1,2.5806,4.3324"/><path class="z" d="M628.7287,487.0572a18.8618,18.8618,0,0,1,2.12,3.6821"/><path class="z" d="M626.7814,488.0619a26.8312,26.8312,0,0,1,1.9883,3.3809"/><line class="z" x1="658.8976" y1="497.4772" x2="614.5902" y2="497.2442"/><path class="z" d="M658.4979,490.8862s-10.26.0705-11.1818,6.53"/><path class="z" d="M620.4457,491.1559s2.9557,4.2006,3.5378,6.1366"/><path class="aa" d="M625.6591,329.1109s-5.559,45.6636-3.4332,78.8245,5.1975,71.6375,5.1975,71.6375h33.6247s-4.3585-56.9373-3.8776-83.5956c.532-29.5311,9.5583-66.8664,9.5583-66.8664"/><path class="ab" d="M654.2271,479.5724s-4.3586-56.9374-3.8777-83.5946c.532-29.5321,9.5583-66.8674,9.5583-66.8674"/><path class="x" d="M700.2336,410.3466,731.42,420.3779l9.4083,4.0925-11.8957,36.81a1.7687,1.7687,0,0,1-3.4491-.4479l-2.3453-18.8484-32.38-10.5213"/><path class="y" d="M727.4606,464.4951c-1.0982-.7775-2.243-1.928-2.3249-2.7488l-1.9769-19.8226c6.9471-8.3772,7.918-21.7655,7.918-21.7655l13.4325,3.2127a.8267.8267,0,0,1,.5321,1.04l-13.29,41.1242c-.2751.8526-4.2562-1.0163-4.29-1.04"/><path class="z" d="M722.7136,445.9364a21.6092,21.6092,0,0,1,4.9076-1.1493"/><path class="z" d="M723.3287,448.5487a18.9908,18.9908,0,0,1,4.1516-.9072"/><path class="z" d="M723.6984,450.7091a26.9681,26.9681,0,0,1,3.8219-.8731"/><line class="z" x1="742.3869" y1="422.9448" x2="728.7633" y2="465.1058"/><path class="z" d="M735.9823,421.3318s-3.0341,9.8016,2.8432,12.6334"/><path class="z" d="M724.7308,457.6843s4.8985-1.5472,6.92-1.5166"/><path class="aa" d="M680.406,330.5842s3.0193,12.979,3.0193,18.5494c0,4.0925-1.6278,6.8732-2.493,9.8732a16.7745,16.7745,0,0,0-.6411,3.92c-.2581,5.9705-.606,22.7294,3.1341,30.6917,4.5985,9.7868,42.8409,22.7761,42.8409,22.7761l-9.697,29.2047s-58.5426-14.71-65.8421-32.6288c-10.187-25.002-7.2733-82.3861-7.2733-82.3861"/><path class="ab" d="M657.7874,421.3339c-3.3787-2.6726-5.8853-5.476-7.0608-8.3635-10.187-25.0031-7.2722-82.3861-7.2722-82.3861"/><path class="ab" d="M675.4425,329.4984s3.4354,16.3383,3.4354,21.9087c0,4.1664-1.6881,7.1028-2.54,10.0358a16.71,16.71,0,0,0-.6264,3.6355c-.3661,5.8944-1.0073,22.99,3.166,30.8134C684.6666,406.7393,724.73,421.02,724.73,421.02"/><path class="ab" d="M638.6747,333.7782s-.5128,11.7853,1.1368,13.2a25.4594,25.4594,0,0,0,3.2558,2.3589"/><line class="ab" x1="721.4436" y1="414.6686" x2="710.7712" y2="444.0245"/><line class="ab" x1="626.968" y1="473.7918" x2="660.6234" y2="473.7918"/><path class="ab" d="M666.22,331.4868s2.0974,7.5223,11.4375,9.7391"/><path class="ab" d="M624.58,339.9118s8.4375-2.4669,11.03-8.4249"/><path class="ac" d="M644.9272,240.4167l-1.5086,10.5826s-.1319,2.9318,5.5658,4.9724a9.9965,9.9965,0,0,0,11.0987-2.842l-.4581-10.7042"/><path class="ac" d="M644.0824,226.3913s-7.3314,12.256-2.2385,17.1546c4.6178,4.4427,14.7718,1.6586,15.6961.1068s6.7038-15.2492,3.5411-17.1329c-5.6215-3.35-13.8578-5.4-16.9987-.1285"/><path class="ad" d="M644.1546,245.8333a15.0722,15.0722,0,0,0,9.56-.4116"/><path class="ae" d="M642.8578,218.4265c.9629-7.2392,9.7368-1.8234,13.3076,1.4835,1.072.9925,7.3324,2.8307,8.3521,3.8788a7.5265,7.5265,0,0,1,2.1088,3.77,9.0719,9.0719,0,0,1-.2728,3.8015,46.0851,46.0851,0,0,1-2.3066,6.5015c-.9572,2.32-2.6693,6.9357-5.9774,6.4525a2.73,2.73,0,0,1-1.76-.71,2.3745,2.3745,0,0,1-.3638-1.8257,8.6457,8.6457,0,0,1,.9095-2.9716c-.6866.1841-1.39.5979-2.0474.3365-.2183-.0864-.324-.2979-.4468-.4968-.4354-.7071.0921-5.3863,2.2713-7.23-3.1466-1.49-5.61-1.6267-8.8216-2.9773a10.05,10.05,0,0,1-4.6189-3.648c-1.321-1.7723-.6253-4.1733-.3342-6.3639"/><path class="ac" d="M656.0811,238.3828c.8014-1.1254,2.0406-2.4157,3.2194-1.2425a2.7835,2.7835,0,0,1,.58,1.7825c.1432,2.2077-2.0883,5.027-4.0379,4.2528-.95-.3774-1.2175-1.6757-1.3892-2.734"/><path class="af" d="M645.7033,231.8s-3.1729,3.1137-3.1751,4.1755,2.38,1.7166,2.38,1.7166"/><path class="g" d="M641.3315,238.067l5.6851,2.1236a3.3742,3.3742,0,0,1-4.73,1.8234c-2.43-1.1038-.9548-3.947-.9548-3.947"/><path class="ag" d="M643.2942,230.0615a8.13,8.13,0,0,0-.4764.7719c-.2785.507.5082.964.7742.4525a9.4993,9.4993,0,0,0,.4172-.9231c.1683-.4388-.4775-.6389-.715-.3013"/><path class="ah" d="M645.7354,228.9813a1.7518,1.7518,0,0,0-2.4021-.8389"/><path class="ag" d="M650.3892,233.4731a7.8855,7.8855,0,0,0-.4309.7946c-.2478.5219.5412.9754.7753.4525a9.0925,9.0925,0,0,0,.37-.9458c.1387-.432-.4854-.67-.7139-.3013"/><path class="ah" d="M650.62,230.8592s1.729-.1932,2.9772,2.077"/><path class="x" d="M620.3414,194.1c-.4684-6.1491.36-23.5526-.7185-24.0118-1.0777-.457-1.5222,5.4373-2.3373,4.8962s-.748-9.6595-1.9473-9.8289c-1.6257-.2307-1.1949,9.1105-1.1949,9.1105s-.9822-10.2075-2.4509-10c-1.04.1467-.6491,7.9725-.8754,10.9805-.1694-3.291-1.1345-9.4185-2.2111-9.2434-1.0686.1751-.8582,6.332-.96,10.4246-.1762-2.559-.6888-8.1521-1.6915-8.0362-.9993.1148-1.3028,14.6536-1.3222,26.9062"/><path class="x" d="M618.7927,255.6643a184.5637,184.5637,0,0,1-10.7293-29.9369c-4.13-16.1177-3.4059-37.07-3.4059-37.07l15.5062,2.61s.7059,29.2445,18.3607,58.2879"/><path class="ai" d="M607.8609,177.122c1.2743,1.94,2.9681,4.2255,2.8863,8.0259"/><path class="ai" d="M617.1553,176.3832c-1.4927,1.3289-3.107,4.9122-2.3283,6.7515"/><path class="i" d="M670.2444,191.1311a45.4363,45.4363,0,0,0,9.6265-18.8734l-9.1877-3.1092a35.6346,35.6346,0,0,0,.7469-9.5356l9.5731-1.629a45.7574,45.7574,0,0,0-6.539-20.1535l-8.7057,4.3017a35.6809,35.6809,0,0,0-6.2025-7.28l5.61-7.9112a45.4347,45.4347,0,0,0-18.8734-9.6265l-3.1092,9.1877a35.6381,35.6381,0,0,0-9.5356-.7469l-1.63-9.5731a45.758,45.758,0,0,0-20.1523,6.539l4.3017,8.7057a35.6543,35.6543,0,0,0-7.279,6.2036l-7.9122-5.6113a45.4526,45.4526,0,0,0-9.6266,18.8734l9.1877,3.11a35.5819,35.5819,0,0,0-.7468,9.5356l-9.5732,1.6291a45.753,45.753,0,0,0,6.539,20.1523l8.7057-4.3017a35.6584,35.6584,0,0,0,6.2025,7.28l-5.61,7.9111a45.4363,45.4363,0,0,0,18.8734,9.6265l3.1092-9.1866a35.5882,35.5882,0,0,0,9.5356.7457l1.63,9.5732a45.7575,45.7575,0,0,0,20.1523-6.539l-4.3017-8.7057a35.65,35.65,0,0,0,7.28-6.2025ZM627.673,177.1369a17.4686,17.4686,0,1,1,23.499-7.6246,17.468,17.468,0,0,1-23.499,7.6246"/><path class="y" d="M643.6317,249.5012c-4.6156,0-11.8116-14.7547-11.8116-14.7547l-18.5266,13.7759s5.9239,18.4221,15.9654,30.1063"/><line class="z" x1="633.367" y1="237.6923" x2="614.4857" y2="251.8729"/><path class="x" d="M691.5588,186.57c-.99-6.7664-3.5651-22.7011-4.7076-22.9637s-1.6085,3.5366-1.1459,5.0838c-.7241-2.8965-2.7261-9.2332-3.9356-9.19-1.6427.058.4183,9.1787.4183,9.1787s-2.7544-9.8778-4.1641-9.4163c-.9982.3286.7571,7.9634,1.0606,10.9657-.7434-3.2114-2.7658-9.074-3.7958-8.7136-1.0208.3592.2638,6.3843.8822,10.4314-.6218-2.49-2.1077-7.9054-3.074-7.6155-.964.2876,1.5484,12.7914,3.0422,25.2611"/><path class="x" d="M688.3593,250.1745a184.7367,184.7367,0,0,0,5.376-31.3431c1.2733-16.5907-3.0751-37.1-3.0751-37.1l-14.8184,5.259s4.3756,28.9239-7.9759,60.59"/><path class="y" d="M643.6317,249.5012s.8991,2.5954,6.01,2.8568c6.5832.3377,10.2449-2.8568,10.2449-2.8568s19.6237,2.6045,21.2084,24.0425c1.8269,24.6928,2.3305,59.3758,2.3305,59.3758H622.2265s.41-39.6089,1.7-58.5061c1.2357-18.1106,19.7056-24.9122,19.7056-24.9122"/><path class="y" d="M681.0534,276.25a206.1385,206.1385,0,0,0,10.0016-33.83l-19.6487-9.5107s-4.678,13.04-11.5193,16.5919"/><line class="z" x1="669.8229" y1="236.6765" x2="690.2139" y2="246.4338"/><line class="z" x1="622.2265" y1="329.5328" x2="683.3666" y2="329.5328"/><path class="z" d="M681.5884,274.8436s-2.4874,5.3294-2.7557,8.01"/><path class="z" d="M628.4622,260.7484a38.8484,38.8484,0,0,0-4.5359,13.6645"/><path class="z" d="M641.3036,248.522a8.6853,8.6853,0,0,0,9.0092,7.1426c9.7709,0,11.7069-7.1426,11.7069-7.1426"/><path class="aj" d="M685.705,168.6908c-.0069-.0659.0875.1149.1193.1808l.1455.2728.249.5571c.166.3706.291.7537.4183,1.1356a11.91,11.91,0,0,1,.5,2.3806,5.6706,5.6706,0,0,1-.6082-1.0743,9.4346,9.4346,0,0,1-.4342-1.1369,10.1438,10.1438,0,0,1-.2933-1.18l-.0966-.6036-.024-.31-.009-.1546c-.0114-.0273.01-.191.033-.0671"/><path class="x" d="M540.9453,452.04l1.0674,33.6713-1.0935,10.5906-40.1444-.2126a1.8351,1.8351,0,0,1-.64-3.5514l17.9071-8.2351-2.7045-35.0344"/><path class="ak" d="M497.1324,495.6433c.424-1.33,1.2039-2.8238,1.9883-3.1615l18.9882-8.1782c10.4655,4.2426,24.0129.9992,24.0129.9992l1.0379,14.2955a.8563.8563,0,0,1-.8617.8526l-44.8484-.2365c-.9288-.0045-.3309-4.529-.3172-4.5711"/><path class="ab" d="M513.9992,485.1222a22.3355,22.3355,0,0,1,2.676,4.495"/><path class="ab" d="M511.6079,486.5509a19.7449,19.7449,0,0,1,2.202,3.822"/><path class="ab" d="M509.5874,487.5945a27.897,27.897,0,0,1,2.0633,3.5071"/><line class="ab" x1="542.9159" y1="497.3651" x2="496.9374" y2="497.123"/><path class="ab" d="M542.5018,490.5242s-10.6475.0751-11.6046,6.7777"/><path class="ab" d="M503.013,490.8051s3.0671,4.36,3.6707,6.37"/><path class="aa" d="M536.29,319.7345s4.8849,8.2249,6.2956,14.3614c2.2418,9.7482-.0045,19.7351-.0045,19.7351l-.0989,117.7069H512.6809s-6.6129-135.6492-3.6742-153.1869"/><path class="ab" d="M517.2288,471.5382s-6.6129-135.6493-3.6742-153.187"/><path class="x" d="M508.032,438.7826,521.5726,469.63l2.9307,10.2348-37.33,14.7661a1.8355,1.8355,0,0,1-1.9177-3.0569l13.5474-14.3171-15.5676-31.5023"/><path class="ak" d="M483.6273,495.5733c-.1024-1.3926.0647-3.0683.6672-3.6753l14.5718-14.6661c11.2931.0352,22.6555-8.0214,22.6555-8.0214l6.2912,12.8779a.8566.8566,0,0,1-.482,1.1118l-41.7041,16.4974c-.8651.3422-1.9962-4.08-2-4.1243"/><path class="ab" d="M495.3573,479.5236a22.4385,22.4385,0,0,1,4.16,3.1729"/><path class="ab" d="M493.672,481.7406a19.7212,19.7212,0,0,1,3.4661,2.7261"/><path class="ab" d="M492.1855,483.4624a27.8367,27.8367,0,0,1,3.2218,2.4863"/><line class="ab" x1="526.754" y1="480.1065" x2="483.9984" y2="497.0188"/><path class="ab" d="M523.82,473.9139s-9.8528,4.0379-8.2419,10.6133"/><path class="ab" d="M487.2807,488.8923s4.4723,2.9023,5.7819,4.5416"/><path class="aa" d="M484.9083,338.9171c-15.3129,37.6354-15.588,41.6211-18.1106,59.9886-2.5874,18.8438,25.7307,74.3318,25.7307,74.3318l27.171-11.9968s-18.023-50.7713-16.8567-59.5021c2.1452-16.06,20.6832-43.4649,20.6832-43.4649s8.8012-6.9687,10.7156-16.2235c1.9121-9.256-2.2963-18.95-2.2963-18.95"/><path class="ab" d="M512.8425,343.3545c.3978-.1319,12.198-3.8447,12.198-3.8447"/><line class="ab" x1="538.8604" y1="336.0618" x2="542.7414" y2="334.8283"/><path class="ab" d="M494.0029,337.78s-18.9314,41.1425-21.5211,59.9886c-2.5874,18.8438,24.9554,72.7891,24.9554,72.7891"/><path class="ab" d="M509.1455,383.6515a195.5961,195.5961,0,0,1,14.38-25.3771s8.8024-6.9687,10.7156-16.2247"/><path class="x" d="M482.3316,245.7815l7.7906,13.5577s-4.67,10.1017-17.2921,5.3089l-3.2342-7.163Z"/><path class="x" d="M461.6325,236.6071s-3.8345,18.0333,2.842,21.2493c3.4718,1.6711,13.1791.6378,15.4709-3.0637,1.7007-2.7465,1.0334-15.75-1.0481-17.3284-7.9566-6.0286-17.2648-.8572-17.2648-.8572"/><path class="ag" d="M478.5382,231.2661c-2.9171-5.0975-8.8615-4.0823-18.52,1.4165-1.2937.7366-4.11.9992-4.1426,2.4873-.0432,1.9554,1.3665,5.1748,3.6276,5.8217a6.38,6.38,0,0,0,3.8391-.0626c2.01-.4683,4.6939.3445,4.6655,2.7045-.008.62-.19,1.7518.3876,1.9735a6.0134,6.0134,0,0,0,1.36.0341c.9061.03,1.3972,1.1414,1.2846,2.04-.11.8992.46,1.554.3445,2.4521-.274,2.127,2.443,4.46,4.5814,4.6245,1.8927.1455,7.41-.773,10.0266-4.3289,2.27-3.0831,1.9815-8.2886-1.8063-16.036-1.454-2.97-4.6394-3.8742-5.6477-3.1262"/><path class="x" d="M467.8328,246.415c.615-2.8875,2.1065-3.2115,3.3922-2.4271,1.7178,1.047,1.3392,5.1657.7037,6.1513-1.29,1.9962-2.8284,2.6113-3.7,1.1948"/><path class="al" d="M470.2085,258.608c1.9895-1.6541,1.69-4.8053,1.69-4.8053"/><path class="am" d="M462.2175,245.2248c-.2774.6219-.3672,1.5472.1489,1.9406a.4046.4046,0,0,0,.4752.017c1.0027-.623-.0466-3.2569-.6241-1.9576"/><path class="an" d="M461.3982,243.2315a4.3408,4.3408,0,0,1,2.9273.6185"/><path class="g" d="M464.7243,251.8632l-2.9137-.0967s-.1182,3.58,1.2494,3.6481c1.5131.0761,1.6643-3.5514,1.6643-3.5514"/><path class="ao" d="M488.321,256.2061s6.7891-1.7416,16.394,1.0584c8.101,2.3612,18.421,8.4317,26.182,16.685,13.4406,14.2943,7.2426,49.813,7.2426,49.813l-17.4751-.6617s2.742-22.8238-6.41-31.9763c-9.15-9.1514-22.0689-11.3-22.0689-11.3"/><path class="x" d="M414.1772,306.1027c-5.4749,1.5211-22.0622,3.3229-22.3305,4.4552s5.5772.5752,5.1827,1.4642-9.3241,2.3544-9.29,3.5571c.0477,1.6314,9.1161-.36,9.1161-.36s-3.77.6729-3.3183,2.0746c.3194.9936,1.8552,1.2983,4.8371,1.0129-1.6359.37-2.2759,1.1573-1.9235,2.1816.35,1.0152,1.9337.9481,3.6117.7241-1.1539.26-2.044,1.0266-1.2994,1.6973.9742.8765,7.7462.5013,19.7385-1.537"/><path class="ao" d="M471.0623,260.7439a14.0946,14.0946,0,0,0,9.8493,0c5.1737-2.011,7.41-4.5381,7.41-4.5381s11.7468-.806,26.0433,13.49c14.44,14.441,25.6636,55.3925,25.6636,55.3925l-59.1848,19.892s-10.1234-35.8574-14.1068-52.1832c-3.9822-16.3281,4.3257-32.0537,4.3257-32.0537"/><path class="ap" d="M513.5907,265.939c11.83,13.8145,26.4377,59.15,26.4377,59.15"/><path class="ao" d="M471.0623,260.7439c-7.7952,2.9842-14.4888,10.552-18.6006,18.3448-6.7345,12.7676-10.8339,22.0281-10.8339,22.0281l-33.9362,5.0861,1.6837,18.1015s23.0375-.6832,41.3982-3.4434c13.0472-1.961,23.149-29.0047,23.149-29.0047"/><path class="ap" d="M468.7776,261.7691s3.756,5.0111,12.7562,1.6359,9.3241-7.545,9.3241-7.545"/><line class="ap" x1="469.5958" y1="301.1602" x2="473.2836" y2="293.3662"/><line class="ap" x1="413.0004" y1="305.4077" x2="414.2758" y2="324.048"/><line class="ap" x1="479.7561" y1="341.113" x2="538.8602" y2="321.5757"/><path class="x" d="M246.9782,291.5706c.266.1751.5366.3467.806.5172a34.0079,34.0079,0,0,0,8.36,4.2654c1.7462.5138,3.6458.7821,5.0691,1.9166a14.2472,14.2472,0,0,0,1.71,1.3153c.1694.0978,1.8474.7242,1.7758.5469a2.4636,2.4636,0,0,0,1.5074,1.1368.3867.3867,0,0,0,.2194.0432c.075-.0137.1421-.0921.1171-.1626.2171.4229.9811.6093,1.2232.3808s-.3627-1.2982-.3627-1.2982.4093.0295.5287-.108a1.3461,1.3461,0,0,0,.2569-.8242,9.7055,9.7055,0,0,0-2.8739-7.4837"/><path class="aq" d="M265.8722,297.2324a3.7078,3.7078,0,0,0,.4513,1.37,13.6476,13.6476,0,0,0,.64,1.3607c.1126.2024.399.0591.357-.15a6.0464,6.0464,0,0,0-.5241-1.52,2.7132,2.7132,0,0,0-.7832-1.14.0938.0938,0,0,0-.141.08"/><path class="aq" d="M263.0224,297.33a39.0677,39.0677,0,0,1,2.9091,3.3581c.0955.13.3274.0591.2763-.1159-.4343-1.4927-1.9235-2.4055-2.991-3.4366a.1375.1375,0,0,0-.1944.1944"/><line class="ar" x1="244.7034" y1="500.4513" x2="224.5056" y2="294.2866"/><polyline class="ar" points="323.344 500.451 303.146 294.287 224.506 294.287"/><line class="ar" x1="282.9483" y1="500.4513" x2="303.1461" y2="294.2866"/><polyline class="ar" points="204.308 500.451 224.505 294.287 303.146 294.287"/><line class="ar" x1="320.1118" y1="471.245" x2="207.1692" y2="471.245"/><line class="ar" x1="317.4857" y1="445.9997" x2="209.6418" y2="445.9997"/><line class="ar" x1="315.468" y1="420.0606" x2="212.1838" y2="420.0606"/><line class="ar" x1="312.9495" y1="395.3371" x2="214.6059" y2="395.3371"/><line class="ar" x1="310.5161" y1="369.5112" x2="217.0289" y2="369.5112"/><line class="ar" x1="308.0082" y1="343.9173" x2="219.5583" y2="343.9173"/><line class="ar" x1="305.0679" y1="319.7455" x2="222.011" y2="319.7455"/><path class="x" d="M242.59,293.7676q12.1036.0375,24.2051-.0557a12.3054,12.3054,0,0,0-2.102-3.0762,11.2991,11.2991,0,0,0-3.0069-2.2543,27.3517,27.3517,0,0,0-12.173-3"/><path class="as" d="M214.4219,238.1436s11.0362,28.7682,13.7929,31.1794,29.0479,15.4823,29.0479,15.4823l-8.0588,17.0511s-31.6274-12.6334-36.1587-17.0511-18.9484-21.5369-20.3979-38.7222"/><path class="x" d="M193.35,426.1788,192.2152,457.14l.9595,9.7447,36.9192-.0136a1.6881,1.6881,0,0,0,.6048-3.2638l-16.4315-7.6553,2.6453-32.2071"/><path class="y" d="M233.4452,466.4757c-.3842-1.2243-1.0936-2.6022-1.8143-2.9159l-17.4251-7.6076c-9.6448,3.8549-22.0883.8117-22.0883.8117l-1.02,13.1427a.7873.7873,0,0,0,.7879.7867l41.247-.0148c.8549,0,.3251-4.1641.3126-4.2028"/><path class="z" d="M217.9817,456.724a20.6057,20.6057,0,0,0-2.4828,4.1221"/><path class="z" d="M220.1737,458.05a18.01,18.01,0,0,0-2.0406,3.5048"/><path class="z" d="M222.0272,459.0176a25.8478,25.8478,0,0,0-1.9133,3.2161"/><line class="z" x1="191.3326" y1="467.8534" x2="233.6187" y2="467.8375"/><path class="z" d="M191.745,461.5632s9.7914.1182,10.6406,6.2854"/><path class="z" d="M228.0592,462.0006s-2.8409,3.9948-3.4059,5.841"/><path class="ao" d="M185.1949,309.7918s-3.5593,15.7779,4.0948,34.8934a284.488,284.488,0,0,1,4.005,42.8329c.3047,23.3059-2.7977,53.0017-2.7977,64.0925h30.3712s3.7242-31.5819,4.055-63.4127c.3706-35.6539-2.6476-75.8983-2.6476-86.2876"/><path class="ap" d="M216.3214,451.6106s3.73-32.1639,4.0641-64.396c.3683-35.4061-2.6568-75.0105-2.6568-85.3043"/><path class="x" d="M244.7,400.9812l-1.1345,30.9611.9594,9.7448,36.9193-.0136a1.6881,1.6881,0,0,0,.6047-3.2638l-16.4315-7.6553,2.6454-32.2071"/><path class="y" d="M284.7956,441.2782c-.3842-1.2243-1.0936-2.6022-1.8143-2.9159l-17.4251-7.6076c-9.6448,3.8549-22.0884.8117-22.0884.8117l-1.02,13.1427a.7872.7872,0,0,0,.7878.7867l41.2471-.0148c.8549,0,.3251-4.1641.3126-4.2028"/><path class="z" d="M269.3315,431.5265a20.6008,20.6008,0,0,0-2.4817,4.1221"/><path class="z" d="M271.5241,432.852a18.01,18.01,0,0,0-2.0406,3.5048"/><path class="z" d="M273.3775,433.82a25.8593,25.8593,0,0,0-1.9132,3.2161"/><line class="z" x1="242.683" y1="442.6559" x2="284.9691" y2="442.64"/><path class="z" d="M243.0954,436.3668s9.7914.1171,10.6406,6.2843"/><path class="z" d="M279.41,436.8031s-2.8409,3.9948-3.4059,5.841"/><path class="ao" d="M236.36,311.5136s29.1854,27.6644,35.7607,45.68c4.5848,12.56-2.0781,69.88-2.0781,69.88H240.9749s3.5423-52.1764,1.7075-57.5614c-2.1565-6.3332-27.1835-27.9259-27.1835-27.9259a24.5771,24.5771,0,0,1-15.7119-13.7429c-4.5427-10.2314-2.44-22.6454-2.44-22.6454"/><path class="ap" d="M229.5386,311.5136s30.254,31.98,35.7608,45.68c4.1834,10.4064-2.0781,69.88-2.0781,69.88"/><path class="ap" d="M224.3024,349.4593c-2.293-2.08-6.2627-5.6534-7.4723-6.7129a7.93,7.93,0,0,0-2.6408-1.554,24.7872,24.7872,0,0,1-14.4023-13.35"/><path class="ap" d="M207.8313,321.47s8.7035.3047,12.3424,0"/><line class="ap" x1="184.3685" y1="321.4696" x2="191.386" y2="321.4696"/><path class="x" d="M288.5164,241.4653c3.0512-1.3915,16.9408-7.4655,17.2682-6.622.3137.8117-4.0766,3.739-3.5889,3.8766a26.9176,26.9176,0,0,0,6.1626-1.9053c1.753-.86,4.7076-1.9531,5.1794-1.2392.8992,1.3585-8.7751,5.9524-8.7751,5.9524s1.7109-.7867,2.5806.2717c1.2539,1.5256-1.4,2.9387-1.4,2.9387s1.52-.7731,2.0213.5411c.5229,1.3653-1.7541,2.476-1.7541,2.476s1.8053-.8663,2.0337.7821c.3013,2.1656-14.1374,7.2585-14.1374,7.2585"/><path class="y" d="M218.1354,227.4149a9.9884,9.9884,0,0,1-7.5371,1.5142c-4.6359-.79-5.7625-3.0284-5.7625-3.0284s-12.33,1.7177-18.26,39.7464a247.8027,247.8027,0,0,0-2.7807,48.4511h56.22s1.7154-58.0992-1.1425-68.899"/><path class="y" d="M222.5594,255.3629s16.6543,18.3982,32.1923,18.3982,44.7871-16.4917,44.7871-16.4917l-6.988-19.1781-33.985,12.19s-17.8992-16.7226-26.157-19.8056a44.6443,44.6443,0,0,0-14.2739-3.06"/><path class="z" d="M240.4642,269.5281s-10.4609-7.9782-15.51-11.7251"/><line class="z" x1="289.3078" y1="239.2543" x2="295.707" y2="259.3339"/><line class="z" x1="183.6241" y1="309.4188" x2="240.1363" y2="309.4188"/><path class="z" d="M230.5421,261.9967c.55,16.16,0,52.1014,0,52.1014"/><path class="x" d="M205.0376,217.6143l-1.2767,10.26s9.9051,5.1941,16.4748-.3263v-5.9842Z"/><path class="x" d="M218.4818,201.5124s11.575,14.5922,7.3427,19.9988c-2.2,2.8114-9.3765,2.1384-12.7972,0-2.5385-1.5858-9.6254-10.0517-8.542-12.215,4.1437-8.2692,13.9965-7.7838,13.9965-7.7838"/><path class="ae" d="M216.9924,204.1851a72.7534,72.7534,0,0,1-.565,11.2022l-.8867,19.2042s-15.2754,1.628-25.044-5.1554c0,0,3.2752-20.1807,10.5565-26.2946,6.9243-5.8159,15.9392-5.3964,20.5195-1.6347,0,0-.6366,1.7621-1.4915,2.1679a11.9726,11.9726,0,0,1-3.0888.51"/><path class="x" d="M217.9939,213.45c-1.4131-1.7916-2.5579-1.5063-3.182-.523-.8333,1.3119.8367,4.0392,1.6154,4.5041,1.5757.9435,2.8523.8447,2.9728-.4354"/><path class="al" d="M220.3651,223.309a2.3508,2.3508,0,0,1-2.202-1.3983"/><path class="am" d="M221.5253,208.9134c.4843.4035.939,1.1357.6707,1.6734a.3741.3741,0,0,1-.3877.2091c-1.0879-.1068-1.2948-2.7249-.283-1.8825"/><path class="at" d="M221.39,206.9217a2.537,2.537,0,0,0-2.18,1.7132"/><path class="g" d="M222.4085,216.4492l2.5726-.8253s1.0129,3.16-.19,3.5685c-1.3278.4513-2.3827-2.7432-2.3827-2.7432"/><path class="ae" d="M208.3948,199.7006a2.4194,2.4194,0,0,0,1.7053-2.3793,3.0625,3.0625,0,0,0-1.653-2.5249,4.2025,4.2025,0,0,0-3.0739-.26,3.3071,3.3071,0,0,0-1.09.5024c-1.3176.9743-1.2835,3.0819-.349,4.4291a2.7688,2.7688,0,0,0,1.5654,1.188,4.7153,4.7153,0,0,0,2.7727-.5321"/><path class="x" d="M222.7554,208.7468c.29.1581,3.3388,1.4779,3.3593,2.7057.0114.6934-1.6791,1.4483-1.6791,1.4483"/><path class="x" d="M262.8331,291.3585a17.8255,17.8255,0,0,1,3.1592,5.4646.5616.5616,0,0,1,.0694.2217c.0113.3615-.5332.3945-.8708.266a7.1037,7.1037,0,0,1-2.1213-1.2618,5.13,5.13,0,0,0-.7685-.6105,4.55,4.55,0,0,0-1.7359-.4058,7.9481,7.9481,0,0,1-6.0888-3.6742"/><path class="au" d="M262.8331,291.3585a12.82,12.82,0,0,1,2.8421,4.2062l.5343,1.1425a.9025.9025,0,0,1,.09.457.5544.5544,0,0,1-.3627.4058,1.2325,1.2325,0,0,1-.7946-.0034,7.3041,7.3041,0,0,1-2.2713-1.3153,3.2865,3.2865,0,0,0-.9413-.69,4.6476,4.6476,0,0,0-1.1687-.2456,9.5307,9.5307,0,0,1-2.5089-.6218,6.9222,6.9222,0,0,1-3.7754-3.3354,7.5187,7.5187,0,0,0,3.9277,2.925,11.1527,11.1527,0,0,0,2.4157.5184,5.0364,5.0364,0,0,1,1.3085.2546,3.6633,3.6633,0,0,1,1.1141.7662,6.8062,6.8062,0,0,0,2.0645,1.254.7565.7565,0,0,0,.45.0227c.058-.0239.0557-.033.0557-.033.01-.0114-.04-.0921-.0477-.1512-.1808-.3888-.3343-.7844-.49-1.1754a15.9227,15.9227,0,0,0-2.4419-4.3813"/><path class="x" d="M69.2,453.8009l-1.0288,32.447,1.055,10.2052,38.6835-.2047a1.7687,1.7687,0,0,0,.6173-3.4229l-17.2557-7.935,2.6056-33.7611"/><path class="av" d="M111.42,495.8176c-.4093-1.2812-1.16-2.7216-1.9167-3.0467L91.206,484.8916c-10.0846,4.0869-23.14.9618-23.14.9618l-1,13.7771a.8253.8253,0,0,0,.83.8207l43.2171-.2273c.897-.0057.3206-4.3654.307-4.4063"/><path class="aw" d="M95.1663,485.68a21.5473,21.5473,0,0,0-2.58,4.3324"/><path class="aw" d="M97.47,487.0572a18.9852,18.9852,0,0,0-2.12,3.6821"/><path class="aw" d="M99.417,488.0619a26.9766,26.9766,0,0,0-1.9883,3.3809"/><line class="aw" x1="67.301" y1="497.4772" x2="111.6083" y2="497.2442"/><path class="aw" d="M67.7006,490.8862s10.26.0705,11.1817,6.53"/><path class="aw" d="M105.7534,491.1559s-2.9569,4.2006-3.5389,6.1366"/><path class="ao" d="M72.7808,337.686S93.34,376.2138,99.8642,400.4438,97.71,479.2456,97.71,479.2456H65.72s6.381-59.23-1.1732-78.8018-34.58-71.0736-34.58-71.0736"/><path class="ap" d="M70.1014,479.246s5.2441-61.6154,2.0531-76.8373S46.8467,351.76,46.8467,351.76"/><path class="x" d="M32.55,435.7551,13.6423,461.8143l-5.1509,8.874,31.4034,22.59a1.7688,1.7688,0,0,0,2.5123-2.4055l-9.2866-16.5679,20.9572-27.3313"/><path class="av" d="M42.9866,494.9938c.424-1.2766.6627-2.8818.2421-3.5912L33.0679,474.2674c-10.5611-2.6272-19.2793-12.8335-19.2793-12.8335L4.876,471.9858a.8246.8246,0,0,0,.1887,1.1516l35.0832,25.24c.7276.5229,2.8262-3.3422,2.8387-3.3832"/><path class="aw" d="M35.8066,477.2344a21.6174,21.6174,0,0,0-4.6337,1.9849"/><path class="aw" d="M36.86,479.7034a19.0184,19.0184,0,0,0-3.8822,1.73"/><path class="aw" d="M37.8426,481.6617a26.9177,26.9177,0,0,0-3.5957,1.5631"/><line class="aw" x1="6.332" y1="470.3835" x2="42.2997" y2="496.2585"/><path class="aw" d="M10.5335,465.2878s8.2544,6.0934,5.2009,11.8593"/><path class="aw" d="M41.1464,487.8909s-4.861,1.6575-6.4719,2.8818"/><path class="ao" d="M21.5336,329.37c-6.091,17.2637,0,30.8509,0,30.8509S42.3,398.1754,42.3,405.8887c0,7.0744-26.6412,47.3847-26.6412,47.3847l24.3619,19.5828s38.2686-41.1834,37.5445-69.6856C76.668,367.9293,57.4911,329.37,57.4911,329.37"/><path class="ap" d="M26.0809,330.5065c-6.0911,17.2637,1.263,28.899,1.263,28.899s19.5032,39.9067,19.5032,47.62c0,7.0744-27.6815,49.0683-27.6815,49.0683"/><path class="ap" d="M67.8754,434.4173c5.7034-10.4746,9.9346-21.5881,9.6891-31.2465C76.6675,367.93,57.4906,329.37,57.4906,329.37"/><path class="ap" d="M24.0847,344.0461s10.8714.6389,15.1345-8.1"/><path class="ap" d="M65.7473,349.033s2.98.33,2.6931-1.1448-2.6931-9.4151-2.6931-9.4151"/><path class="ax" d="M79.5589,237.7789c1.1152,6.9619.2353,13.1121-5.7079,14.0363s-14.1954-.77-15.8142-10.6918c-1.1346-6.9584,2.7977-13.353,8.7409-14.2772s11.666,3.9709,12.7812,10.9327"/><path class="am" d="M74.7485,237.8422c-.1228.6389-.008,1.52.557,1.7746a.3866.3866,0,0,0,.4468-.0875c.798-.7947-.7458-3.02-1.0038-1.6871"/><path class="ay" d="M72.7646,236.2641a4.8692,4.8692,0,0,1,4.1017-.2808"/><path class="g" d="M78.6087,245.0561l-3.8732.0125s-.233,3.2217,1.6927,3.5526c1.61.2762,2.18-3.5651,2.18-3.5651"/><path class="ax" d="M70.7064,259.4367a23.6208,23.6208,0,0,1-8.9774-.391c-5.1327-1.4029-6.5924-3.4878-6.5924-3.4878l7.1176-14.8525,10.9816,4.9793Z"/><path class="ad" d="M72.0747,251.9941s-4.7894.1558-7.2688-2.1941"/><path class="ax" d="M78.3033,237.5663s2.9705,4.3609,2.8193,5.14-2.3032,1.1186-2.3032,1.1186"/><path class="az" d="M62.3091,247.4068a7.3816,7.3816,0,0,1-2.0428.4639,7.1332,7.1332,0,0,1-4.096-.7094,6.1668,6.1668,0,0,1-3.2388-6.4424c.0853-.4137.2183-.8173.2842-1.2345.31-1.9428-.83-3.8015-1.1493-5.7432a7.6915,7.6915,0,0,1,1.2471-5.4522,9.3675,9.3675,0,0,1,4.4472-3.4638c1.4233-.5457,2.9842-.74,4.1653-1.7644A14.231,14.231,0,0,1,63.59,221.658c2.958-1.8621,7.1733-.8413,9.813,1.12a3.1088,3.1088,0,0,0,1.0038.5911c.6491.1739,1.3267-.0966,1.986.0352,2.534.5105,3.6469,4.254,3.6208,6.4935a3.1738,3.1738,0,0,1-.5673,1.87,3.5824,3.5824,0,0,1-2.4817,1.2368c-1.3187.1615-2.6863-.1068-3.9743.2865-.9049.2774-1.6847.8617-2.5635,1.213a5.38,5.38,0,0,1-4.2585-.1376,6.8049,6.8049,0,0,1,.3149,2.85c-.2694,1.7894-1.7825,2.6681-3.3923,3.1126a10.8723,10.8723,0,0,1,.3991,5.908,1.9418,1.9418,0,0,1-1.1812,1.17"/><path class="ac" d="M64.5061,238.87a2.1532,2.1532,0,0,0-3.0887-.34c-2.1577,1.7984.6525,5.6693,2.3612,6.3047s2.2122-1.26,2.2122-1.26"/><path class="i" d="M145.2773,314.6633a38.1938,38.1938,0,0,0,10.5815-14.33l-7.1915-3.8435a29.9782,29.9782,0,0,0,1.9314-7.8077l8.1646-.0329a38.4691,38.4691,0,0,0-2.65-17.6161l-7.8133,2.37a29.99,29.99,0,0,0-4.1426-6.8913l5.7421-5.791A38.1922,38.1922,0,0,0,135.57,250.14l-3.8436,7.1914A29.98,29.98,0,0,0,123.92,255.4l-.0341-8.1657a38.4786,38.4786,0,0,0-17.6149,2.651l2.3691,7.8133a29.9417,29.9417,0,0,0-6.8925,4.1426l-5.79-5.7432a38.21,38.21,0,0,0-10.5826,14.3295l7.1926,3.8448a29.97,29.97,0,0,0-1.9314,7.8065l-8.1646.0329a38.4669,38.4669,0,0,0,2.65,17.6161l7.8133-2.37a29.9319,29.9319,0,0,0,4.1426,6.8925l-5.7421,5.7909a38.191,38.191,0,0,0,14.33,10.5815l3.8435-7.1927a29.984,29.984,0,0,0,7.8065,1.9326l.033,8.1646a38.4952,38.4952,0,0,0,17.6161-2.65l-2.3691-7.8133a30.0083,30.0083,0,0,0,6.8925-4.1437Zm-33.2348-17.6707a14.435,14.435,0,1,1,20.1864-3.0364,14.4346,14.4346,0,0,1-20.1864,3.0364"/><path class="x" d="M122.7856,312.9025c3.34.2865,18.4232,1.8178,18.2936,2.7124-.125.8617-5.2248,1.1482-5.03,1.6154.2763.6628,4.121,1.24,6.3048,1.3665,1.9485.11,5.0588.6105,5.12,1.4642.1171,1.6245-10.5667.8742-10.5667.8742.0353.4911,11.6387-1.3414,11.8763.008.3422,1.9439-12.0286,2.9023-12.4253,3.3684,0,0,10.4962-3.8072,10.75-2.3692.2535,1.44-9.0343,5.0736-11.998,5.1293,2.4226-.5036,9.5595-4.5222,9.7448-3.4718s-6.1251,3.7913-7.1528,3.9618a75.5951,75.5951,0,0,1-17.0841.57"/><path class="aa" d="M70.8907,258.4852s-3.2422,1.5358-8.1475-.5946c-5.326-2.3145-6.4515-4.9792-6.4515-4.9792s-28.9183,2.5612-39.4963,82.8L76.01,343.0551s4.7667-28.6795,4.005-51.89c-.4854-14.7786-6.2263-26.2763-9.1241-32.68"/><path class="aa" d="M53.5177,290.6058s9.1059,30.511,33.7065,37.1113a165.9672,165.9672,0,0,0,39.0053,5.8535L128.6123,313s-26.7857-4.8053-37.8071-12.0957c-8.392-5.5511-10.0278-23.3343-12.1525-29.6243-2.95-8.7364-7.7622-12.7948-7.7622-12.7948"/><path class="ab" d="M53.9306,253.5345s1.8143,5.5965,10.2552,7.43c6.1649,1.338,8.5784-.4991,8.5784-.4991"/><path class="ab" d="M77.5645,324.2585S55.1363,313.8975,53.93,284.5529"/><line class="ab" x1="123.636" y1="312.0044" x2="120.6177" y2="333.3356"/></g></g></g></svg>