<svg xmlns="http://www.w3.org/2000/svg" viewBox="0 0 1122.3476 262.4983"><defs><style>.a{fill:#f14f31;}.b{fill:#122852;}</style></defs><title>supernacular-logo-full</title><path class="a" d="M364.6571,123.2616a15.8543,15.8543,0,0,0-7.3464-5.0634,26.368,26.368,0,0,0-8.7707-1.64,23.0825,23.0825,0,0,0-4.993.57,19.1506,19.1506,0,0,0-4.8488,1.7832,10.5509,10.5509,0,0,0-3.7084,3.2076,8.1265,8.1265,0,0,0-1.4266,4.85,8.0382,8.0382,0,0,0,3.4233,6.99,32.3911,32.3911,0,0,0,8.6288,4.1366q5.2059,1.71,11.1968,3.4233a46.25,46.25,0,0,1,11.1967,4.8477,26.5375,26.5375,0,0,1,8.6288,8.4163q3.4227,5.277,3.4233,14.12a32.476,32.476,0,0,1-3.1382,14.6905,29.7848,29.7848,0,0,1-8.4868,10.4109,36.0269,36.0269,0,0,1-12.4087,6.1333,56.9168,56.9168,0,0,1-33.161-.9973,45.6964,45.6964,0,0,1-15.689-9.7L323.0093,172.04a23.0641,23.0641,0,0,0,8.6287,7.06,24.6256,24.6256,0,0,0,10.7686,2.4965,24.3007,24.3007,0,0,0,5.4916-.6429A17.9415,17.9415,0,0,0,352.89,179.03a10.7871,10.7871,0,0,0,3.5653-3.28,8.1849,8.1849,0,0,0,1.355-4.7068,8.5423,8.5423,0,0,0-3.4948-7.2033,32.2785,32.2785,0,0,0-8.7708-4.4932q-5.2787-1.8527-11.41-3.71a51.0286,51.0286,0,0,1-11.41-4.9908,27.4685,27.4685,0,0,1-8.7719-8.2732q-3.4971-5.135-3.4949-13.55a30.3277,30.3277,0,0,1,3.21-14.2613,30.9557,30.9557,0,0,1,8.5572-10.27,37.204,37.204,0,0,1,12.3372-6.2038,50.5149,50.5149,0,0,1,14.4054-2.0694,56.6725,56.6725,0,0,1,16.5454,2.426,38.2033,38.2033,0,0,1,14.4054,8.13Z"/><path class="a" d="M453.5126,199.5675H432.9749V190.154H432.69a23.7661,23.7661,0,0,1-2.9247,3.9935,19.19,19.19,0,0,1-4.35,3.5664,25.2681,25.2681,0,0,1-5.8471,2.5669,24.4315,24.4315,0,0,1-7.1317.9973q-8.13,0-13.1936-2.4943a18.862,18.862,0,0,1-7.8439-6.9193,27.0789,27.0789,0,0,1-3.7084-10.4108,84.8123,84.8123,0,0,1-.9279-12.98V130.2492h21.3952v33.947q0,2.9951.2135,6.2038a19.5758,19.5758,0,0,0,1.2835,5.92,9.2043,9.2043,0,0,0,9.6271,6.1333,13.2,13.2,0,0,0,6.7046-1.4992,10.2139,10.2139,0,0,0,3.922-3.9935,16.31,16.31,0,0,0,1.7821-5.6336,48.3737,48.3737,0,0,0,.4282-6.56V130.2492h21.3941Z"/><path class="a" d="M463.4964,130.2492h19.6824v9.13h.2851a23.6305,23.6305,0,0,1,3.3518-3.78,25.2861,25.2861,0,0,1,4.85-3.4938,30.22,30.22,0,0,1,6.0608-2.5691,23.9734,23.9734,0,0,1,6.99-.9973,35.7738,35.7738,0,0,1,13.9773,2.6374,31.2351,31.2351,0,0,1,10.7686,7.4168,33.1408,33.1408,0,0,1,6.917,11.34,41.2888,41.2888,0,0,1,2.425,14.4066,43.706,43.706,0,0,1-2.21,13.9046,38.306,38.306,0,0,1-6.2765,11.767,30.6758,30.6758,0,0,1-9.9122,8.2027,28.1544,28.1544,0,0,1-13.2651,3.0645,36.7638,36.7638,0,0,1-12.4791-2.0672,19.9568,19.9568,0,0,1-9.4852-7.06h-.285V232.088H463.4964Zm19.6824,34.66q0,7.8462,4.4921,12.6938,4.4928,4.851,12.6234,4.85t12.6222-4.85q4.4928-4.8475,4.4933-12.6938,0-7.8427-4.4933-12.6938-4.4927-4.8475-12.6222-4.85-8.13,0-12.6234,4.85Q483.1782,157.0633,483.1788,164.9094Z"/><path class="a" d="M609.8317,187.587a34.1344,34.1344,0,0,1-12.9789,10.1269,38.9122,38.9122,0,0,1-16.26,3.5642,43.6549,43.6549,0,0,1-15.0472-2.5669,36.2,36.2,0,0,1-12.2667-7.3442,34.4416,34.4416,0,0,1-8.2006-11.483,38.937,38.937,0,0,1,0-29.9513,34.4548,34.4548,0,0,1,8.2006-11.4808,36.24,36.24,0,0,1,12.2667-7.3464,43.707,43.707,0,0,1,15.0472-2.5669,34.2586,34.2586,0,0,1,13.4786,2.5669,28.0957,28.0957,0,0,1,10.2689,7.3464,33.4891,33.4891,0,0,1,6.49,11.4808,46.3274,46.3274,0,0,1,2.2818,14.9767v6.7036H563.4771a16.9377,16.9377,0,0,0,5.5621,9.77,15.74,15.74,0,0,0,10.555,3.6369,16.0817,16.0817,0,0,0,8.9139-2.3534,23.9447,23.9447,0,0,0,6.3469-6.0629Zm-18.1139-30.5237a12.3909,12.3909,0,0,0-3.5664-9.27,12.6823,12.6823,0,0,0-9.5555-3.85,16.08,16.08,0,0,0-6.2754,1.14,15.7744,15.7744,0,0,0-4.6352,2.9236,12.8506,12.8506,0,0,0-2.9963,4.1366,13.6126,13.6126,0,0,0-1.2119,4.92Z"/><path class="a" d="M618.9569,130.2492h21.3952v11.1263h.2851a26.2671,26.2671,0,0,1,8.13-9.6271,20.5418,20.5418,0,0,1,11.8374-3.21q1.8493,0,3.7073.1431a18.2933,18.2933,0,0,1,3.4256.57v19.54a32.3854,32.3854,0,0,0-4.4955-1.07,29.0529,29.0529,0,0,0-4.6319-.3566,22.74,22.74,0,0,0-9.7009,1.71,12.88,12.88,0,0,0-5.49,4.7795,18.1146,18.1146,0,0,0-2.4965,7.3441,71.4383,71.4383,0,0,0-.57,9.4136v28.954H618.9569Z"/><path class="a" d="M672.4422,130.2492H692.98v9.4135h.2862a17.363,17.363,0,0,1,2.8509-3.9935,20.7294,20.7294,0,0,1,4.4228-3.5642,25.3049,25.3049,0,0,1,5.8472-2.5691,24.4811,24.4811,0,0,1,7.1306-.9973q8.13,0,13.1231,2.4965a18.9966,18.9966,0,0,1,7.7734,6.9171,28.0074,28.0074,0,0,1,3.78,10.4108,79.4128,79.4128,0,0,1,.9973,12.98v38.2245H717.7973V165.6227q0-2.995-.2136-6.206a19.5907,19.5907,0,0,0-1.2834-5.9176,9.198,9.198,0,0,0-9.6272-6.1333,13.2085,13.2085,0,0,0-6.7035,1.497,10.2167,10.2167,0,0,0-3.9231,3.9935,16.3332,16.3332,0,0,0-1.7832,5.6336,48.7834,48.7834,0,0,0-.4271,6.56v34.5172h-21.394Z"/><path class="a" d="M775.4235,200.6683a29.6674,29.6674,0,0,1-16.1127-4.4052,29.0839,29.0839,0,0,1-10.88-12.5331,43.8706,43.8706,0,0,1-3.8548-19.0033,44.5844,44.5844,0,0,1,3.9253-19.21,30.8985,30.8985,0,0,1,10.8776-12.9448,28.3565,28.3565,0,0,1,16.0444-4.6143,27.0539,27.0539,0,0,1,14.8733,4.1322,20.7176,20.7176,0,0,1,8.8126,11.155l-1.6533,1.1007V129.7472h20.52v69.82h-20.52V185.2446l1.6533.2774a20.0792,20.0792,0,0,1-8.8126,11.1528A27.74,27.74,0,0,1,775.4235,200.6683Zm6.0585-15.8354q7.5721,0,11.7758-5.2329,4.1971-5.2341,4.1983-15.1485,0-9.9165-4.1983-15.2167-4.2038-5.3-11.7758-5.3034a14.3352,14.3352,0,0,0-11.9122,5.51q-4.3359,5.5082-4.337,15.2849,0,9.7812,4.2005,14.9415Q773.63,184.833,781.482,184.8329Z"/><path class="a" d="M873.9733,152.6427a12.0376,12.0376,0,0,0-4.4228-3.78,13.0073,13.0073,0,0,0-6.1311-1.497q-8.13,0-12.6234,4.85-4.4943,4.8477-4.4932,12.6938t4.4932,12.6938q4.491,4.851,12.6234,4.85a11.5128,11.5128,0,0,0,6.1311-1.57,18.7,18.7,0,0,0,4.4228-3.7095l14.12,14.8336a27.2977,27.2977,0,0,1-11.767,7.2033,44.25,44.25,0,0,1-12.9073,2.0672,43.6629,43.6629,0,0,1-15.0494-2.5669,36.18,36.18,0,0,1-12.2645-7.3442,34.4473,34.4473,0,0,1-8.2028-11.483,38.95,38.95,0,0,1,0-29.9513,34.4606,34.4606,0,0,1,8.2028-11.4808,36.22,36.22,0,0,1,12.2645-7.3464,43.7149,43.7149,0,0,1,15.0494-2.5669,44.3234,44.3234,0,0,1,12.9073,2.0672,27.3187,27.3187,0,0,1,11.767,7.2033Z"/><path class="a" d="M955.4131,199.5675H934.8754V190.154h-.2862a23.6353,23.6353,0,0,1-2.9236,3.9935,19.1437,19.1437,0,0,1-4.35,3.5664,25.25,25.25,0,0,1-5.8472,2.5669,24.423,24.423,0,0,1-7.1328.9973q-8.1268,0-13.1914-2.4943a18.875,18.875,0,0,1-7.8461-6.9193,27.08,27.08,0,0,1-3.7073-10.4108,84.6788,84.6788,0,0,1-.9268-12.98V130.2492H910.058v33.947q0,2.9951.2135,6.2038a19.5758,19.5758,0,0,0,1.2835,5.92,9.2043,9.2043,0,0,0,9.6271,6.1333,13.1965,13.1965,0,0,0,6.7036-1.4992,10.2024,10.2024,0,0,0,3.923-3.9935,16.3347,16.3347,0,0,0,1.7832-5.6336,48.7354,48.7354,0,0,0,.4271-6.56V130.2492h21.3941Z"/><path class="a" d="M963.6841,91.7407h21.3941V199.5675H963.6841Z"/><path class="a" d="M1021.5966,200.6683a29.6678,29.6678,0,0,1-16.1128-4.4052,29.0837,29.0837,0,0,1-10.88-12.5331,43.8692,43.8692,0,0,1-3.8548-19.0033,44.5844,44.5844,0,0,1,3.9252-19.21,30.8985,30.8985,0,0,1,10.8776-12.9448,28.3568,28.3568,0,0,1,16.0445-4.6143A27.0536,27.0536,0,0,1,1036.47,132.09a20.7167,20.7167,0,0,1,8.8126,11.155l-1.6533,1.1007V129.7472h20.52v69.82h-20.52V185.2446l1.6533.2774a20.0783,20.0783,0,0,1-8.8126,11.1528A27.74,27.74,0,0,1,1021.5966,200.6683Zm6.0585-15.8354q7.572,0,11.7757-5.2329,4.1971-5.2341,4.1983-15.1485,0-9.9165-4.1983-15.2167-4.2038-5.3-11.7757-5.3034a14.3354,14.3354,0,0,0-11.9123,5.51q-4.3359,5.5082-4.3369,15.2849,0,9.7812,4.2,14.9415Q1019.8035,184.833,1027.6551,184.8329Z"/><path class="a" d="M1073.2215,130.2492h21.3941v11.1263h.284a26.2888,26.2888,0,0,1,8.13-9.6271,20.5494,20.5494,0,0,1,11.84-3.21q1.8492,0,3.7073.1431a18.3,18.3,0,0,1,3.4233.57v19.54a32.3524,32.3524,0,0,0-4.4932-1.07,29.0821,29.0821,0,0,0-4.6342-.3566,22.7385,22.7385,0,0,0-9.7,1.71,12.88,12.88,0,0,0-5.4905,4.7795,18.1341,18.1341,0,0,0-2.4965,7.3441,71.4554,71.4554,0,0,0-.57,9.4136v28.954h-21.3941Z"/><path class="a" d="M211.2615,159.01,0,59.23,39.6762,161.5818,171.981,262.4983S198.1063,193.6687,211.2615,159.01Z"/><polygon class="b" points="83.697 262.498 171.981 262.498 126.522 227.824 83.697 262.498"/><polygon class="b" points="117.36 0 242.62 59.14 125.26 118.391 0 59.196 117.36 0"/></svg>