<svg xmlns="http://www.w3.org/2000/svg" viewBox="0 0 1116.8345 256.4996"><defs><style>.a{fill:#fff;}</style></defs><title>supernacular-logo-white</title><path class="a" d="M359.1439,120.3325a15.8539,15.8539,0,0,0-7.3464-5.0635,26.368,26.368,0,0,0-8.7707-1.64,23.0887,23.0887,0,0,0-4.993.57,19.1582,19.1582,0,0,0-4.8488,1.7832,10.5529,10.5529,0,0,0-3.7084,3.2076,8.1269,8.1269,0,0,0-1.4266,4.85,8.038,8.038,0,0,0,3.4233,6.99,32.3881,32.3881,0,0,0,8.6288,4.1366q5.2059,1.7106,11.1968,3.4233a46.2523,46.2523,0,0,1,11.1968,4.8477,26.5393,26.5393,0,0,1,8.6287,8.4163q3.4228,5.277,3.4233,14.12a32.4767,32.4767,0,0,1-3.1382,14.6906,29.7853,29.7853,0,0,1-8.4867,10.4108,36.0267,36.0267,0,0,1-12.4088,6.1334,56.919,56.919,0,0,1-33.161-.9973,45.6967,45.6967,0,0,1-15.689-9.7l15.8321-17.4006a23.0629,23.0629,0,0,0,8.6287,7.06,24.626,24.626,0,0,0,10.7686,2.4965,24.3005,24.3005,0,0,0,5.4916-.6428,17.9446,17.9446,0,0,0,4.9919-1.9241,10.7874,10.7874,0,0,0,3.5653-3.28,8.1847,8.1847,0,0,0,1.3551-4.7067,8.5422,8.5422,0,0,0-3.4949-7.2033,32.2814,32.2814,0,0,0-8.7708-4.4933q-5.2785-1.8525-11.41-3.7095a51.0215,51.0215,0,0,1-11.41-4.9908,27.4685,27.4685,0,0,1-8.7719-8.2732q-3.497-5.135-3.4948-13.55a30.3275,30.3275,0,0,1,3.21-14.2612,30.956,30.956,0,0,1,8.5572-10.27,37.2088,37.2088,0,0,1,12.3372-6.2038,50.5191,50.5191,0,0,1,14.4055-2.0694,56.6719,56.6719,0,0,1,16.5453,2.4261,38.2033,38.2033,0,0,1,14.4054,8.13Z"/><path class="a" d="M447.9994,196.6384H427.4617v-9.4136h-.2851a23.7661,23.7661,0,0,1-2.9247,3.9935,19.1918,19.1918,0,0,1-4.35,3.5664,25.2752,25.2752,0,0,1-5.8472,2.567,24.4349,24.4349,0,0,1-7.1317.9972q-8.13,0-13.1936-2.4942a18.8627,18.8627,0,0,1-7.8439-6.9193,27.0811,27.0811,0,0,1-3.7084-10.4109,84.8114,84.8114,0,0,1-.9279-12.98V127.32h21.3952v33.947q0,2.9952.2135,6.2038a19.5751,19.5751,0,0,0,1.2835,5.92,9.2045,9.2045,0,0,0,9.6271,6.1334,13.2019,13.2019,0,0,0,6.7047-1.4992,10.2143,10.2143,0,0,0,3.9219-3.9935,16.3109,16.3109,0,0,0,1.7821-5.6337,48.3737,48.3737,0,0,0,.4282-6.56V127.32h21.3941Z"/><path class="a" d="M457.9832,127.32h19.6824v9.13h.2851a23.6309,23.6309,0,0,1,3.3518-3.78,25.2878,25.2878,0,0,1,4.85-3.4937,30.2221,30.2221,0,0,1,6.0607-2.5692,23.9767,23.9767,0,0,1,6.99-.9972,35.7738,35.7738,0,0,1,13.9773,2.6373,31.234,31.234,0,0,1,10.7686,7.4169,33.14,33.14,0,0,1,6.9171,11.34,41.2882,41.2882,0,0,1,2.4249,14.4065,43.7055,43.7055,0,0,1-2.21,13.9046,38.3068,38.3068,0,0,1-6.2764,11.767,30.6776,30.6776,0,0,1-9.9123,8.2028,28.1543,28.1543,0,0,1-13.2651,3.0644,36.7614,36.7614,0,0,1-12.4791-2.0672,19.9565,19.9565,0,0,1-9.4851-7.06h-.2851v39.9372H457.9832Zm19.6824,34.66q0,7.8461,4.4922,12.6938,4.4926,4.851,12.6233,4.85t12.6223-4.85q4.4927-4.8477,4.4932-12.6938,0-7.8427-4.4932-12.6938-4.4928-4.8477-12.6223-4.85-8.13,0-12.6233,4.85Q477.665,154.1342,477.6656,161.98Z"/><path class="a" d="M604.3185,184.6579A34.1351,34.1351,0,0,1,591.34,194.7847a38.9122,38.9122,0,0,1-16.26,3.5642,43.6525,43.6525,0,0,1-15.0472-2.5669,36.2,36.2,0,0,1-12.2667-7.3442,34.4393,34.4393,0,0,1-8.2-11.483,38.9356,38.9356,0,0,1,0-29.9512,34.4526,34.4526,0,0,1,8.2-11.4808,36.24,36.24,0,0,1,12.2667-7.3464,43.7046,43.7046,0,0,1,15.0472-2.5669,34.2577,34.2577,0,0,1,13.4787,2.5669,28.095,28.095,0,0,1,10.2688,7.3464,33.4872,33.4872,0,0,1,6.49,11.4808,46.3273,46.3273,0,0,1,2.2819,14.9767v6.7035H557.9639a16.9389,16.9389,0,0,0,5.5621,9.77,15.74,15.74,0,0,0,10.555,3.6368,16.0809,16.0809,0,0,0,8.9139-2.3534,23.94,23.94,0,0,0,6.3469-6.0629Zm-18.1138-30.5237a12.3911,12.3911,0,0,0-3.5665-9.27,12.6823,12.6823,0,0,0-9.5555-3.85,16.0788,16.0788,0,0,0-6.2754,1.14,15.7741,15.7741,0,0,0-4.6352,2.9235,12.8528,12.8528,0,0,0-2.9963,4.1366,13.6147,13.6147,0,0,0-1.2119,4.92Z"/><path class="a" d="M613.4437,127.32h21.3952v11.1264h.2851a26.2692,26.2692,0,0,1,8.13-9.6272,20.5425,20.5425,0,0,1,11.8374-3.21q1.8493,0,3.7074.143a18.2936,18.2936,0,0,1,3.4255.57v19.5405a32.3711,32.3711,0,0,0-4.4955-1.07,29.0527,29.0527,0,0,0-4.6319-.3567,22.74,22.74,0,0,0-9.7009,1.7106,12.8786,12.8786,0,0,0-5.49,4.7794,18.1171,18.1171,0,0,0-2.4965,7.3442,71.4361,71.4361,0,0,0-.57,9.4136v28.954H613.4437Z"/><path class="a" d="M666.929,127.32h20.5377v9.4136h.2862a17.363,17.363,0,0,1,2.8509-3.9935,20.7294,20.7294,0,0,1,4.4228-3.5642,25.3093,25.3093,0,0,1,5.8472-2.5692,24.4855,24.4855,0,0,1,7.1306-.9972q8.13,0,13.1231,2.4964a18.9983,18.9983,0,0,1,7.7735,6.9171,28.01,28.01,0,0,1,3.78,10.4109,79.4119,79.4119,0,0,1,.9973,12.98v38.2245H712.2841V162.6936q0-2.9952-.2135-6.206a19.59,19.59,0,0,0-1.2835-5.9176,9.198,9.198,0,0,0-9.6271-6.1334,13.2087,13.2087,0,0,0-6.7036,1.497,10.2165,10.2165,0,0,0-3.923,3.9935,16.33,16.33,0,0,0-1.7832,5.6336,48.7849,48.7849,0,0,0-.4271,6.56v34.5172H666.929Z"/><path class="a" d="M769.91,197.7391a29.6675,29.6675,0,0,1-16.1128-4.4052,29.0834,29.0834,0,0,1-10.88-12.533,43.8692,43.8692,0,0,1-3.8549-19.0033,44.5841,44.5841,0,0,1,3.9253-19.21,30.8985,30.8985,0,0,1,10.8776-12.9448,28.3566,28.3566,0,0,1,16.0445-4.6143,27.0538,27.0538,0,0,1,14.8732,4.1322,20.7166,20.7166,0,0,1,8.8126,11.1549l-1.6533,1.1008V126.8181h20.52v69.82h-20.52V182.3155l1.6533.2774a20.0789,20.0789,0,0,1-8.8126,11.1527A27.74,27.74,0,0,1,769.91,197.7391Zm6.0585-15.8353q7.572,0,11.7757-5.2329,4.1971-5.2341,4.1983-15.1485,0-9.9167-4.1983-15.2167-4.2038-5.3-11.7757-5.3034a14.3352,14.3352,0,0,0-11.9123,5.51q-4.3359,5.5082-4.337,15.285,0,9.7812,4.2005,14.9415Q768.1173,181.9038,775.9689,181.9038Z"/><path class="a" d="M868.46,149.7136a12.0378,12.0378,0,0,0-4.4228-3.78,13.007,13.007,0,0,0-6.1311-1.497q-8.13,0-12.6234,4.85-4.4943,4.8477-4.4932,12.6938t4.4932,12.6938q4.4912,4.851,12.6234,4.85a11.5128,11.5128,0,0,0,6.1311-1.57,18.698,18.698,0,0,0,4.4228-3.7095l14.12,14.8337a27.2975,27.2975,0,0,1-11.767,7.2032,44.2458,44.2458,0,0,1-12.9073,2.0672,43.6605,43.6605,0,0,1-15.0494-2.5669,36.1781,36.1781,0,0,1-12.2645-7.3442,34.4453,34.4453,0,0,1-8.2028-11.483,38.95,38.95,0,0,1,0-29.9512,34.4586,34.4586,0,0,1,8.2028-11.4808,36.2182,36.2182,0,0,1,12.2645-7.3464,43.7126,43.7126,0,0,1,15.0494-2.5669,44.32,44.32,0,0,1,12.9073,2.0672,27.3185,27.3185,0,0,1,11.767,7.2032Z"/><path class="a" d="M949.9,196.6384H929.3622v-9.4136h-.2862a23.6353,23.6353,0,0,1-2.9236,3.9935,19.1437,19.1437,0,0,1-4.35,3.5664,25.2545,25.2545,0,0,1-5.8472,2.567,24.4264,24.4264,0,0,1-7.1328.9972q-8.1269,0-13.1914-2.4942a18.8763,18.8763,0,0,1-7.8461-6.9193,27.08,27.08,0,0,1-3.7073-10.4109,84.6778,84.6778,0,0,1-.9268-12.98V127.32h21.3941v33.947q0,2.9952.2135,6.2038a19.5751,19.5751,0,0,0,1.2835,5.92,9.2045,9.2045,0,0,0,9.6271,6.1334,13.1975,13.1975,0,0,0,6.7036-1.4992,10.2024,10.2024,0,0,0,3.923-3.9935,16.3353,16.3353,0,0,0,1.7832-5.6337,48.7354,48.7354,0,0,0,.4271-6.56V127.32H949.9Z"/><path class="a" d="M958.1709,88.8115H979.565V196.6384H958.1709Z"/><path class="a" d="M1016.0834,197.7391a29.6672,29.6672,0,0,1-16.1127-4.4052,29.0829,29.0829,0,0,1-10.88-12.533,43.8692,43.8692,0,0,1-3.8548-19.0033,44.5855,44.5855,0,0,1,3.9252-19.21,30.8992,30.8992,0,0,1,10.8776-12.9448,28.3568,28.3568,0,0,1,16.0445-4.6143,27.0542,27.0542,0,0,1,14.8733,4.1322,20.7164,20.7164,0,0,1,8.8125,11.1549l-1.6533,1.1008V126.8181h20.52v69.82h-20.52V182.3155l1.6533.2774a20.0787,20.0787,0,0,1-8.8125,11.1527A27.74,27.74,0,0,1,1016.0834,197.7391Zm6.0585-15.8353q7.572,0,11.7758-5.2329,4.1971-5.2341,4.1982-15.1485,0-9.9167-4.1982-15.2167-4.2038-5.3-11.7758-5.3034a14.3355,14.3355,0,0,0-11.9123,5.51q-4.3357,5.5082-4.3369,15.285,0,9.7812,4.2,14.9415Q1014.29,181.9038,1022.1419,181.9038Z"/><path class="a" d="M1067.7084,127.32h21.3941v11.1264h.284a26.2881,26.2881,0,0,1,8.13-9.6272,20.55,20.55,0,0,1,11.84-3.21q1.8492,0,3.7073.143a18.3,18.3,0,0,1,3.4233.57v19.5405a32.3382,32.3382,0,0,0-4.4932-1.07,29.0819,29.0819,0,0,0-4.6342-.3567,22.7379,22.7379,0,0,0-9.7,1.7106,12.8783,12.8783,0,0,0-5.4906,4.7794,18.1351,18.1351,0,0,0-2.4965,7.3442,71.4542,71.4542,0,0,0-.57,9.4136v28.954h-21.3941Z"/><polygon class="a" points="157.588 256.5 121.064 228.64 86.657 256.5 157.588 256.5"/><polygon class="a" points="0 62.153 36.655 156.71 165.09 254.675 201.959 157.54 0 62.153"/><polygon class="a" points="119.703 112.053 230.271 56.231 111.891 0.339 1.322 56.109 119.703 112.053"/></svg>